<svg id="Layer_1" data-name="Layer 1" xmlns="http://www.w3.org/2000/svg" viewBox="0 0 64.24 93.86"><defs><style>.cls-1{fill:#b27824;}</style></defs><title>king 2</title><path class="cls-1" d="M964.5,501.61l-2.68-2.68-3.41-3.42-6.25,6.26-3.67-3.67-4.83-4.83v22.45H973.1V493Zm3.78,9.28H948.49v-6l.25.25,3.42,3.41,3.41-3.41,2.84-2.84,2.68,2.68,3.41,3.41,3.41-3.41.37-.37Z" transform="translate(-927.65 -493.01)"/><path class="cls-1" d="M979.2,533.83l4-3-10-10.3H947.53c-1.32,0-7.82.35-12.23,5.51a15.19,15.19,0,0,0-3.08,5.83c-.49,3.39-1,6.79-1.46,10.18a14.35,14.35,0,0,1-1.15,2.21,13.37,13.37,0,0,1-2,2.4q9.63,20.12,19.27,40.21l9.61-5.92a20,20,0,0,0,7-11.17c.42-2.9.83-5.79,1.25-8.69l8.7,2.94,2.78,8.1,15.59-14.56ZM942.59,563a9.17,9.17,0,0,1-1,1.74q-4.14-8.37-8.27-16.73a13,13,0,0,1,.82-2.07,12.13,12.13,0,0,1,1.46-2.23c.39-3.27.78-6.55,1.18-9.82a12,12,0,0,1,2.88-5.36,12.11,12.11,0,0,1,6.8-3.63h10.76a30,30,0,0,0-8,8.65,29.63,29.63,0,0,0-3,6.76q-1.49,10.23-3,20.47A9,9,0,0,1,942.59,563Zm18.51-12-3.12,21a18.88,18.88,0,0,1-3.63,4.36,18.43,18.43,0,0,1-5.5,3.37q-2.08-4.44-4.19-8.88a28.53,28.53,0,0,0,3.5-9.12q1.56-10.37,3.13-20.75a36.13,36.13,0,0,1,12.28-16.13l7.15.06,5,5.44a34.57,34.57,0,0,0-14.59,20.65Zm16,9.59-11.46-4.12c.34-2.31.67-4.64,1-7A27.95,27.95,0,0,1,975.58,537l10.56,19.53-8,7.21Z" transform="translate(-927.65 -493.01)"/></svg>