<svg id="Layer_1" data-name="Layer 1" xmlns="http://www.w3.org/2000/svg" xmlns:xlink="http://www.w3.org/1999/xlink" viewBox="0 0 752.13 796.5"><defs><style>.cls-1{fill:#232136;}.cls-2{fill:#2e2d4c;}.cls-3{opacity:0.9;fill:url(#linear-gradient);}.cls-4{fill:url(#linear-gradient-2);}.cls-5{fill:url(#linear-gradient-3);}.cls-6{fill:url(#linear-gradient-4);}.cls-7{fill:url(#linear-gradient-5);}.cls-8{fill:url(#linear-gradient-6);}.cls-9{fill:url(#linear-gradient-7);}.cls-10{fill:url(#linear-gradient-8);}.cls-11{fill:url(#linear-gradient-9);}.cls-12{fill:url(#linear-gradient-10);}.cls-13{fill:url(#linear-gradient-11);}.cls-14{fill:url(#linear-gradient-12);}.cls-15{fill:url(#linear-gradient-13);}.cls-16{fill:url(#linear-gradient-14);}.cls-17{fill:url(#linear-gradient-15);}.cls-18{fill:url(#linear-gradient-16);}.cls-19{fill:url(#linear-gradient-17);}.cls-20{fill:url(#linear-gradient-18);}.cls-21{fill:url(#linear-gradient-19);}.cls-22{fill:url(#linear-gradient-20);}.cls-23{fill:url(#linear-gradient-21);}.cls-24{fill:url(#linear-gradient-22);}.cls-25{fill:url(#linear-gradient-23);}.cls-26{fill:url(#linear-gradient-24);}.cls-27{fill:url(#linear-gradient-25);}.cls-28{fill:url(#linear-gradient-26);}.cls-29{fill:url(#linear-gradient-27);}.cls-30{fill:url(#linear-gradient-28);}.cls-31{fill:url(#linear-gradient-29);}.cls-32{fill:url(#linear-gradient-30);}.cls-33{fill:url(#linear-gradient-31);}.cls-34{fill:url(#linear-gradient-32);}.cls-35{fill:url(#linear-gradient-33);}.cls-36{fill:url(#linear-gradient-34);}.cls-37{fill:url(#linear-gradient-35);}.cls-38{fill:url(#linear-gradient-36);}.cls-39{fill:url(#linear-gradient-37);}.cls-40{fill:url(#linear-gradient-38);}.cls-41{fill:url(#linear-gradient-39);}.cls-42{fill:url(#linear-gradient-40);}.cls-43{fill:url(#linear-gradient-41);}.cls-44{fill:url(#linear-gradient-42);}.cls-45{fill:url(#linear-gradient-43);}.cls-46{fill:url(#linear-gradient-44);}.cls-47{fill:url(#linear-gradient-45);}.cls-48{fill:url(#linear-gradient-46);}.cls-49{fill:url(#linear-gradient-47);}.cls-50{fill:url(#linear-gradient-48);}.cls-51{fill:url(#linear-gradient-49);}.cls-52{fill:url(#linear-gradient-50);}.cls-53{fill:url(#linear-gradient-51);}.cls-54{fill:url(#linear-gradient-52);}.cls-55{fill:url(#linear-gradient-53);}.cls-56{fill:url(#linear-gradient-54);}.cls-57{fill:url(#linear-gradient-55);}.cls-58{fill:url(#linear-gradient-56);}.cls-59{fill:url(#linear-gradient-57);}.cls-60{fill:url(#linear-gradient-58);}.cls-61{fill:url(#linear-gradient-59);}.cls-62{fill:url(#linear-gradient-60);}.cls-63{fill:url(#linear-gradient-61);}.cls-64{fill:url(#linear-gradient-62);}.cls-65{fill:url(#linear-gradient-63);}.cls-66{fill:url(#linear-gradient-64);}.cls-67{fill:url(#linear-gradient-65);}.cls-68{fill:url(#linear-gradient-66);}.cls-69{fill:url(#linear-gradient-67);}.cls-70{fill:url(#linear-gradient-68);}.cls-71{fill:url(#linear-gradient-69);}.cls-72{fill:url(#linear-gradient-70);}.cls-73{fill:url(#linear-gradient-71);}.cls-74{fill:url(#linear-gradient-72);}.cls-75{fill:url(#linear-gradient-73);}.cls-76{fill:url(#linear-gradient-74);}.cls-77{fill:url(#linear-gradient-75);}.cls-78{fill:url(#linear-gradient-76);}.cls-79{fill:url(#linear-gradient-77);}.cls-80{fill:url(#linear-gradient-78);}.cls-81{fill:url(#linear-gradient-79);}.cls-82{fill:url(#linear-gradient-80);}.cls-83{fill:url(#linear-gradient-81);}.cls-84{fill:url(#linear-gradient-82);}.cls-85{fill:url(#linear-gradient-83);}.cls-86{fill:url(#linear-gradient-84);}.cls-87{fill:url(#linear-gradient-85);}.cls-88{fill:url(#linear-gradient-86);}.cls-89{fill:url(#linear-gradient-87);}.cls-90{fill:url(#linear-gradient-88);}.cls-91{fill:url(#linear-gradient-89);}.cls-92{fill:url(#linear-gradient-90);}.cls-93{fill:url(#linear-gradient-91);}.cls-94{fill:url(#linear-gradient-92);}.cls-95{fill:url(#linear-gradient-93);}.cls-96{fill:url(#linear-gradient-94);}.cls-97{fill:url(#linear-gradient-95);}.cls-98{fill:url(#linear-gradient-96);}.cls-99{fill:url(#linear-gradient-97);}.cls-100{fill:url(#linear-gradient-98);}.cls-101{fill:url(#linear-gradient-99);}.cls-102{fill:url(#linear-gradient-100);}.cls-103{fill:url(#linear-gradient-101);}.cls-104{fill:url(#linear-gradient-102);}.cls-105{fill:url(#linear-gradient-103);}.cls-106{fill:url(#linear-gradient-104);}.cls-107{fill:url(#linear-gradient-105);}.cls-108{fill:url(#linear-gradient-106);}.cls-109{fill:url(#linear-gradient-107);}.cls-110{fill:url(#linear-gradient-108);}.cls-111{fill:url(#linear-gradient-109);}.cls-112{fill:url(#linear-gradient-110);}.cls-113{fill:url(#linear-gradient-111);}.cls-114{fill:url(#linear-gradient-112);}.cls-115{fill:url(#linear-gradient-113);}.cls-116{fill:url(#linear-gradient-114);}.cls-117{fill:url(#linear-gradient-115);}.cls-118{fill:url(#linear-gradient-116);}.cls-119{fill:url(#linear-gradient-117);}.cls-120{fill:url(#linear-gradient-118);}.cls-121{fill:url(#linear-gradient-119);}.cls-122{fill:url(#linear-gradient-120);}.cls-123{fill:url(#linear-gradient-121);}.cls-124{fill:url(#linear-gradient-122);}.cls-125{fill:url(#linear-gradient-123);}.cls-126{fill:url(#linear-gradient-124);}.cls-127{fill:url(#linear-gradient-125);}.cls-128{fill:url(#linear-gradient-126);}.cls-129{fill:url(#linear-gradient-127);}.cls-130{fill:url(#linear-gradient-128);}.cls-131{fill:url(#linear-gradient-129);}.cls-132{fill:url(#linear-gradient-130);}.cls-133{fill:url(#linear-gradient-131);}.cls-134{fill:url(#linear-gradient-132);}.cls-135{fill:url(#linear-gradient-133);}.cls-136{fill:url(#linear-gradient-134);}.cls-137{fill:url(#linear-gradient-135);}.cls-138{fill:url(#linear-gradient-136);}.cls-139{fill:url(#linear-gradient-137);}.cls-140{fill:url(#linear-gradient-138);}.cls-141{fill:url(#linear-gradient-139);}.cls-142{fill:url(#linear-gradient-140);}.cls-143{fill:url(#linear-gradient-141);}.cls-144{fill:url(#linear-gradient-142);}.cls-145{fill:url(#linear-gradient-143);}.cls-146{fill:url(#linear-gradient-144);}.cls-147{fill:url(#linear-gradient-145);}.cls-148{fill:url(#linear-gradient-146);}.cls-149{fill:url(#linear-gradient-147);}.cls-150{fill:url(#linear-gradient-148);}.cls-151{fill:url(#linear-gradient-149);}.cls-152{fill:url(#linear-gradient-150);}.cls-153{fill:url(#linear-gradient-151);}.cls-154{fill:url(#linear-gradient-152);}.cls-155{fill:url(#linear-gradient-153);}.cls-156{fill:url(#linear-gradient-154);}.cls-157{fill:none;stroke:#66669e;stroke-miterlimit:10;}.cls-158{fill:url(#linear-gradient-155);}.cls-159{fill:url(#linear-gradient-156);}.cls-160{fill:url(#linear-gradient-157);}.cls-161{fill:url(#linear-gradient-158);}.cls-162{fill:url(#linear-gradient-159);}.cls-163{fill:url(#linear-gradient-160);}.cls-164{fill:url(#linear-gradient-161);}.cls-165{fill:url(#linear-gradient-162);}.cls-166{fill:url(#linear-gradient-163);}.cls-167{fill:url(#linear-gradient-164);}.cls-168{fill:#b27824;}</style><linearGradient id="linear-gradient" x1="26.72" y1="1027.3" x2="386.13" y2="1278.57" gradientUnits="userSpaceOnUse"><stop offset="0" stop-color="#232136" stop-opacity="0"/><stop offset="0.2" stop-color="#2e2e3d"/></linearGradient><linearGradient id="linear-gradient-2" x1="262.2" y1="1258.7" x2="264.73" y2="1258.7" gradientUnits="userSpaceOnUse"><stop offset="0" stop-color="#66669e"/><stop offset="1" stop-color="#2b3990"/></linearGradient><linearGradient id="linear-gradient-3" x1="253.65" y1="1258.49" x2="259.32" y2="1258.49" xlink:href="#linear-gradient-2"/><linearGradient id="linear-gradient-4" x1="262.05" y1="1250.32" x2="265.33" y2="1250.32" xlink:href="#linear-gradient-2"/><linearGradient id="linear-gradient-5" x1="263.7" y1="1250.3" x2="265.41" y2="1250.3" xlink:href="#linear-gradient-2"/><linearGradient id="linear-gradient-6" x1="249.42" y1="1247.11" x2="256.53" y2="1247.11" xlink:href="#linear-gradient-2"/><linearGradient id="linear-gradient-7" x1="251.36" y1="1247.84" x2="255.88" y2="1247.84" xlink:href="#linear-gradient-2"/><linearGradient id="linear-gradient-8" x1="253.88" y1="1248.66" x2="258.36" y2="1248.66" xlink:href="#linear-gradient-2"/><linearGradient id="linear-gradient-9" x1="255.7" y1="1248.93" x2="257.23" y2="1248.93" xlink:href="#linear-gradient-2"/><linearGradient id="linear-gradient-10" x1="245.05" y1="1258.59" x2="249.68" y2="1258.59" xlink:href="#linear-gradient-2"/><linearGradient id="linear-gradient-11" x1="247.18" y1="1258.62" x2="249.66" y2="1258.62" xlink:href="#linear-gradient-2"/><linearGradient id="linear-gradient-12" x1="244.67" y1="1254.52" x2="247.32" y2="1254.52" xlink:href="#linear-gradient-2"/><linearGradient id="linear-gradient-13" x1="264.21" y1="1260.03" x2="265.7" y2="1260.03" xlink:href="#linear-gradient-2"/><linearGradient id="linear-gradient-14" x1="243.87" y1="1252.35" x2="269.71" y2="1252.35" xlink:href="#linear-gradient-2"/><linearGradient id="linear-gradient-15" x1="343.76" y1="1023.71" x2="372.72" y2="1021.16" xlink:href="#linear-gradient-2"/><linearGradient id="linear-gradient-16" x1="342.35" y1="1007.64" x2="371.31" y2="1005.1" gradientTransform="translate(1143.3 273.93) rotate(66.69)" xlink:href="#linear-gradient-2"/><linearGradient id="linear-gradient-17" x1="342.26" y1="1006.56" x2="371.21" y2="1004.01" gradientTransform="translate(1141.18 275.3) rotate(66.69)" xlink:href="#linear-gradient-2"/><linearGradient id="linear-gradient-18" x1="342.45" y1="1008.73" x2="371.4" y2="1006.18" gradientTransform="translate(1145.41 272.54) rotate(66.69)" xlink:href="#linear-gradient-2"/><linearGradient id="linear-gradient-19" x1="342.54" y1="1009.82" x2="371.5" y2="1007.27" gradientTransform="translate(1147.53 271.15) rotate(66.69)" xlink:href="#linear-gradient-2"/><linearGradient id="linear-gradient-20" x1="342.64" y1="1010.9" x2="371.6" y2="1008.36" gradientTransform="translate(1149.63 269.76) rotate(66.69)" xlink:href="#linear-gradient-2"/><linearGradient id="linear-gradient-21" x1="342.73" y1="1011.99" x2="371.69" y2="1009.44" gradientTransform="translate(1151.74 268.38) rotate(66.69)" xlink:href="#linear-gradient-2"/><linearGradient id="linear-gradient-22" x1="342.65" y1="1011" x2="371.6" y2="1008.45" gradientTransform="translate(1145.6 277.43) rotate(66.69)" xlink:href="#linear-gradient-2"/><linearGradient id="linear-gradient-23" x1="342.55" y1="1009.91" x2="371.51" y2="1007.37" gradientTransform="translate(1143.5 278.83) rotate(66.69)" xlink:href="#linear-gradient-2"/><linearGradient id="linear-gradient-24" x1="342.74" y1="1012.08" x2="371.7" y2="1009.54" gradientTransform="translate(1147.7 276.03) rotate(66.68)" xlink:href="#linear-gradient-2"/><linearGradient id="linear-gradient-25" x1="342.84" y1="1013.17" x2="371.79" y2="1010.63" gradientTransform="translate(1149.84 274.66) rotate(66.69)" xlink:href="#linear-gradient-2"/><linearGradient id="linear-gradient-26" x1="342.93" y1="1014.26" x2="371.89" y2="1011.71" gradientTransform="translate(1151.93 273.26) rotate(66.69)" xlink:href="#linear-gradient-2"/><linearGradient id="linear-gradient-27" x1="343.03" y1="1015.34" x2="371.99" y2="1012.8" gradientTransform="translate(1154.04 271.88) rotate(66.69)" xlink:href="#linear-gradient-2"/><linearGradient id="linear-gradient-28" x1="342.94" y1="1014.36" x2="371.9" y2="1011.81" gradientTransform="translate(1147.91 280.95) rotate(66.69)" xlink:href="#linear-gradient-2"/><linearGradient id="linear-gradient-29" x1="342.85" y1="1013.27" x2="371.8" y2="1010.73" gradientTransform="translate(1145.82 282.35) rotate(66.69)" xlink:href="#linear-gradient-2"/><linearGradient id="linear-gradient-30" x1="343.04" y1="1015.44" x2="371.99" y2="1012.9" gradientTransform="translate(1150.01 279.55) rotate(66.68)" xlink:href="#linear-gradient-2"/><linearGradient id="linear-gradient-31" x1="343.13" y1="1016.53" x2="372.09" y2="1013.99" gradientTransform="translate(1152.15 278.18) rotate(66.69)" xlink:href="#linear-gradient-2"/><linearGradient id="linear-gradient-32" x1="343.23" y1="1017.62" x2="372.19" y2="1015.07" gradientTransform="translate(1154.25 276.78) rotate(66.69)" xlink:href="#linear-gradient-2"/><linearGradient id="linear-gradient-33" x1="343.32" y1="1018.7" x2="372.28" y2="1016.16" gradientTransform="translate(1156.36 275.39) rotate(66.69)" xlink:href="#linear-gradient-2"/><linearGradient id="linear-gradient-34" x1="343.4" y1="1019.53" x2="372.35" y2="1016.98" gradientTransform="translate(1159.65 271.21) rotate(66.69)" xlink:href="#linear-gradient-2"/><linearGradient id="linear-gradient-35" x1="343.78" y1="1023.93" x2="372.74" y2="1021.38" gradientTransform="translate(1163.13 274.97) rotate(66.69)" xlink:href="#linear-gradient-2"/><linearGradient id="linear-gradient-36" x1="343.88" y1="1025.01" x2="372.84" y2="1022.47" gradientTransform="translate(1165.25 273.59) rotate(66.69)" xlink:href="#linear-gradient-2"/><linearGradient id="linear-gradient-37" x1="343.96" y1="1025.94" x2="372.92" y2="1023.39" gradientTransform="translate(1164.52 277.08) rotate(66.69)" xlink:href="#linear-gradient-2"/><linearGradient id="linear-gradient-38" x1="344.05" y1="1027.03" x2="373.01" y2="1024.48" gradientTransform="translate(1166.64 275.7) rotate(66.69)" xlink:href="#linear-gradient-2"/><linearGradient id="linear-gradient-39" x1="344.14" y1="1027.95" x2="373.09" y2="1025.4" gradientTransform="translate(1165.91 279.19) rotate(66.69)" xlink:href="#linear-gradient-2"/><linearGradient id="linear-gradient-40" x1="344.23" y1="1029.04" x2="373.19" y2="1026.49" gradientTransform="translate(1168.01 277.78) rotate(66.68)" xlink:href="#linear-gradient-2"/><linearGradient id="linear-gradient-41" x1="344.31" y1="1029.96" x2="373.27" y2="1027.42" gradientTransform="translate(1167.29 281.29) rotate(66.69)" xlink:href="#linear-gradient-2"/><linearGradient id="linear-gradient-42" x1="344.41" y1="1031.05" x2="373.37" y2="1028.5" gradientTransform="translate(1169.39 279.89) rotate(66.68)" xlink:href="#linear-gradient-2"/><linearGradient id="linear-gradient-43" x1="344.49" y1="1031.98" x2="373.45" y2="1029.44" gradientTransform="translate(1168.69 283.41) rotate(66.69)" xlink:href="#linear-gradient-2"/><linearGradient id="linear-gradient-44" x1="344.59" y1="1033.07" x2="373.54" y2="1030.53" gradientTransform="translate(1170.81 282.04) rotate(66.69)" xlink:href="#linear-gradient-2"/><linearGradient id="linear-gradient-45" x1="344.67" y1="1034" x2="373.63" y2="1031.45" gradientTransform="translate(1170.07 285.52) rotate(66.69)" xlink:href="#linear-gradient-2"/><linearGradient id="linear-gradient-46" x1="344.76" y1="1035.08" x2="373.72" y2="1032.54" gradientTransform="translate(1172.21 284.15) rotate(66.69)" xlink:href="#linear-gradient-2"/><linearGradient id="linear-gradient-47" x1="344.84" y1="1036.01" x2="373.8" y2="1033.46" gradientTransform="translate(1171.46 287.63) rotate(66.69)" xlink:href="#linear-gradient-2"/><linearGradient id="linear-gradient-48" x1="344.94" y1="1037.1" x2="373.9" y2="1034.55" gradientTransform="translate(1173.59 286.25) rotate(66.69)" xlink:href="#linear-gradient-2"/><linearGradient id="linear-gradient-49" x1="345.02" y1="1038.02" x2="373.98" y2="1035.48" gradientTransform="translate(1172.85 289.73) rotate(66.69)" xlink:href="#linear-gradient-2"/><linearGradient id="linear-gradient-50" x1="345.12" y1="1039.11" x2="374.07" y2="1036.56" gradientTransform="translate(1174.95 288.33) rotate(66.68)" xlink:href="#linear-gradient-2"/><linearGradient id="linear-gradient-51" x1="345.2" y1="1040.04" x2="374.16" y2="1037.49" gradientTransform="translate(1174.24 291.85) rotate(66.69)" xlink:href="#linear-gradient-2"/><linearGradient id="linear-gradient-52" x1="345.29" y1="1041.13" x2="374.25" y2="1038.58" gradientTransform="translate(1176.36 290.47) rotate(66.69)" xlink:href="#linear-gradient-2"/><linearGradient id="linear-gradient-53" x1="342.54" y1="1009.75" x2="371.49" y2="1007.21" gradientTransform="translate(1140.66 283.7) rotate(66.69)" xlink:href="#linear-gradient-2"/><linearGradient id="linear-gradient-54" x1="342.86" y1="1013.42" x2="371.82" y2="1010.88" gradientTransform="translate(1142.74 288.39) rotate(66.69)" xlink:href="#linear-gradient-2"/><linearGradient id="linear-gradient-55" x1="342.76" y1="1012.34" x2="371.72" y2="1009.79" gradientTransform="translate(1140.62 289.78) rotate(66.69)" xlink:href="#linear-gradient-2"/><linearGradient id="linear-gradient-56" x1="343.04" y1="1015.44" x2="371.99" y2="1012.89" gradientTransform="translate(1144.12 290.5) rotate(66.69)" xlink:href="#linear-gradient-2"/><linearGradient id="linear-gradient-57" x1="342.94" y1="1014.35" x2="371.9" y2="1011.8" gradientTransform="translate(1142 291.88) rotate(66.68)" xlink:href="#linear-gradient-2"/><linearGradient id="linear-gradient-58" x1="343.21" y1="1017.45" x2="372.17" y2="1014.9" gradientTransform="translate(1145.51 292.61) rotate(66.69)" xlink:href="#linear-gradient-2"/><linearGradient id="linear-gradient-59" x1="343.12" y1="1016.36" x2="372.08" y2="1013.82" gradientTransform="translate(1143.39 293.98) rotate(66.68)" xlink:href="#linear-gradient-2"/><linearGradient id="linear-gradient-60" x1="343.39" y1="1019.46" x2="372.35" y2="1016.92" gradientTransform="translate(1146.9 294.71) rotate(66.69)" xlink:href="#linear-gradient-2"/><linearGradient id="linear-gradient-61" x1="343.29" y1="1018.37" x2="372.25" y2="1015.83" gradientTransform="translate(1144.8 296.12) rotate(66.69)" xlink:href="#linear-gradient-2"/><linearGradient id="linear-gradient-62" x1="343.57" y1="1021.48" x2="372.53" y2="1018.94" gradientTransform="translate(1148.29 296.83) rotate(66.69)" xlink:href="#linear-gradient-2"/><linearGradient id="linear-gradient-63" x1="343.47" y1="1020.4" x2="372.43" y2="1017.85" gradientTransform="translate(1146.17 298.21) rotate(66.68)" xlink:href="#linear-gradient-2"/><linearGradient id="linear-gradient-64" x1="343.74" y1="1023.5" x2="372.7" y2="1020.95" gradientTransform="translate(1149.68 298.94) rotate(66.69)" xlink:href="#linear-gradient-2"/><linearGradient id="linear-gradient-65" x1="343.65" y1="1022.41" x2="372.61" y2="1019.86" gradientTransform="translate(1147.56 300.33) rotate(66.69)" xlink:href="#linear-gradient-2"/><linearGradient id="linear-gradient-66" x1="343.92" y1="1025.51" x2="372.88" y2="1022.96" gradientTransform="translate(1151.06 301.05) rotate(66.69)" xlink:href="#linear-gradient-2"/><linearGradient id="linear-gradient-67" x1="343.83" y1="1024.42" x2="372.78" y2="1021.87" gradientTransform="translate(1148.94 302.42) rotate(66.68)" xlink:href="#linear-gradient-2"/><linearGradient id="linear-gradient-68" x1="344.1" y1="1027.52" x2="373.06" y2="1024.97" gradientTransform="translate(1152.45 303.15) rotate(66.69)" xlink:href="#linear-gradient-2"/><linearGradient id="linear-gradient-69" x1="344" y1="1026.43" x2="372.96" y2="1023.89" gradientTransform="translate(1150.33 304.53) rotate(66.68)" xlink:href="#linear-gradient-2"/><linearGradient id="linear-gradient-70" x1="344.28" y1="1029.54" x2="373.23" y2="1026.99" gradientTransform="translate(1153.84 305.27) rotate(66.69)" xlink:href="#linear-gradient-2"/><linearGradient id="linear-gradient-71" x1="344.18" y1="1028.45" x2="373.14" y2="1025.9" gradientTransform="translate(1151.74 306.67) rotate(66.69)" xlink:href="#linear-gradient-2"/><linearGradient id="linear-gradient-72" x1="343.24" y1="1017.72" x2="372.19" y2="1015.17" gradientTransform="translate(1150.24 284.48) rotate(66.69)" xlink:href="#linear-gradient-2"/><linearGradient id="linear-gradient-73" x1="343.14" y1="1016.63" x2="372.1" y2="1014.08" gradientTransform="translate(1148.12 285.85) rotate(66.69)" xlink:href="#linear-gradient-2"/><linearGradient id="linear-gradient-74" x1="343.33" y1="1018.8" x2="372.29" y2="1016.25" gradientTransform="translate(1152.35 283.09) rotate(66.69)" xlink:href="#linear-gradient-2"/><linearGradient id="linear-gradient-75" x1="343.43" y1="1019.89" x2="372.39" y2="1017.35" gradientTransform="translate(1154.47 281.7) rotate(66.69)" xlink:href="#linear-gradient-2"/><linearGradient id="linear-gradient-76" x1="343.52" y1="1020.98" x2="372.48" y2="1018.43" gradientTransform="translate(1156.56 280.3) rotate(66.69)" xlink:href="#linear-gradient-2"/><linearGradient id="linear-gradient-77" x1="343.62" y1="1022.06" x2="372.58" y2="1019.52" gradientTransform="translate(1158.68 278.92) rotate(66.69)" xlink:href="#linear-gradient-2"/><linearGradient id="linear-gradient-78" x1="343.53" y1="1021.07" x2="372.49" y2="1018.52" gradientTransform="translate(1152.54 287.98) rotate(66.69)" xlink:href="#linear-gradient-2"/><linearGradient id="linear-gradient-79" x1="343.44" y1="1019.98" x2="372.39" y2="1017.44" gradientTransform="translate(1150.44 289.38) rotate(66.69)" xlink:href="#linear-gradient-2"/><linearGradient id="linear-gradient-80" x1="343.63" y1="1022.15" x2="372.58" y2="1019.61" gradientTransform="translate(1154.64 286.58) rotate(66.68)" xlink:href="#linear-gradient-2"/><linearGradient id="linear-gradient-81" x1="343.72" y1="1023.24" x2="372.68" y2="1020.7" gradientTransform="translate(1156.79 285.22) rotate(66.69)" xlink:href="#linear-gradient-2"/><linearGradient id="linear-gradient-82" x1="343.82" y1="1024.33" x2="372.78" y2="1021.78" gradientTransform="translate(1158.87 283.81) rotate(66.69)" xlink:href="#linear-gradient-2"/><linearGradient id="linear-gradient-83" x1="343.91" y1="1025.42" x2="372.87" y2="1022.87" gradientTransform="translate(1160.98 282.42) rotate(66.69)" xlink:href="#linear-gradient-2"/><linearGradient id="linear-gradient-84" x1="343.83" y1="1024.43" x2="372.78" y2="1021.88" gradientTransform="translate(1154.85 291.5) rotate(66.69)" xlink:href="#linear-gradient-2"/><linearGradient id="linear-gradient-85" x1="343.73" y1="1023.34" x2="372.69" y2="1020.8" gradientTransform="translate(1152.75 292.88) rotate(66.69)" xlink:href="#linear-gradient-2"/><linearGradient id="linear-gradient-86" x1="343.92" y1="1025.51" x2="372.88" y2="1022.97" gradientTransform="translate(1156.95 290.1) rotate(66.68)" xlink:href="#linear-gradient-2"/><linearGradient id="linear-gradient-87" x1="344.02" y1="1026.6" x2="372.98" y2="1024.06" gradientTransform="translate(1159.09 288.73) rotate(66.69)" xlink:href="#linear-gradient-2"/><linearGradient id="linear-gradient-88" x1="344.11" y1="1027.69" x2="373.07" y2="1025.14" gradientTransform="translate(1161.19 287.33) rotate(66.69)" xlink:href="#linear-gradient-2"/><linearGradient id="linear-gradient-89" x1="344.21" y1="1028.77" x2="373.17" y2="1026.23" gradientTransform="translate(1163.3 285.94) rotate(66.69)" xlink:href="#linear-gradient-2"/><linearGradient id="linear-gradient-90" x1="344.12" y1="1027.79" x2="373.08" y2="1025.24" gradientTransform="translate(1157.17 295.02) rotate(66.69)" xlink:href="#linear-gradient-2"/><linearGradient id="linear-gradient-91" x1="344.03" y1="1026.7" x2="372.98" y2="1024.16" gradientTransform="translate(1155.06 296.4) rotate(66.69)" xlink:href="#linear-gradient-2"/><linearGradient id="linear-gradient-92" x1="344.22" y1="1028.87" x2="373.17" y2="1026.33" gradientTransform="translate(1159.28 293.63) rotate(66.69)" xlink:href="#linear-gradient-2"/><linearGradient id="linear-gradient-93" x1="344.31" y1="1029.96" x2="373.27" y2="1027.42" gradientTransform="translate(1161.4 292.24) rotate(66.69)" xlink:href="#linear-gradient-2"/><linearGradient id="linear-gradient-94" x1="344.41" y1="1031.05" x2="373.37" y2="1028.5" gradientTransform="translate(1163.51 290.85) rotate(66.69)" xlink:href="#linear-gradient-2"/><linearGradient id="linear-gradient-95" x1="344.5" y1="1032.13" x2="373.46" y2="1029.59" gradientTransform="translate(1165.61 289.46) rotate(66.69)" xlink:href="#linear-gradient-2"/><linearGradient id="linear-gradient-96" x1="854.44" y1="1149.04" x2="898.84" y2="1117.36" gradientTransform="translate(452.2 -298.92) rotate(27.42)" xlink:href="#linear-gradient-2"/><linearGradient id="linear-gradient-97" x1="844.91" y1="1135.68" x2="889.32" y2="1104" gradientTransform="translate(452.2 -298.92) rotate(27.42)" xlink:href="#linear-gradient-2"/><linearGradient id="linear-gradient-98" x1="851.42" y1="1144.81" x2="895.83" y2="1113.13" gradientTransform="translate(452.2 -298.92) rotate(27.42)" xlink:href="#linear-gradient-2"/><linearGradient id="linear-gradient-99" x1="851.34" y1="1144.7" x2="895.75" y2="1113.02" gradientTransform="translate(452.2 -298.92) rotate(27.42)" xlink:href="#linear-gradient-2"/><linearGradient id="linear-gradient-100" x1="350.25" y1="966.22" x2="386.3" y2="966.22" gradientTransform="matrix(0.93, 0.36, -0.36, 0.93, 245.13, -72.64)" xlink:href="#linear-gradient-2"/><linearGradient id="linear-gradient-101" x1="363.77" y1="954.76" x2="365.4" y2="954.76" gradientTransform="translate(1196.73 584.77) rotate(90)" xlink:href="#linear-gradient-2"/><linearGradient id="linear-gradient-102" x1="366.22" y1="954.76" x2="367.86" y2="954.76" gradientTransform="translate(1199.02 583.2) rotate(90)" xlink:href="#linear-gradient-2"/><linearGradient id="linear-gradient-103" x1="363.77" y1="958.85" x2="365.4" y2="958.85" gradientTransform="translate(1199.35 588.59) rotate(90)" xlink:href="#linear-gradient-2"/><linearGradient id="linear-gradient-104" x1="366.22" y1="958.85" x2="367.86" y2="958.85" gradientTransform="translate(1201.64 587.01) rotate(90)" xlink:href="#linear-gradient-2"/><linearGradient id="linear-gradient-105" x1="363.77" y1="962.95" x2="365.4" y2="962.95" gradientTransform="translate(1201.98 592.42) rotate(90)" xlink:href="#linear-gradient-2"/><linearGradient id="linear-gradient-106" x1="366.22" y1="962.95" x2="367.86" y2="962.95" gradientTransform="translate(1204.27 590.84) rotate(90)" xlink:href="#linear-gradient-2"/><linearGradient id="linear-gradient-107" x1="363.77" y1="967.04" x2="365.4" y2="967.04" gradientTransform="translate(1204.6 596.23) rotate(90)" xlink:href="#linear-gradient-2"/><linearGradient id="linear-gradient-108" x1="357.22" y1="962.95" x2="358.86" y2="962.95" gradientTransform="translate(1195.87 596.61) rotate(90)" xlink:href="#linear-gradient-2"/><linearGradient id="linear-gradient-109" x1="357.22" y1="967.04" x2="358.86" y2="967.04" gradientTransform="translate(1198.49 600.42) rotate(90)" xlink:href="#linear-gradient-2"/><linearGradient id="linear-gradient-110" x1="357.22" y1="971.14" x2="358.86" y2="971.14" gradientTransform="translate(1201.11 604.25) rotate(90)" xlink:href="#linear-gradient-2"/><linearGradient id="linear-gradient-111" x1="357.22" y1="975.24" x2="358.86" y2="975.24" gradientTransform="translate(1203.74 608.07) rotate(90)" xlink:href="#linear-gradient-2"/><linearGradient id="linear-gradient-112" x1="366.22" y1="967.04" x2="367.86" y2="967.04" gradientTransform="translate(1206.89 594.66) rotate(90)" xlink:href="#linear-gradient-2"/><linearGradient id="linear-gradient-113" x1="372.78" y1="960.9" x2="374.41" y2="960.9" gradientTransform="translate(1209.07 584.73) rotate(90)" xlink:href="#linear-gradient-2"/><linearGradient id="linear-gradient-114" x1="375.23" y1="960.9" x2="376.87" y2="960.9" gradientTransform="translate(1211.36 583.16) rotate(90)" xlink:href="#linear-gradient-2"/><linearGradient id="linear-gradient-115" x1="377.69" y1="960.9" x2="379.32" y2="960.9" gradientTransform="translate(1213.65 581.59) rotate(90)" xlink:href="#linear-gradient-2"/><linearGradient id="linear-gradient-116" x1="372.78" y1="964.18" x2="374.41" y2="964.18" gradientTransform="translate(1211.17 587.79) rotate(90)" xlink:href="#linear-gradient-2"/><linearGradient id="linear-gradient-117" x1="375.23" y1="964.18" x2="376.87" y2="964.18" gradientTransform="translate(1213.46 586.22) rotate(90)" xlink:href="#linear-gradient-2"/><linearGradient id="linear-gradient-118" x1="377.69" y1="964.18" x2="379.32" y2="964.18" gradientTransform="translate(1215.75 584.65) rotate(90)" xlink:href="#linear-gradient-2"/><linearGradient id="linear-gradient-119" x1="372.78" y1="967.45" x2="374.41" y2="967.45" gradientTransform="translate(1213.27 590.84) rotate(90)" xlink:href="#linear-gradient-2"/><linearGradient id="linear-gradient-120" x1="375.23" y1="967.45" x2="376.87" y2="967.45" gradientTransform="translate(1215.56 589.27) rotate(90)" xlink:href="#linear-gradient-2"/><linearGradient id="linear-gradient-121" x1="377.69" y1="967.45" x2="379.32" y2="967.45" gradientTransform="translate(1217.85 587.7) rotate(90)" xlink:href="#linear-gradient-2"/><linearGradient id="linear-gradient-122" x1="372.78" y1="970.73" x2="374.41" y2="970.73" gradientTransform="translate(1215.37 593.9) rotate(90)" xlink:href="#linear-gradient-2"/><linearGradient id="linear-gradient-123" x1="375.23" y1="970.73" x2="376.87" y2="970.73" gradientTransform="translate(1217.66 592.33) rotate(90)" xlink:href="#linear-gradient-2"/><linearGradient id="linear-gradient-124" x1="372.78" y1="974.01" x2="374.41" y2="974.01" gradientTransform="translate(1217.47 596.96) rotate(90)" xlink:href="#linear-gradient-2"/><linearGradient id="linear-gradient-125" x1="363.77" y1="971.14" x2="365.4" y2="971.14" gradientTransform="translate(1207.22 600.06) rotate(90)" xlink:href="#linear-gradient-2"/><linearGradient id="linear-gradient-126" x1="367.04" y1="979.33" x2="375.23" y2="979.33" gradientTransform="translate(1218.58 603.5) rotate(90)" xlink:href="#linear-gradient-2"/><linearGradient id="linear-gradient-127" x1="367.04" y1="981.78" x2="375.23" y2="981.78" gradientTransform="translate(1220.15 605.79) rotate(90)" xlink:href="#linear-gradient-2"/><linearGradient id="linear-gradient-128" x1="278.63" y1="844.8" x2="321.14" y2="806.34" gradientTransform="translate(198.89 -21.37) rotate(23.35)" xlink:href="#linear-gradient-2"/><linearGradient id="linear-gradient-129" x1="269.93" y1="835.17" x2="312.43" y2="796.71" gradientTransform="translate(198.89 -21.37) rotate(23.35)" xlink:href="#linear-gradient-2"/><linearGradient id="linear-gradient-130" x1="277.9" y1="843.99" x2="320.41" y2="805.53" gradientTransform="translate(198.89 -21.37) rotate(23.35)" xlink:href="#linear-gradient-2"/><linearGradient id="linear-gradient-131" x1="263.55" y1="828.13" x2="306.06" y2="789.67" gradientTransform="translate(198.89 -21.37) rotate(23.35)" xlink:href="#linear-gradient-2"/><linearGradient id="linear-gradient-132" x1="264.67" y1="829.37" x2="307.18" y2="790.91" gradientTransform="translate(198.89 -21.37) rotate(23.35)" xlink:href="#linear-gradient-2"/><linearGradient id="linear-gradient-133" x1="275.86" y1="841.73" x2="318.37" y2="803.28" gradientTransform="translate(198.89 -21.37) rotate(23.35)" xlink:href="#linear-gradient-2"/><linearGradient id="linear-gradient-134" x1="276.46" y1="842.39" x2="318.96" y2="803.93" gradientTransform="translate(198.89 -21.37) rotate(23.35)" xlink:href="#linear-gradient-2"/><linearGradient id="linear-gradient-135" x1="277.19" y1="843.2" x2="319.69" y2="804.74" gradientTransform="translate(198.89 -21.37) rotate(23.35)" xlink:href="#linear-gradient-2"/><linearGradient id="linear-gradient-136" x1="612.47" y1="1047.4" x2="659.93" y2="1003.41" gradientTransform="translate(314.96 -209.98) rotate(25.01)" xlink:href="#linear-gradient-2"/><linearGradient id="linear-gradient-137" x1="617.02" y1="1052.31" x2="664.48" y2="1008.32" gradientTransform="translate(314.96 -209.98) rotate(25.01)" xlink:href="#linear-gradient-2"/><linearGradient id="linear-gradient-138" x1="621.35" y1="1056.98" x2="668.81" y2="1012.99" gradientTransform="translate(314.96 -209.98) rotate(25.01)" xlink:href="#linear-gradient-2"/><linearGradient id="linear-gradient-139" x1="625.58" y1="1061.55" x2="673.05" y2="1017.56" gradientTransform="translate(314.96 -209.98) rotate(25.01)" xlink:href="#linear-gradient-2"/><linearGradient id="linear-gradient-140" x1="621.25" y1="1056.88" x2="668.72" y2="1012.89" gradientTransform="translate(314.96 -209.98) rotate(25.01)" xlink:href="#linear-gradient-2"/><linearGradient id="linear-gradient-141" x1="606.91" y1="1041.4" x2="654.38" y2="997.41" gradientTransform="translate(314.96 -209.98) rotate(25.01)" xlink:href="#linear-gradient-2"/><linearGradient id="linear-gradient-142" x1="605.87" y1="1040.28" x2="653.34" y2="996.3" gradientTransform="translate(314.96 -209.98) rotate(25.01)" xlink:href="#linear-gradient-2"/><linearGradient id="linear-gradient-143" x1="608.54" y1="1043.16" x2="656.01" y2="999.17" gradientTransform="translate(314.96 -209.98) rotate(25.01)" xlink:href="#linear-gradient-2"/><linearGradient id="linear-gradient-144" x1="609.57" y1="1044.27" x2="657.04" y2="1000.29" gradientTransform="translate(314.96 -209.98) rotate(25.01)" xlink:href="#linear-gradient-2"/><linearGradient id="linear-gradient-145" x1="615.55" y1="1050.72" x2="663.02" y2="1006.74" gradientTransform="translate(314.96 -209.98) rotate(25.01)" xlink:href="#linear-gradient-2"/><linearGradient id="linear-gradient-146" x1="612.74" y1="1047.7" x2="660.21" y2="1003.71" gradientTransform="translate(314.96 -209.98) rotate(25.01)" xlink:href="#linear-gradient-2"/><linearGradient id="linear-gradient-147" x1="608.66" y1="1043.29" x2="656.12" y2="999.3" gradientTransform="translate(314.96 -209.98) rotate(25.01)" xlink:href="#linear-gradient-2"/><linearGradient id="linear-gradient-148" x1="615.88" y1="1051.08" x2="663.35" y2="1007.1" gradientTransform="translate(314.96 -209.98) rotate(25.01)" xlink:href="#linear-gradient-2"/><linearGradient id="linear-gradient-149" x1="612.77" y1="1047.73" x2="660.24" y2="1003.74" gradientTransform="translate(314.96 -209.98) rotate(25.01)" xlink:href="#linear-gradient-2"/><linearGradient id="linear-gradient-150" x1="610.18" y1="1044.93" x2="657.65" y2="1000.94" gradientTransform="translate(314.96 -209.98) rotate(25.01)" xlink:href="#linear-gradient-2"/><linearGradient id="linear-gradient-151" x1="612.23" y1="1047.14" x2="659.69" y2="1003.15" gradientTransform="translate(314.96 -209.98) rotate(25.01)" xlink:href="#linear-gradient-2"/><linearGradient id="linear-gradient-152" x1="608.75" y1="1043.38" x2="656.21" y2="999.4" gradientTransform="translate(314.96 -209.98) rotate(25.01)" xlink:href="#linear-gradient-2"/><linearGradient id="linear-gradient-153" x1="606.16" y1="1040.59" x2="653.62" y2="996.6" gradientTransform="translate(314.96 -209.98) rotate(25.01)" xlink:href="#linear-gradient-2"/><linearGradient id="linear-gradient-154" x1="602.14" y1="1036.26" x2="649.61" y2="992.27" gradientTransform="translate(314.96 -209.98) rotate(25.01)" xlink:href="#linear-gradient-2"/><linearGradient id="linear-gradient-155" x1="89.15" y1="984.99" x2="140.76" y2="948.98" gradientTransform="matrix(0.99, 0.1, -0.1, 0.99, 67.55, -3.89)" xlink:href="#linear-gradient-2"/><linearGradient id="linear-gradient-156" x1="88.22" y1="983.67" x2="139.83" y2="947.65" gradientTransform="matrix(0.99, 0.1, -0.1, 0.99, 67.55, -3.89)" xlink:href="#linear-gradient-2"/><linearGradient id="linear-gradient-157" x1="95.27" y1="993.76" x2="146.88" y2="957.75" gradientTransform="matrix(0.99, 0.1, -0.1, 0.99, 67.55, -3.89)" xlink:href="#linear-gradient-2"/><linearGradient id="linear-gradient-158" x1="89.3" y1="985.2" x2="140.9" y2="949.19" gradientTransform="matrix(0.99, 0.1, -0.1, 0.99, 67.55, -3.89)" xlink:href="#linear-gradient-2"/><linearGradient id="linear-gradient-159" x1="95.11" y1="993.54" x2="146.72" y2="957.52" gradientTransform="matrix(0.99, 0.1, -0.1, 0.99, 67.55, -3.89)" xlink:href="#linear-gradient-2"/><linearGradient id="linear-gradient-160" x1="91.26" y1="988.01" x2="142.86" y2="951.99" gradientTransform="matrix(0.99, 0.1, -0.1, 0.99, 67.55, -3.89)" xlink:href="#linear-gradient-2"/><linearGradient id="linear-gradient-161" x1="93.25" y1="990.87" x2="144.86" y2="954.85" gradientTransform="matrix(0.99, 0.1, -0.1, 0.99, 67.55, -3.89)" xlink:href="#linear-gradient-2"/><linearGradient id="linear-gradient-162" x1="94.47" y1="992.61" x2="146.07" y2="956.59" gradientTransform="matrix(0.99, 0.1, -0.1, 0.99, 67.55, -3.89)" xlink:href="#linear-gradient-2"/><linearGradient id="linear-gradient-163" x1="99.1" y1="999.24" x2="150.7" y2="963.22" gradientTransform="matrix(0.99, 0.1, -0.1, 0.99, 67.55, -3.89)" xlink:href="#linear-gradient-2"/><linearGradient id="linear-gradient-164" x1="103.37" y1="1005.36" x2="154.97" y2="969.34" gradientTransform="matrix(0.99, 0.1, -0.1, 0.99, 67.55, -3.89)" xlink:href="#linear-gradient-2"/></defs><title>map-tablet</title><rect class="cls-1" x="2.13" width="750" height="796.5"/><polygon class="cls-2" points="752.13 497.53 719.77 587.74 715.54 599.53 646.49 792 660.01 792 727.22 604.66 731.45 592.87 752.13 535.22 752.13 497.53"/><polygon class="cls-2" points="703.93 113.13 558.07 519.7 553.25 517.98 698.5 113.13 703.93 113.13"/><rect class="cls-2" x="685.66" y="1019.38" width="3.57" height="92.97" transform="translate(401.92 -707.53) rotate(19.74)"/><polygon class="cls-2" points="184.99 113.13 109.52 323.51 114.33 325.23 190.42 113.13 184.99 113.13"/><polygon class="cls-2" points="752.13 615.62 727.22 604.66 715.54 599.53 347.4 437.64 344.09 436.18 328.03 429.12 325.27 427.91 314.89 423.34 311.87 422.01 266.65 402.13 263.82 400.88 243.54 391.96 240.98 390.84 230.45 386.21 227.49 384.9 155.11 353.07 150.93 351.24 2.13 285.8 2.13 272.16 110.79 319.94 115.49 322.01 154.23 339.04 156.8 340.17 156.94 340.24 159.03 341.15 169.46 345.74 171.38 346.58 200.01 359.18 200.02 359.18 202.5 360.27 226.06 370.63 228.54 371.72 303.62 404.74 307.12 406.27 344.34 422.64 344.35 422.64 347.39 423.98 554.33 514.98 559.02 517.05 673.07 567.2 676.34 568.64 719.77 587.74 731.45 592.87 752.13 601.97 752.13 615.62"/><path class="cls-3" d="M.5,1103.5a42.7,42.7,0,0,1,10,12c9.06,17.38-4.82,35.86-10,53-2.09,6.88-2.78,13.54,0,19.82,0,.1.08.21.13.31,6.25,13.53,26,19.14,39.14,19.19,29.77.1,35.5-28.24,72.73-35.41,23.92-4.6,43.67,2.84,49.43,5.1,7.58,3,29.72,11.13,41.26,32.36,11.13,20.45,1.78,33.76,14.61,50.05,12.09,15.37,32.07,18.36,42,19.84,10.19,1.52,40.28,4.08,62.12-14.42,24.26-20.52,13.77-46.19,38.51-60.89,8.28-4.92,7.73-1,39.35-10.15,28.27-8.16,30-11.65,42.23-12.1,22.55-.84,46.58,9.91,46.69,19.46.08,6.58-11.21,7.65-23.08,19.09-19.05,18.37-20.66,45.21-21.17,53.66-1.34,22.39,7.18,29.12,18,55.63h45.44A120.08,120.08,0,0,1,497,1302.36a118.6,118.6,0,0,1-2.54-12.87c-8.3-5.76-11.27-11.6-12.49-15.68-5.79-19.38,17.93-32.31,21-66.09.75-8.14,1.6-17.51-3.28-27.38-10-20.13-36.34-27.35-54.68-27.39-5.45,0-12.24.61-42.19,12.44-39,15.42-58.55,23.12-67.15,32.51-20.32,22.17-10.39,40-31,55.34-9.2,6.85-23.2,12.24-36.29,11.75-1.3,0-2.58-.16-3.86-.33-.68-.09-1.37-.2-2.05-.32s-1.41-.29-2.11-.47l-.22-.06-.47-.13-.93-.27a30.58,30.58,0,0,1-4-1.52c-.25-.12-.5-.23-.74-.36l-.65-.32,0,0-.48-.26c-.52-.28-1-.58-1.51-.89a1,1,0,0,1-.13-.09l-.18-.12a23.78,23.78,0,0,1-2-1.4.27.27,0,0,1-.08-.07l-.37-.29-.08-.07-.68-.59c-.2-.18-.4-.36-.59-.55s-.58-.56-.85-.85l-.09-.09-.66-.74-.1-.12c-.1-.11-.19-.22-.28-.34a.13.13,0,0,1-.06-.07c-.19-.23-.38-.46-.56-.7s-.17-.23-.25-.34c-10.76-14.56-6.54-39.44-29.9-64-14.65-15.42-31.67-21.79-41.57-25.48-10.71-4-35.49-12.91-64.65-6.39-11.51,2.57-27.83,6.21-42.53,19-9.32,8.08-15.8,18-27.44,18.39-1.86.06-9.29.35-14.18-4.19-14.3-13.26,15.07-47.06.39-78.3-5.28-11.26-15-19.37-19.11-22.85C3.63,1088.25,2,1087,.5,1086Z" transform="translate(1.63 -538)"/><path class="cls-2" d="M329.18,1012.41q8.16-19,16.59-36.77,2.19-4.62,4.38-9.14l-3.52-1.76-4.17,9.44q-7.92,17.93-15.86,35.86c-5.53-.93-6.87-.72-7-.3s1.62,1.63,2.82,2.15a8.77,8.77,0,0,0,3.13.7q-7,18.95-15.44,38.93-6.08,14.37-12.31,27.86l-6.12-2.14-1.83,1.44-2.23-1.16c.61-1.28,1.21-2.58,1.82-3.86a49.06,49.06,0,0,1,.44-9.12,96.1,96.1,0,0,0,1.51-11.17c.06-1.11.08-1.92.09-2,.1-3.72,9-26.26,34.93-84.23q1.86-4.18,3.85-8.62l-2.95-1.09-3.66,8.5-30.4,70.66q-2,7-4,13.89l-3.57.88a6.95,6.95,0,0,0-3.26,5.48c-1.7,5.4-3.42,10.8-5.12,16.21l-9.39-4.54q22.71-53.57,45.4-107.15c1.18-2.77,2.35-5.53,3.52-8.3l-3.24-.86-3.3,7.83q-5.81,13.75-11.59,27.52l-12.34-1.72c.24,1.1.49,2.2.74,3.31,3.58.34,7.16.69,10.76,1q-1.63,4-3.26,7.9L272.73,989c1.33-3.41,1.33-4.33,1-4.49-.63-.32-2.28,3-4.79,3-2.22,0-3.38-2.63-4.63-2.19-.55.19-1.06,1-1.18,3.12l30.47,12.75q-23.92,56.22-47.9,112.45l-46.23-18.83c2.25-5.08,5.24-11.91,8.75-20l2.56-5.93c6.61-15.46,16.83-40.39,18.24-43.81l28,10.08c.13-.75.26-1.49.38-2.24L230.52,1022c.57-1.33,1.13-2.67,1.71-4q13.5,5.55,27,11.08c.23-.92.47-1.83.72-2.76l-27-10.66q6.68-15.81,13.34-31.64c.11-.24.21-.49.32-.74l1.27-3,1.29-3.06q1.89-4.46,3.76-8.91l2.78,1,.78.3,5,1.89c.17-.7.34-1.4.52-2.1-1.53-.74-3.06-1.48-4.59-2.2l-.75-.36L254,965.49c1.07-2.46,2.13-4.91,3.19-7.37.13-.28.25-.57.37-.85q3.74-8.57,7.44-17.14c.94-2.15,1.87-4.31,2.8-6.46-1-.31-2.06-.64-3.09-1l-2.54,6.18q-3.54,8.58-7.06,17.16c-.11.26-.21.52-.32.77-.32.79-.65,1.58-1,2.37s-.62,1.53-.94,2.29c-.1.25-.2.5-.31.75l-.93,2.27c-.1.26-.21.51-.31.76-.31.76-.62,1.52-.94,2.27q-2.25,5.51-4.52,11c-.1.26-.21.51-.31.76l-1.25,3c-.1.25-.2.5-.31.75l-35,85.07-6,10.61-5.51,14.55L186.83,1090c-2.31-1.34-4.63-2.68-6.93-4l-5.4-1.59,18.27-41.89,15.06,3.47c.09-.81.18-1.6.26-2.41l-13.86-4.15,9-18.54q1.92-2.83,3.83-5.69c.89-2.65,1.8-5.3,2.69-8L223.15,975c.1-.26.21-.51.31-.76l1.26-3c.11-.26.21-.51.32-.76q4.4-10.58,8.8-21.14c.11-.27.23-.54.34-.8q3.87-9.3,7.73-18.58l2.1-5-2.51-1.18-2.15,5.09-1.25,2.94c-.4,1.62-.82,3.24-1.22,4.86q-2.38,5.16-4.76,10.31c-.39.83-.77,1.66-1.15,2.49-1.15,2.48-2.3,5-3.44,7.45q-2.19,6.3-4.61,12.77c-.1.25-.19.51-.29.77-.38,1-.77,2-1.17,3.05-.09.25-.18.51-.29.77-5.27,13.69-11.37,27.86-18.46,42.36q-4.62,9.46-9.4,18.36l-5.16-2.51-1,2.46L192,1037q-10,23.22-20,46.43c-2.92-.86-5.85-1.71-8.77-2.58l1.62-22.2c-1.2-1.43-2.39-2.83-3.57-4.25,5.34-10.19,10.66-21,15.83-32.43,7.86-17.39,14.44-34.07,20-49.82l7.8,1.16,3.48-1.28q10.26-23.91,20.5-47.82l2.19-5.1-3.07-1.23c-.7,1.67-1.39,3.35-2.08,5q-9.78,23.52-19.53,47.05l-9.67-.8c-7.31,19.19-15.81,39.19-25.65,59.78q-5.83,12.16-11.8,23.65l-18.27-19.92L130.18,1028q-10.41-15.42-20.83-30.81.24-3.36.46-6.7,5.5-10.05,11-20.1,2-6.4,3.92-12.82c7.57-17.69,14.11-33,18.93-44.19s7.93-18.44,8.59-20a9.24,9.24,0,0,1,1.24-2.3,3.82,3.82,0,0,1,1.68-1.29c1.07-.42,1.93-.15,2.88-.81a3.83,3.83,0,0,0,1.41-2.58c-2.64-3.94-6.42-5.6-8.7-4.59-1.23.56-2.63,2.16-2.49,3.67.1,1.08.92,1.39,1.11,2.53a2.88,2.88,0,0,1-.07,1.24,6.09,6.09,0,0,1-1.44,2.39L134.78,921.9q-7,17.1-14.08,34.21-1.53,5.58-3,11.15L106.55,986a64,64,0,0,0-8-7.55c-.7-.54-1.42-1.09-2.18-1.63-.44-.32-.89-.64-1.35-1-1.36-.92-2.7-1.76-4-2.5s-2.35-1.31-3.47-1.86c-.41-.21-.82-.41-1.21-.59l-.49-.23a20.41,20.41,0,0,1-4.6-1.25c-.41-.17-.81-.34-1.19-.53-5.28-2.56-7.57-6.6-8.85-5.92-.78.42-.61,2.3-.11,3.49a4.64,4.64,0,0,0,1.17,1.62,6.82,6.82,0,0,0,4.61,1.62l1.05.87,2.26,1.87a18.86,18.86,0,0,1,9.19,2.25A18.88,18.88,0,0,1,92.71,977,19.58,19.58,0,0,1,95,979.27l.24.22L97,981c2.81,2.53,5.61,5.05,8.43,7.57-.07,2.34-.14,4.66-.21,7,.08.11.15.23.23.33l-38.13,45,2.65,1.77,37.38-44.09q4.23,6,8.46,12,4,5.65,7.93,11.27l-17.37,13.7c.24.89.49,1.77.73,2.67l18.22-13.71,3.86,5.4,10,5.45,10.58,10.17-24.25,16.18c.61.71,1.21,1.43,1.81,2.15q12.11-7.92,24.21-15.83l10.18,11.12,0,19.94q-29.75,21-59.48,42c-.21-.33-.44-.66-.65-1-1.54-2.37-3.09-4.72-4.65-7.07a2.9,2.9,0,0,0-.19-.29c-2.49.36-3.32,1.46-3.54,1.81-1.43,2.2.12,6.54,4.76,9.88l5.21.77L162.27,1083l9.24,3-3.32,9.91,4.35.95c.84-2.61,1.69-5.22,2.53-7.83,3.54,1.19,7.12,2.44,10.72,3.71q11,3.93,21.4,8l-11.91,32.93c-.29.83-.6,1.65-.9,2.49,1.67.67,3.39,1.69,3.81,3.33.93,3.59-5.2,7.17-4.12,9.57.36.79,1.53,1.51,4.84,1.54,4.82-7.25,4.69-10.48,3.56-12.06-1.28-1.79-3.95-1.65-4.71-3.59s1.22-4.69,3-6.55q4.41-13,8.82-26.08L245,1115.9c-.77,2.31-1.54,4.61-2.32,6.92l2.51.07q.91-2.54,1.81-5.08l2.86.68c.58-.91,1.17-1.81,1.76-2.71-.78-.25-1.58-.48-2.36-.72l17.67-44.1c-.53,3.09-1.06,6.19-1.58,9.28a4.31,4.31,0,0,0-.6,2.9c.35,2,2.41,3.7,5.13,4a6.6,6.6,0,0,0,5.49,2,6.2,6.2,0,0,0,5.09-4.5c1-1.61,2-3.21,3-4.81l4.59,1.23c-.09,2.91-.37,4.19-.65,4.75,0,.06-.16.29-.06.44s1.18,0,2.06-.26a4.19,4.19,0,0,1,6.09-4.81l3.28,1.17,12.51-27.61,14,5.24q2-4.12,4-8.24l-14.57-5.57q1.14-2.12,2.29-4.23Q322.74,1027.42,329.18,1012.41Zm-58.11,72-4.11-1.14q1.25-5.28,2.48-10.55c2,1,4.07,2,6.11,3.06l-4.46,8.57Zm7.95-1.78c-2.16,3.86-3.36,4.51-4.06,4.37a11.28,11.28,0,0,1-1.83-1.27l.07-.15c.26-.51,4.05-7.84,4.33-8.36a3,3,0,0,1,2.42.17C280.91,1078.17,280.84,1080.45,279,1082.61Zm35.87-33.83,11.5,4.29-2.65,4.28-11.5-4.28,1.77-4.29Z" transform="translate(1.63 -538)"/><path class="cls-2" d="M437.56,929.4l-4.26-4.89,21.33-47.68-2.3-2.67q-8.44,18.86-16.9,37.69l-5.4-2.13-2.21.77,6.32,4.23-7.28,14.78-2.56-.59a5,5,0,0,0,.36-2.86,5.14,5.14,0,0,0-.69-1.8l-5.29-4.1,1.5-5.61,4.56,2.56.9-1.87L421.7,912q10-22.86,20-45.73l.87-3.72-2-1.3c-.56,1.29-1.11,2.59-1.67,3.88l-11.31-5.52,2.42-6.56-1.94-.37q-1.8,2.8-3.61,5.61l-11.37-5,3.62-5.61-3.05-.92c-.95,1.91-1.89,3.81-2.84,5.71L399,846.7c.87-1.69,1.75-3.38,2.62-5.08l-3.13-1.31L396,845.53l-26.64-11.42,4.36-9.47,2.73-.71-1.48-1.9-2.61.85-5.81,9.42L356.1,828q2.11-5.15,4.21-10.28l-2-1q-3.48,7.14-6.95,14.28l-40.53-18.45,5.57-12.75-2.9-1-5.77,12.19-56.58-25,2.25-5.25-2.61-1.26q-1.58,2.51-3.14,5l-9.51-4.1-2.37,2.07,11.85,5.33L242.91,797l-16.63-7.25L224,791.3l18.31,8.52-5.85,9.68L214.5,798.41l-2.45,1.67,23.61,11.43-13.27,29-3.54,8.13-6.11-2.75-5.19-.66-6.7-4.41-7.22,1.85-20.55-9.59a1.78,1.78,0,0,0-1.39-1.49,1.82,1.82,0,0,0-2,1.32c.44.68.89,1.35,1.33,2-.41.66-.8,1.35-1.19,2.09a38.55,38.55,0,0,0-3.13,8l-7.05-3.66-2,1.33,6.57,3.34,1.33,2Q159.06,862.58,152.6,877l-1.46,3.27,42.49,20.44c.23-.61.46-1.23.7-1.84l-2.6-1.17-23.3-10.46,1.32-2.7L174,876,172,875.6l-4.19,8.14-1.41,2.75-10.62-4.64a14.58,14.58,0,0,1,1.6-2.7l.38-.48c3.12-3.77,6.45-3.77,8-6.64.56-1.06,1-2.83.2-5.77l-2,.14a6.07,6.07,0,0,1-1.2,5.7l-7.44,6.14-.27.22c0-.1.09-.19.13-.29q6.45-14.26,12.88-28.53a22,22,0,0,0,6.6,5.19c4.1,2.07,7.09,1.83,10.48,2.64s8.16,3,13.13,8.79c-.6,1.64-1.2,3.27-1.81,4.91l-7.19-.51c-.12.64-.25,1.29-.37,1.93l11.45,1.19,4.1-1.07,4,1.83q-5,11.31-10,22.64h0c-.34.78-.69,1.55-1,2.33l-1.53,1.65.86.39,28.07,12.77c.38-.52.75-1,1.12-1.57l1-3,1.48-4.3,5.85-4.54.93-4.23a36.1,36.1,0,0,0,26.54,7.05,47.64,47.64,0,0,0,16,7.71,46.75,46.75,0,0,0,6.31,1.19l.81-2.27a52.79,52.79,0,0,1-6-1.42,54.83,54.83,0,0,1-15.78-7.67c-9.34,1.43-14.39-.06-17.31-1.8-2.49-1.49-4.42-3.76-8.4-4.49a8.26,8.26,0,0,1-4.39-1.74,7,7,0,0,1-2-3.16l-2.82-2.73q-1-8.7-2-17.4c-1-1.09-2-2.19-3-3.28l-1.57,1c.67,1.27,1.34,2.54,2,3.81L225,888.11a7.35,7.35,0,0,1,3.5,3.61,6.68,6.68,0,0,1,.51,2.18l-3.57,10.49-11.82-3.47c-.15.81-.3,1.63-.44,2.45L225,907.1l-.58,1.53-1.2,3.13-23.74-10.4,1.38-3.09q6.58-14.84,13-30.56,5.18-12.68,9.89-25l3.17,2,99.32,42.65q-1.5,3-3,6.08a13,13,0,0,0-4.88-4.18,12.77,12.77,0,0,0-6.16-1.3c-.58.54-1.24,1.32-1,2,.33,1.13,2.86.94,5.32,1.73a12.93,12.93,0,0,1,6.37,4.9L302,942.74,300.54,946l3.65,1.38,1.3-3.06q11.76-27.76,23.53-55.52l40.18,18q-4.68,10.69-10,21.81-8.12,16.88-16.47,32.06h0c-.55,1-1.12,2.07-1.69,3.09l2.77,2.07,2-3.82,16.38-31.71,55.3,23.62-4.56,11,2.64,1q2.26-5.83,4.52-11.69l4.48,2.15c.35-.75.71-1.49,1.07-2.24l-4.4-1.74q4.19-9.57,8.36-19.12l12.34,5c.13-.81.26-1.63.4-2.45l-4.14-1.71C438,932.53,437.76,931,437.56,929.4ZM209.05,871.71a16.77,16.77,0,0,0-5.91-1.27,15.9,15.9,0,0,0-3.33.24,7.45,7.45,0,0,0,1.25-5.65c-.51-1.92-2-3.17-5.68-5.2a76.42,76.42,0,0,0-11.85-5.33l1.79-1.62L184,851.13l-3,2.52a21.87,21.87,0,0,1-5.47-1.61,22.15,22.15,0,0,1-6.55-4.52l4.34-11.33L193,844.81l4.14,6.4,2.57-1.52-4.19-5.41,5-1.08L207.3,848a13.74,13.74,0,0,1,4.22,0,14.47,14.47,0,0,1,6.86,3.11Zm217.19-8.46L437.42,868q-6,13.66-11.9,27.33l-5.67-2.47c-.35.89-.69,1.79-1,2.68l5.08,2.93q-4,9.69-8.08,19.37l-11.57-4.45Q415.24,888.32,426.24,863.25Zm-14.71-6.08,12.37,5.09-23,50-11.43-5.49Zm-13.77-6.49,11.07,4.22L384.44,910l-10.24-5.16Q386,877.76,397.76,850.68Zm-70.62,34.14L281.6,865.34l5.16-10.56-2.61-1.25-5.08,11c-14-5.44-28.4-11.66-43.12-18.78-3.75-1.81-7.43-3.65-11-5.49,3.83-9.27,7.47-16.49,10.1-21.41,3.16-5.89,5.94-10.45,9.88-18.66,2.23-4.66,3.91-8.55,5-11.11l48.72,21.47a33.83,33.83,0,0,1-5.17,14.78l1.86.89a24.07,24.07,0,0,0,5.58-14.85l49.06,21.9q-5.26,11.81-10.51,23.6a5,5,0,0,1-2.68-.74,6.28,6.28,0,0,1-2-2.63c-.76-1.29-2.58-2.68-7.26-3-.29.85-.57,1.69-.85,2.53a8.78,8.78,0,0,1,5.73,1.65,8.64,8.64,0,0,1,2.83,3.66l2.84,1.54ZM358,898.39l.1-.14,3.33-4.7-2.72-.69q-1.53,2.26-3,4.54L330,886.06q7.48-17.34,14.95-34.69l21,9.34-.06-3.7-19.37-8.08,8.05-17.79,39.94,16.48-23.28,56.14Zm5.11,29.14,8.73-18.94L384,913.48q-1.89,4.41-3.76,8.84l-7.66-3.68s-.16-.16-.3-.14c-.44.06-.65,1.49-.74,3.07l7.81,3.63-3.84,6.72Zm55.79,23.24-40.05-17,6.57-18.51,12.45,4.39q-1.56,4-3.13,8l3,1.08,3.52-8.34,10.6,5.21c-.73,2-1.45,4-2.18,6l3.27.59,1.35-5.1,12.13,5.58Z" transform="translate(1.63 -538)"/><path class="cls-4" d="M264.31,1258.16l-.41.22-.47.27-.46.28-.39.25-.28.19-.1.08.11-.06.3-.15.41-.22.47-.26.46-.28.4-.26.27-.19.11-.07-.12,0Z" transform="translate(1.63 -538)"/><path class="cls-5" d="M258.43,1257.73l-.9.36-1,.41-1,.41-.91.35-.64.25-.25.1.25-.08.66-.2.93-.32,1-.4,1-.42.89-.4.62-.3.24-.12-.25.1Z" transform="translate(1.63 -538)"/><path class="cls-6" d="M264.32,1250c.19-.12.36-.25.52-.36l.36-.26.13-.11-.15.09-.38.22-.54.34-.61.39-.59.4c-.2.13-.37.26-.52.37l-.36.26-.13.11.14-.09.39-.22.53-.34.61-.39Z" transform="translate(1.63 -538)"/><path class="cls-7" d="M265.12,1249.9l-.3.12-.32.17-.31.2-.26.19-.17.15-.06.06.08,0,.19-.11.28-.16.31-.18.31-.18.28-.16.19-.12.07,0-.08,0Z" transform="translate(1.63 -538)"/><path class="cls-8" d="M250,1248.9l.44-.32c.32-.24.7-.5,1.1-.78s.85-.57,1.3-.85.89-.56,1.31-.81l1.18-.67.47-.26.37-.19.32-.17-.33.15-.38.17-.48.24c-.36.18-.77.39-1.2.64s-.88.51-1.33.79l-1.29.87-1.08.81-.42.34a3.42,3.42,0,0,0-.32.27l-.28.23.29-.21Z" transform="translate(1.63 -538)"/><path class="cls-9" d="M255.17,1246.84l.52-.32.19-.13-.2.11c-.14.06-.32.16-.54.28l-.75.42-.85.52-.82.55-.7.5-.48.37-.18.15.19-.13.51-.33.72-.47c.26-.18.55-.36.83-.54l.83-.52Z" transform="translate(1.63 -538)"/><path class="cls-10" d="M255.23,1249.12c-.26.18-.49.37-.69.52s-.37.29-.48.38l-.18.15.19-.13.51-.34.71-.49.82-.56.83-.55.72-.48.51-.34.19-.13-.2.11-.54.3-.74.45-.84.54Z" transform="translate(1.63 -538)"/><path class="cls-11" d="M257,1248.55l-.25.15-.29.17-.27.19-.24.18-.16.13-.06.06.07,0,.19-.09.25-.15.29-.17.27-.19.24-.18.16-.13.06,0-.08,0Z" transform="translate(1.63 -538)"/><path class="cls-12" d="M248.2,1258.21l.75-.26.53-.18.2-.07-.2,0a5.57,5.57,0,0,0-.55.14l-.77.22-.86.31-.85.35c-.26.11-.51.23-.72.34s-.38.2-.49.26l-.19.11.2-.09.51-.22.74-.31.84-.33Z" transform="translate(1.63 -538)"/><path class="cls-13" d="M248.44,1258.67l.45-.18.4-.16.27-.13.1,0-.11,0-.29.08c-.12,0-.26.08-.4.14l-.46.16-.45.18-.4.17-.27.13-.1,0,.11,0,.29-.09.4-.13Z" transform="translate(1.63 -538)"/><path class="cls-14" d="M246.9,1254.19l.3-.08.12,0h-.12l-.32,0-.44.08a4.74,4.74,0,0,0-.5.15c-.17.06-.34.12-.49.19a2.48,2.48,0,0,0-.4.2l-.28.16-.1.07.11,0,.3-.12.41-.17.48-.17.49-.15Z" transform="translate(1.63 -538)"/><path class="cls-15" d="M265.45,1259.71l-.25.12-.28.15-.27.16-.23.15-.15.11-.06,0,.07,0,.18-.07.24-.12.28-.15.27-.16.23-.15.16-.11.06-.05-.07,0Z" transform="translate(1.63 -538)"/><path class="cls-16" d="M266,1259.06l-.38.17-.53.27-.6.31-.59.32-.51.3-.35.21-.13.09.14-.06.37-.18.53-.26.6-.31.59-.33c.19-.1.36-.21.51-.3l.36-.21.09-.07Zm3.75,1a.26.26,0,0,0-.1-.2.34.34,0,0,0-.17-.05h-.06l-.12,0a.06.06,0,0,0,0-.06l-2.57-4.38q0-.63,0-1.29v0h0a.19.19,0,0,0,.18-.19.18.18,0,0,0-.19-.17l-.5,0-4.84-1.32c.09,0,.14-.07.14-.11a.2.2,0,0,0-.06-.14,16.76,16.76,0,0,1,4.48,1.22.11.11,0,0,0,.08,0,.16.16,0,0,0,.1,0,.21.21,0,0,0,.11-.16,19.07,19.07,0,0,0-.6-8.4.09.09,0,0,0,0-.06h.14a.18.18,0,0,0,.16-.2.2.2,0,0,0-.2-.17l-.34,0-4.74-2.09v-.72a.24.24,0,0,0-.16-.23v-.38a.38.38,0,0,1,.2.15.21.21,0,0,0,.29,0,2.57,2.57,0,0,1,.51-.31.88.88,0,0,1-.64-.29,1.62,1.62,0,0,0-.36-.27v0a.07.07,0,0,0-.07-.07.08.08,0,0,0-.08.07v1.1a.24.24,0,0,0-.18.23v.49l-6.09-.46,0-.77a.24.24,0,0,0-.19-.24v-.47a.67.67,0,0,1,.2.28c.1.24.28.16.28.16a1.43,1.43,0,0,1,.48-.18s-.29-.08-.6-.59a1.85,1.85,0,0,0-.37-.5.07.07,0,0,0-.07-.08.08.08,0,0,0-.08.08v1.32a.24.24,0,0,0-.14.21l0,.91-3.23,2.7-.25,0a.19.19,0,0,0-.17.2.19.19,0,0,0,.19.17h.08a13.4,13.4,0,0,0-1.5,3.74l-3.2,4.41a.23.23,0,0,0-.14,0,.17.17,0,0,0-.08.19l-.81.33-.19.08h-.15a.12.12,0,0,0-.12.13.11.11,0,0,0,.12.11h0v0a1.74,1.74,0,0,0,.34,1.32.12.12,0,0,0,.09,0h0a10.15,10.15,0,0,0,1,1l-1.2.72h-.35a.17.17,0,0,0-.18.18.18.18,0,0,0,.16.18,3.61,3.61,0,0,0,.63,2.58.18.18,0,0,0,.13.06h.08a4.69,4.69,0,0,0,.46.42.35.35,0,0,0-.13.08.3.3,0,0,0-.07.21,4,4,0,0,0,.74,1.84,3,3,0,0,1,.37,1c.23.81.51,1.81,1.72,1.81h20.13a.26.26,0,0,0,.25-.16l.1-.23a2.19,2.19,0,0,0,.18-.66.33.33,0,0,0-.28-.34,3.56,3.56,0,0,1,.75-.22.27.27,0,0,0,.2-.19A10.36,10.36,0,0,0,269.7,1260.11Zm-.27,0c-.82.21-1.64.37-2.48.5s-1.67.23-2.5.32-1.68.15-2.52.19-1.69.08-2.53.09l2.52-.23,2.51-.23,1.25-.14,1.25-.14C267.77,1260.38,268.6,1260.27,269.43,1260.13Zm-10.51.53-1.6-.1.81-.06.48,0-.48-.07c-.3,0-.73-.1-1.25-.15s-1.13-.09-1.79-.12l-1,0-1,0h-1.93l.06,0,0,0a.13.13,0,0,0,0-.12,7.28,7.28,0,0,1-.1-.8l.54-.16,1.31-.44,1.49-.54,1.47-.57,1.27-.54.89-.4.14-.07-.15,0-.9.36-1.29.5-1.48.56-1.48.55-1.29.47-.52.19c0-.21,0-.41,0-.6l.41-.15,2-.74c.67-.26,1.34-.53,2-.79l1.69-.73,1.19-.54.41-.21-.42.19-1.21.5c-.49.21-1.08.44-1.7.69l-2,.78c-.67.26-1.34.52-2,.75l-.38.14c0-.43,0-.77,0-.91h0a.18.18,0,0,0,.19-.18.19.19,0,0,0-.19-.18h-.63l-.15,0,.16-.06.47-.19.45-.24a3,3,0,0,0,.37-.23l.26-.18.09-.07-.1,0-.28.14c-.11.07-.25.13-.39.2l-.45.21a4.69,4.69,0,0,1-.46.21l-.24.11-1.55-.6,1.34-1.19,1.66-.06,2.08-.09,2.08-.11,1.81-.1,1.28-.09.48,0H259l-1.29,0-1.81.07-2.08.09-2.07.11-1.57.09.21-.19,1.32-.12,8.28-.48A16.21,16.21,0,0,1,258.92,1260.66Zm.21.61v.23c-.83,0-1.69,0-2.55-.07a1.54,1.54,0,0,1-.2-.67c.84,0,1.65.08,2.39.13a1.15,1.15,0,0,0,.06.26.11.11,0,0,0,.11.1Zm-7.63-.35H256a2.22,2.22,0,0,0,.13.49c-.93-.05-1.86-.11-2.77-.19h0l-1.91-.17A.56.56,0,0,0,251.5,1260.92Zm-.32-.28a.11.11,0,0,0,0,.11.61.61,0,0,1-.07.26H251a2,2,0,0,0,.08-.36Zm-3.9-3.6h-.42a5,5,0,0,1-1-.68l.6-.36.32-.2.53.88a1,1,0,0,1,0,.17A1.15,1.15,0,0,1,247.28,1257Zm-.18-1.36-.32-.53.43,0s0,.23,0,.56Zm.15.19v.07l-.05-.09Zm3.39-1.44-2,.11,4.67-2.47v0Zm2.63-2.17-.05,2-2.39.14Zm-3.13,2.6-.21.19h0l-1.28.09-.49,0h.49l1.24,0-1.27,1.12a8.78,8.78,0,0,1-.69-1.1.43.43,0,0,0,0-.05Zm-1.77,1.31-.88-.34c0-.33,0-.56,0-.65l.31,0h0A9.42,9.42,0,0,0,248.37,1256.17Zm-.86.19c0-.14,0-.28,0-.4l1,.38-.64.56Zm1.05.06a4.4,4.4,0,0,0,.52.6h-1.17v0Zm.16,0,1.37.53-.11,0h-.71A4.39,4.39,0,0,1,248.72,1256.44Zm6.12-4.88.26,0c0,.29,0,.55.05.78l-1.29-.42c.55,0,1-.16,1-.3A.17.17,0,0,0,254.84,1251.56Zm.33,1a4,4,0,0,0,.31,1.2.19.19,0,0,0,.15.12h0a.19.19,0,0,0,.15-.06,4.72,4.72,0,0,1,.92-.75l1.29.42-1.14.61-3.17.18.06-2.18Zm.9-.7c.54.14,1,.3,1.43.44l-.28.13a7.64,7.64,0,0,0-.75.43l-1.1-.36a6.56,6.56,0,0,1-.06-.82l.75.17-.05,0Zm2.22-8h-.1l1.92-1.22V1245l-1.52.14a6.87,6.87,0,0,0-.26-.94.19.19,0,0,0,0-.37Zm.63,8.45.31,0c0,.17.25.27.53.33l-1.59.85-1.31-.43a5.32,5.32,0,0,1,1.14-.5,5.81,5.81,0,0,1,.6.27l.09,0a.19.19,0,0,0,.1,0,.2.2,0,0,0,.1-.15Zm-.59,1.19,1.63-.87.15,0v1.29l-.37,0Zm1.07.48-2.23.13,1-.53Zm-3.4-.74.28-.14.18-.09h0a5.19,5.19,0,0,0-.82.68,4,4,0,0,1-.27-1l.95.31-.1.07a2.26,2.26,0,0,0-.25.19l-.06.06Zm10.68,2.51,2.46,4.21,0,0-.29.06v0l-2.21-3.77C266.67,1256,266.67,1255.84,266.68,1255.68Zm2.08,4.31c-.83.15-1.72.29-2.62.4a27.19,27.19,0,0,0,.51-4Zm-2.32-5.7a27.73,27.73,0,0,1-.55,6.13c-1.05.13-2.1.23-3,.31l-1.16.09-.31,0h-.55a4.41,4.41,0,0,0-.52,0h-.08a14.13,14.13,0,0,0,.33-1.38l.9-.53c.36-.22.76-.44,1.16-.65l1.18-.62c.38-.19.74-.37,1.05-.51l.74-.35.21-.1-.22.08c-.18.07-.45.17-.76.31s-.68.29-1.07.48-.79.39-1.19.6-.79.45-1.16.67-.58.36-.82.52c.1-.56.19-1.18.26-1.86h0l.43-.18.61-.28.69-.32.69-.33.59-.31.41-.22.12-.07-.13,0-.43.18-.61.27-.69.32-.69.34-.59.3-.41.23h0c0-.23,0-.46.07-.69l1.13-.52,1.25-.54c.41-.16.78-.33,1.1-.45l.78-.32.28-.11-.29.09-.79.27-1.12.42-1.26.53-1.07.5c.05-.69.08-1.43.08-2.22C263.64,1254.31,265.9,1254.29,266.44,1254.29Zm-.64-.48-5.2.22v-1.44a3.88,3.88,0,0,0,.53-.06Zm-5.2-11.29,4.49,2-4.49.41Zm4.82,2.43a19,19,0,0,1,.58,8.31,17,17,0,0,0-4.53-1.25c.3,0,.59,0,.87.09a14.84,14.84,0,0,1,1.53.3c.45.11.82.22,1.08.31l.4.13-.1-.06-.28-.14a9.84,9.84,0,0,0-1-.44,10.11,10.11,0,0,0-1.55-.42q-.43-.08-.9-.12c-.3,0-.62,0-.93,0l-.61,0c0-.49,0-1-.05-1.47.15-.09.32-.18.48-.29l.84-.51.82-.53.72-.47.5-.35.14-.1-.15.08-.53.31c-.21.13-.47.27-.73.44l-.84.51-.82.53-.43.29-.09-1.06.75-.48c.6-.38,1.2-.74,1.78-1.07s1.12-.62,1.6-.85l.64-.33.51-.24.41-.2-.42.18-.52.22c-.19.09-.42.19-.65.31-.48.22-1,.5-1.62.82s-1.19.68-1.8,1l-.7.46c-.07-.72-.17-1.39-.25-2l0,0,.63-.41.44-.28.12-.08-.13.06-.47.25-.65.37h0c-.1-.61-.19-1.09-.24-1.36Zm-5.31-2.66v.14l-2.18,1.39-3.9-2ZM254,1242l3.7,1.9-3.75.34Zm-.62.15-1.66,2.3-1.21.11Zm.13,0-.05,2.11-1.58.14Zm-3.14,2.79,1-.09-2.46,3.39A13.7,13.7,0,0,1,250.38,1244.92Zm-1.5,3.62,2.7-3.73c1.48-.13,4.1-.35,6.56-.58a20.08,20.08,0,0,1,.55,8.3,15.38,15.38,0,0,0-3.92-1.19q.34,0,.69.06a13.13,13.13,0,0,1,1.52.27c.44.11.81.23,1.06.31l.29.11.08,0-.07,0-.27-.15a7.88,7.88,0,0,0-1-.45,9.08,9.08,0,0,0-1.54-.39,8.65,8.65,0,0,0-.89-.11c-.31,0-.62,0-.93,0s-.63,0-.93.08l-.89.17c-.28.07-.55.15-.8.24s-.49.18-.7.28a6.18,6.18,0,0,0-1,.52l-.26.17-.1.06.11,0,.28-.13.42-.17a4.5,4.5,0,0,0-.88.77A7.46,7.46,0,0,1,248.88,1248.54Zm-.29.4a9.83,9.83,0,0,0-.19,1.78,6.06,6.06,0,0,0,.36,2.27.19.19,0,0,0,.15.12h0a.18.18,0,0,0,.15-.07,4.7,4.7,0,0,1,2.27-1.38l.57-.13.18,0h0c0,.31.52.44,1.09.47l-4.9,2.59-.47,0a4.78,4.78,0,0,1,0-.77h.09a.13.13,0,0,0,.12-.13.12.12,0,0,0-.13-.12h-.32l-2-.37,0-.07h0ZM247,1253.6l-1.18,0-.18-.29Zm-1.76-.22.16.27-.86,0Zm-.75,1.82a1.62,1.62,0,0,1-.3-1.23l.44,0,.81,0,2.24-.07a4.84,4.84,0,0,0,.05,1.26s-.6-.06-1.35-.06l-.85,0A6.34,6.34,0,0,0,244.53,1255.2Zm.17.09a6.1,6.1,0,0,1,1-.12l.68,0,.33.55-.35.21-.61.36A10.09,10.09,0,0,1,244.7,1255.29Zm1,1.14a7.39,7.39,0,0,0,.89.61l-2,0Zm-.91,3.45a3.45,3.45,0,0,1-.58-2.45l3.65,0,3.08,0a10.58,10.58,0,0,0,.1,2.45H251a28.89,28.89,0,0,0-3.37-.21A13.4,13.4,0,0,0,244.79,1259.88Zm5,.18-.1-.16c.71,0,1.22.11,1.34.13C250.55,1260,250.13,1260.05,249.75,1260.06Zm1.23.57a1.9,1.9,0,0,1-.07.36l-.64-.06-.18-.3Zm-3-.33.69.08h-1.38c0-.19.06-.38.08-.57h.26c.56,0,1.11,0,1.59,0l.13.21h-.1l-1.27.09-.48,0Zm.69.32h1l.16.25-1.56-.16-.86-.09ZM245,1260a12.19,12.19,0,0,1,2.1-.21c0,.18-.05.35-.08.53a.22.22,0,0,0,.06.19.13.13,0,0,0,.07.06c-.76-.08-1.33-.13-1.65-.14S245.16,1260.17,245,1260Zm12.33,4.75-1.17,0-1.16,0-1.16-.08c-.78-.06-1.55-.12-2.32-.21s-1.55-.19-2.31-.34c.39.06.77.11,1.16.15l1.15.12c.78.07,1.55.14,2.32.19s1.55.11,2.33.15l2.32.13Zm12.09-3.63-.52.08-.32,1.59.07-1.56-1.45.19-.33,1.63.07-1.6-1.55.19-.32,1.63.07-1.61-1.54.16-.3,1.41,0-1.39-1.54.12-.27,1.16V1262c-.54,0-1.07.06-1.57.07l-.21.88,0-.88h-1.58l-.19.67,0-.68-1.59-.06-.16.42-.05-.43-1.38-.09h0l-.22,0-.13.3,0-.31-1.62-.13-.11.21-.07-.22c-3.32-.3-6.2-.66-7.07-.69a4.16,4.16,0,0,0,.23.62,3.55,3.55,0,0,0,.23.43l.07.12a97.33,97.33,0,0,0,12.78,1.21h0a101,101,0,0,0,10.29-.14,2,2,0,0,1-.07.23,72,72,0,0,1-9.28.18h0a103.08,103.08,0,0,1-13.53-1.24l0,0a2,2,0,0,1,.23.55,61.87,61.87,0,0,0,10.48,1.13c2.15.09,4,.15,5.59.18h0c3.36.06,5.34,0,5.82,0a1.18,1.18,0,0,1-.08.31c-.45,0-1.69,0-3.68,0h0c-1.89,0-4.45-.07-7.65-.2a62.49,62.49,0,0,1-10.39-1.11s0,.05,0,.08c.08.31.14.63.25.94a3.84,3.84,0,0,1-.39-.91l-.15-.46a2.71,2.71,0,0,0-.2-.42l-.14-.2a1.59,1.59,0,0,1-.13-.22,3.68,3.68,0,0,1-.21-.45,2.78,2.78,0,0,1-.18-1c.86,0,4.59.5,8.62.8h0c1.81.13,3.67.23,5.36.23a77.47,77.47,0,0,0,10-1C269.44,1260.91,269.43,1261,269.43,1261.15Zm-19.85,1.19-.71-.07-.7-.1-.7-.11.71,0,.7.07.71.1.7.11Zm.71.26-.71,0-.71-.07c-.23,0-.47,0-.7-.09s-.47-.07-.7-.12l.71,0,.7.07.71.09C249.82,1262.52,250.06,1262.55,250.29,1262.6Zm-.71-.48-.71-.07-.7-.09c-.23,0-.47-.07-.7-.12l.71.05.7.07.71.09c.23,0,.47.07.7.12Zm0-.22-.71-.07c-.23,0-.47,0-.7-.09s-.47-.07-.7-.12l.71.05.7.07.71.09c.23,0,.47.07.7.12Zm0-.21-.71-.07-.7-.1-.7-.11.71,0c.23,0,.47,0,.7.07s.47,0,.71.09l.7.11Zm11,2.18h-1.16l-1.17,0-1.16,0c-.77,0-1.55-.08-2.32-.15s-1.55-.15-2.31-.27l1.16.11,1.15.09c.78,0,1.55.1,2.32.13l2.33.09.81,0,1.51,0ZM248.3,1263l.6.07.59.09c.2,0,.39.06.59.11l-.6,0c-.2,0-.4,0-.6-.07l-.59-.09c-.2,0-.39-.06-.59-.11Zm-.61-.23.6,0c.2,0,.4,0,.6.07l.59.08.59.12-.6,0-.6-.07-.59-.09Zm.62.41.6.07.59.09.59.11-.6,0-.59-.07-.6-.09-.59-.12Zm15.06-2.72.53-.26.6-.31.59-.33c.19-.1.36-.21.51-.3l.36-.21.09-.07-.1,0-.38.17-.53.27-.6.31-.59.32-.51.3-.35.21-.13.09.14-.06Z" transform="translate(1.63 -538)"/><path class="cls-17" d="M378.59,1021.05l-3.17-1.37,1.67-3.86a.39.39,0,0,0-.19-.51l-1.76-.76.75-1.75a.38.38,0,0,0-.2-.51l-1.75-.76,2-4.57a.39.39,0,0,0-.21-.5l-14.76-6.36a.38.38,0,0,0-.51.19l-2,4.57-1.75-.75a.38.38,0,0,0-.51.2l-.76,1.75-1.76-.76a.39.39,0,0,0-.5.21l-1.66,3.87-3.17-1.36a.38.38,0,0,0-.51.19L338.9,1029l-1-.45a.38.38,0,1,0-.3.7l1.4.61,7.74,3.33,14.77,6.36,7.74,3.34,1.4.6a.38.38,0,0,0,.51-.19.39.39,0,0,0-.21-.51l-1-.45,8.94-20.75A.38.38,0,0,0,378.59,1021.05Zm-2.35-5.18-1.52,3.51-3.51-1.51,1.51-3.51Zm-1.2-3-.61,1.41-.67-.29-.73-.32.61-1.4ZM356.75,1005l1.41.61,0,.07-.57,1.33-1.4-.6Zm-3,1.21,3.52,1.52-1.16,2.68-.36.83-3.51-1.52Zm-7.09,26.13-7-3,8.79-20.39,7,3-3.1,7.19Zm14.77,6.36-14.07-6.06,8.94-20.75.74-1.7,4-9.2,14.07,6.07-2.27,5.27-.61,1.41-1.08,2.52Zm7.74,3.34-7-3,2.4-5.59,6.39-14.81.92.4,6.11,2.63Z" transform="translate(1.63 -538)"/><rect class="cls-18" x="361.95" y="1005.02" width="3.06" height="1.53" transform="translate(-702.4 403.54) rotate(-66.69)"/><rect class="cls-19" x="359.85" y="1004.11" width="3.06" height="1.53" transform="translate(-702.84 401.04) rotate(-66.69)"/><rect class="cls-20" x="364.06" y="1005.93" width="3.06" height="1.53" transform="translate(-701.96 406.03) rotate(-66.69)"/><rect class="cls-21" x="366.18" y="1006.84" width="3.06" height="1.53" transform="translate(-701.52 408.53) rotate(-66.69)"/><rect class="cls-22" x="368.29" y="1007.75" width="3.06" height="1.53" transform="translate(-701.08 411.01) rotate(-66.69)"/><rect class="cls-23" x="370.4" y="1008.66" width="3.06" height="1.53" transform="translate(-700.64 413.49) rotate(-66.69)"/><rect class="cls-24" x="360.44" y="1008.53" width="3.06" height="1.53" transform="translate(-706.54 404.26) rotate(-66.69)"/><rect class="cls-25" x="358.33" y="1007.63" width="3.06" height="1.53" transform="translate(-706.98 401.79) rotate(-66.69)"/><rect class="cls-26" x="362.55" y="1009.44" width="3.06" height="1.53" transform="translate(-706.1 406.73) rotate(-66.68)"/><rect class="cls-27" x="364.67" y="1010.35" width="3.06" height="1.53" transform="translate(-705.66 409.26) rotate(-66.69)"/><rect class="cls-28" x="366.77" y="1011.26" width="3.06" height="1.53" transform="translate(-705.22 411.73) rotate(-66.69)"/><rect class="cls-29" x="368.88" y="1012.17" width="3.06" height="1.53" transform="translate(-704.78 414.21) rotate(-66.69)"/><rect class="cls-30" x="358.92" y="1012.05" width="3.07" height="1.53" transform="translate(-710.69 404.99) rotate(-66.69)"/><rect class="cls-31" x="356.81" y="1011.14" width="3.07" height="1.53" transform="translate(-711.13 402.53) rotate(-66.69)"/><rect class="cls-32" x="361.03" y="1012.96" width="3.07" height="1.53" transform="translate(-710.25 407.46) rotate(-66.68)"/><rect class="cls-33" x="363.14" y="1013.87" width="3.07" height="1.53" transform="translate(-709.81 409.99) rotate(-66.69)"/><rect class="cls-34" x="365.25" y="1014.78" width="3.07" height="1.53" transform="translate(-709.37 412.46) rotate(-66.69)"/><rect class="cls-35" x="367.36" y="1015.69" width="3.07" height="1.53" transform="translate(-708.93 414.94) rotate(-66.69)"/><rect class="cls-36" x="372.96" y="1016.09" width="1.53" height="1.54" transform="translate(-706.39 419.62) rotate(-66.69)"/><rect class="cls-37" x="371.84" y="1020.62" width="1.53" height="1.54" transform="translate(-711.22 421.33) rotate(-66.69)"/><rect class="cls-38" x="373.95" y="1021.54" width="1.53" height="1.53" transform="translate(-710.78 423.84) rotate(-66.69)"/><rect class="cls-39" x="370.93" y="1022.73" width="1.53" height="1.54" transform="translate(-713.71 421.77) rotate(-66.69)"/><rect class="cls-40" x="373.05" y="1023.64" width="1.53" height="1.53" transform="translate(-713.27 424.28) rotate(-66.69)"/><rect class="cls-41" x="370.02" y="1024.84" width="1.53" height="1.54" transform="translate(-716.19 422.21) rotate(-66.69)"/><rect class="cls-42" x="372.14" y="1025.75" width="1.53" height="1.53" transform="translate(-715.75 424.69) rotate(-66.68)"/><rect class="cls-43" x="369.12" y="1026.94" width="1.53" height="1.54" transform="translate(-718.67 422.65) rotate(-66.69)"/><rect class="cls-44" x="371.23" y="1027.86" width="1.53" height="1.53" transform="translate(-718.23 425.13) rotate(-66.68)"/><rect class="cls-45" x="368.2" y="1029.06" width="1.53" height="1.54" transform="translate(-721.17 423.09) rotate(-66.69)"/><rect class="cls-46" x="370.32" y="1029.98" width="1.53" height="1.53" transform="translate(-720.73 425.6) rotate(-66.69)"/><rect class="cls-47" x="367.29" y="1031.17" width="1.53" height="1.54" transform="translate(-723.66 423.53) rotate(-66.69)"/><rect class="cls-48" x="369.41" y="1032.09" width="1.53" height="1.53" transform="translate(-723.22 426.06) rotate(-66.69)"/><rect class="cls-49" x="366.39" y="1033.28" width="1.53" height="1.54" transform="translate(-726.14 423.97) rotate(-66.69)"/><rect class="cls-50" x="368.5" y="1034.19" width="1.53" height="1.53" transform="translate(-725.7 426.48) rotate(-66.69)"/><rect class="cls-51" x="365.48" y="1035.39" width="1.53" height="1.54" transform="translate(-728.62 424.41) rotate(-66.69)"/><rect class="cls-52" x="367.59" y="1036.3" width="1.53" height="1.53" transform="translate(-728.18 426.89) rotate(-66.68)"/><rect class="cls-53" x="364.56" y="1037.5" width="1.54" height="1.54" transform="translate(-731.12 424.85) rotate(-66.69)"/><rect class="cls-54" x="366.67" y="1038.41" width="1.54" height="1.53" transform="translate(-730.68 427.36) rotate(-66.69)"/><rect class="cls-55" x="353.97" y="1007.91" width="1.53" height="1.54" transform="translate(-710.35 397.24) rotate(-66.69)"/><rect class="cls-56" x="351.45" y="1011.83" width="1.53" height="1.54" transform="translate(-715.47 397.29) rotate(-66.69)"/><rect class="cls-57" x="349.33" y="1010.93" width="1.53" height="1.53" transform="translate(-715.91 394.8) rotate(-66.69)"/><rect class="cls-58" x="350.54" y="1013.94" width="1.53" height="1.54" transform="translate(-717.96 397.73) rotate(-66.69)"/><rect class="cls-59" x="348.42" y="1013.03" width="1.53" height="1.53" transform="translate(-718.4 395.23) rotate(-66.68)"/><rect class="cls-60" x="349.63" y="1016.05" width="1.53" height="1.54" transform="translate(-720.44 398.17) rotate(-66.69)"/><rect class="cls-61" x="347.52" y="1015.14" width="1.53" height="1.53" transform="translate(-720.88 395.67) rotate(-66.68)"/><rect class="cls-62" x="348.72" y="1018.15" width="1.53" height="1.54" transform="translate(-722.93 398.61) rotate(-66.69)"/><rect class="cls-63" x="346.61" y="1017.25" width="1.53" height="1.53" transform="translate(-723.37 396.14) rotate(-66.69)"/><rect class="cls-64" x="347.81" y="1020.27" width="1.53" height="1.54" transform="translate(-725.42 399.05) rotate(-66.69)"/><rect class="cls-65" x="345.69" y="1019.37" width="1.53" height="1.53" transform="translate(-725.86 396.55) rotate(-66.68)"/><rect class="cls-66" x="346.9" y="1022.38" width="1.53" height="1.54" transform="translate(-727.91 399.49) rotate(-66.69)"/><rect class="cls-67" x="344.79" y="1021.48" width="1.53" height="1.53" transform="translate(-728.35 397) rotate(-66.69)"/><rect class="cls-68" x="345.99" y="1024.49" width="1.53" height="1.54" transform="translate(-730.39 399.93) rotate(-66.69)"/><rect class="cls-69" x="343.88" y="1023.58" width="1.53" height="1.53" transform="translate(-730.83 397.43) rotate(-66.68)"/><rect class="cls-70" x="345.08" y="1026.6" width="1.53" height="1.54" transform="translate(-732.88 400.37) rotate(-66.69)"/><rect class="cls-71" x="342.97" y="1025.69" width="1.53" height="1.53" transform="translate(-733.32 397.86) rotate(-66.68)"/><rect class="cls-72" x="344.17" y="1028.71" width="1.54" height="1.54" transform="translate(-735.37 400.81) rotate(-66.69)"/><rect class="cls-73" x="342.05" y="1027.8" width="1.54" height="1.53" transform="translate(-735.81 398.34) rotate(-66.69)"/><rect class="cls-74" x="357.41" y="1015.57" width="3.06" height="1.53" transform="translate(-714.84 405.74) rotate(-66.69)"/><rect class="cls-75" x="355.3" y="1014.66" width="3.06" height="1.53" transform="translate(-715.27 403.24) rotate(-66.69)"/><rect class="cls-76" x="359.52" y="1016.48" width="3.06" height="1.53" transform="translate(-714.4 408.23) rotate(-66.69)"/><rect class="cls-77" x="361.63" y="1017.39" width="3.06" height="1.53" transform="translate(-713.96 410.73) rotate(-66.69)"/><rect class="cls-78" x="363.74" y="1018.3" width="3.06" height="1.53" transform="translate(-713.52 413.19) rotate(-66.69)"/><rect class="cls-79" x="365.85" y="1019.21" width="3.06" height="1.53" transform="matrix(0.4, -0.92, 0.92, 0.4, -713.08, 415.69)"/><rect class="cls-80" x="355.89" y="1019.08" width="3.06" height="1.53" transform="translate(-718.98 406.46) rotate(-66.69)"/><rect class="cls-81" x="353.79" y="1018.17" width="3.06" height="1.53" transform="translate(-719.42 403.99) rotate(-66.69)"/><rect class="cls-82" x="358" y="1019.99" width="3.06" height="1.53" transform="translate(-718.54 408.93) rotate(-66.68)"/><rect class="cls-83" x="360.12" y="1020.9" width="3.06" height="1.53" transform="translate(-718.1 411.47) rotate(-66.69)"/><rect class="cls-84" x="362.23" y="1021.81" width="3.06" height="1.53" transform="translate(-717.66 413.92) rotate(-66.69)"/><rect class="cls-85" x="364.34" y="1022.72" width="3.06" height="1.53" transform="translate(-717.22 416.41) rotate(-66.69)"/><rect class="cls-86" x="354.37" y="1022.6" width="3.07" height="1.53" transform="translate(-723.12 407.19) rotate(-66.69)"/><rect class="cls-87" x="352.27" y="1021.69" width="3.07" height="1.53" transform="translate(-723.56 404.71) rotate(-66.69)"/><rect class="cls-88" x="356.48" y="1023.51" width="3.07" height="1.53" transform="translate(-722.68 409.66) rotate(-66.68)"/><rect class="cls-89" x="358.6" y="1024.42" width="3.07" height="1.53" transform="translate(-722.24 412.19) rotate(-66.69)"/><rect class="cls-90" x="360.71" y="1025.33" width="3.07" height="1.53" transform="translate(-721.8 414.66) rotate(-66.69)"/><rect class="cls-91" x="362.81" y="1026.24" width="3.07" height="1.53" transform="translate(-721.36 417.14) rotate(-66.69)"/><rect class="cls-92" x="352.86" y="1026.12" width="3.06" height="1.53" transform="translate(-727.27 407.93) rotate(-66.69)"/><rect class="cls-93" x="350.75" y="1025.21" width="3.06" height="1.53" transform="translate(-727.71 405.44) rotate(-66.69)"/><rect class="cls-94" x="354.97" y="1027.03" width="3.06" height="1.53" transform="translate(-726.83 410.42) rotate(-66.69)"/><rect class="cls-95" x="357.09" y="1027.94" width="3.06" height="1.53" transform="translate(-726.39 412.91) rotate(-66.69)"/><rect class="cls-96" x="359.2" y="1028.85" width="3.06" height="1.53" transform="translate(-725.95 415.4) rotate(-66.69)"/><rect class="cls-97" x="361.3" y="1029.76" width="3.06" height="1.53" transform="translate(-725.51 417.88) rotate(-66.69)"/><path class="cls-98" d="M723.4,1108.14l-1.64-.85a.79.79,0,0,0-.87.1l-8.31,7.3-6-3.09a3.51,3.51,0,0,0-1.77-4l-.23-.1.56-3,11.39,3.83a.77.77,0,1,0,.49-1.47l-12.23-4.1a.76.76,0,0,0-1,.59l-.72,3.82a3.5,3.5,0,1,0,2.8,5.75l6,3.12,0,1.7a.77.77,0,0,0,.42.66.78.78,0,0,0,.37.09.76.76,0,0,0,.75-.79l0-1.8,8-7,1.18.61a.77.77,0,0,0,1-.33A.78.78,0,0,0,723.4,1108.14ZM705,1111.61a2,2,0,1,1-.83-2.63A2,2,0,0,1,705,1111.61Z" transform="translate(1.63 -538)"/><path class="cls-99" d="M724.9,1097.05l-3.36-1.74a.77.77,0,0,0-1,.33.78.78,0,0,0,.33,1l2.67,1.38-1.46,2.83-6.55-3.39,1.47-2.83,1,.52a.78.78,0,0,0,1-.33.77.77,0,0,0-.33-1l-25.45-13.21a.77.77,0,0,0-1,.33l-11.08,21.35a.76.76,0,0,0,.33,1L697,1111.4a.77.77,0,0,0,.71-1.37l-7.52-3.9,1.47-2.83,5.1,2.65a.77.77,0,0,0,.71-1.37l-.92-.48,1.53-2.95,3.34,1.74a.77.77,0,0,0,1-.33.76.76,0,0,0-.33-1l-5-2.59a.78.78,0,0,0-1,.33.77.77,0,0,0,.33,1l.27.14-1.53,3L688.7,1100l1.53-3,4.1,2.13a.77.77,0,1,0,.71-1.37l-.45-.24,1.53-2.95,6.27,3.26a.77.77,0,0,0,.71-1.37l-2.09-1.08,1.53-3,6.85,3.55-1.53,3-2.43-1.26a.77.77,0,1,0-.71,1.36l6.57,3.41a.76.76,0,0,0,1-.33.77.77,0,0,0-.33-1l-2.77-1.43,1.53-3,6.85,3.55-.67,1.28a.77.77,0,1,0,1.37.71L719,1101l2.37,1.22-.74,1.42a.76.76,0,0,0,.33,1,.77.77,0,0,0,1-.32l3.27-6.3A.78.78,0,0,0,724.9,1097.05Zm-31.71-14.71,6,3.1-1.47,2.83-6-3.11Zm-2.18,4.19,2.33,1.21-1.53,3-2.33-1.21Zm-.74,16.06-1.47,2.83-6-3.1,1.47-2.83Zm-2.94-3.26-2.33-1.21,1.53-2.95,2.33,1.21Zm5.89-2.43-6-3.1,1.53-3,6,3.1Zm6.42-2.14-6.46-3.36,1.53-3,6.46,3.36Zm-.57-5.78,1.46-2.83,6.85,3.55-1.47,2.83Zm8.21,4.26,1.47-2.83,6.84,3.55-1.47,2.83Z" transform="translate(1.63 -538)"/><path class="cls-100" d="M700.67,1106.25l-1-.54a.77.77,0,0,0-.71,1.37l1,.54a.77.77,0,0,0,.71-1.37Z" transform="translate(1.63 -538)"/><path class="cls-101" d="M717,1103.19a.77.77,0,0,0-1,.33l-.29.56a.77.77,0,0,0,1.37.71l.29-.56A.78.78,0,0,0,717,1103.19Z" transform="translate(1.63 -538)"/><path class="cls-102" d="M259.93,960.29l-2.35-3-.58-.75a.05.05,0,0,0,0,0l0,0a.27.27,0,0,0-.16-.08h-.09l-1.54-.32-3.59-.74,2.23-5.79a.41.41,0,0,0,0-.36l-2.62-4.48,0-.08-.07-.07a.35.35,0,0,0-.12-.07.33.33,0,0,0-.17,0h-.05l-10.73.63a.46.46,0,0,0-.37.27l-2.3,6-3.09-2.76-1.66-1.47,0,0a.39.39,0,0,0-.37-.09h0l-3.94,1.12a.37.37,0,0,0-.27.24L219.94,969a.4.4,0,0,0,.23.53l1.16.45L220.15,973l-1.92-.74a.41.41,0,0,0-.53.24.41.41,0,0,0,.24.53l2.29.88.94.36,2,.76,7.78,3,12.23,4.71.85.33,2.37.91,4.42,1.71a.41.41,0,1,0,.3-.76l-3.44-1.33,1.17-3.05,2.68,1a.42.42,0,0,0,.54-.24l4.53-11.75.92-2.41,2.5-6.48A.4.4,0,0,0,259.93,960.29Zm-5.12-3.48,1.31.27-8.52,22.1-1.72-.67-.57-.22,1.33-3.44a.43.43,0,0,0-.24-.54l-5.73-2.2,6.5-16.87Zm-4-11,2.12,3.63-2.21,5.73-3.27-.66Zm-13,6.37,2.41-6.27,9.89-.6-3.6,9.35-6.63,17.19-5.73-2.21a.41.41,0,0,0-.52.24l-1.33,3.45-2.3-.89Zm-5.44-4.09,1.45,1.29,3.12,2.78-7.71,20L225,970.48l-1.13-.44Zm-11.53,20.82,7.73-20.07,2.95-.84-.57,1.48-7.82,20.31-.23-.09-.92-.35Zm10,8.23-7.39-2.85-2-.77-.55-.21,1.18-3,.54.21.6.23,1.49.58,4.63,1.78,2.68,1Zm12.23,4.72-11.47-4.42,1.33-3.44,1.32-3.43,5.73,2.21,5.73,2.2-1.32,3.43Zm3.81,1.47-.19-.07-2.38-.92-.48-.19,1.18-3.05.55.21,2.12.82.28.1.1,0Zm9.86-16.49-.95,2.47-4.38,11.38-3.06-1.18.9-2.34,7.54-19.54.41.53,1.93,2.48Z" transform="translate(1.63 -538)"/><rect class="cls-103" x="240.34" y="948.53" width="3.27" height="1.64" transform="translate(-729.25 295.73) rotate(-68.92)"/><rect class="cls-104" x="242.63" y="949.42" width="3.27" height="1.64" transform="translate(-728.61 298.44) rotate(-68.92)"/><rect class="cls-105" x="238.87" y="952.35" width="3.27" height="1.64" transform="translate(-733.75 296.81) rotate(-68.92)"/><rect class="cls-106" x="241.16" y="953.23" width="3.27" height="1.64" transform="translate(-733.11 299.51) rotate(-68.92)"/><rect class="cls-107" x="237.39" y="956.18" width="3.27" height="1.64" transform="translate(-738.27 297.88) rotate(-68.92)"/><rect class="cls-108" x="239.68" y="957.06" width="3.27" height="1.64" transform="translate(-737.63 300.58) rotate(-68.92)"/><rect class="cls-109" x="235.92" y="960" width="3.27" height="1.64" transform="translate(-742.78 298.95) rotate(-68.92)"/><rect class="cls-110" x="231.28" y="953.83" width="3.27" height="1.64" transform="translate(-739.99 290.67) rotate(-68.92)"/><rect class="cls-111" x="229.81" y="957.64" width="3.27" height="1.64" transform="translate(-744.49 291.75) rotate(-68.92)"/><rect class="cls-112" x="228.33" y="961.47" width="3.29" height="1.64" transform="translate(-749 292.82) rotate(-68.92)"/><rect class="cls-113" x="226.87" y="965.29" width="3.27" height="1.64" transform="translate(-753.51 293.89) rotate(-68.92)"/><rect class="cls-114" x="238.21" y="960.88" width="3.27" height="1.64" transform="translate(-742.13 301.66) rotate(-68.92)"/><rect class="cls-115" x="246.94" y="957.51" width="2.47" height="1.64" transform="translate(-733.65 307.27) rotate(-68.92)"/><rect class="cls-116" x="249.23" y="958.39" width="2.47" height="1.64" transform="translate(-733.01 309.97) rotate(-68.92)"/><rect class="cls-117" x="251.52" y="959.27" width="2.47" height="1.64" transform="translate(-732.37 312.67) rotate(-68.92)"/><rect class="cls-118" x="245.77" y="960.57" width="2.45" height="1.64" transform="translate(-737.26 308.13) rotate(-68.92)"/><rect class="cls-119" x="248.06" y="961.45" width="2.45" height="1.64" transform="translate(-736.62 310.83) rotate(-68.92)"/><rect class="cls-120" x="250.35" y="962.33" width="2.45" height="1.64" transform="translate(-735.98 313.53) rotate(-68.92)"/><rect class="cls-121" x="244.59" y="963.62" width="2.45" height="1.64" transform="translate(-740.87 308.98) rotate(-68.92)"/><rect class="cls-122" x="246.88" y="964.5" width="2.45" height="1.64" transform="translate(-740.22 311.69) rotate(-68.92)"/><rect class="cls-123" x="249.17" y="965.39" width="2.45" height="1.64" transform="translate(-739.58 314.39) rotate(-68.92)"/><rect class="cls-124" x="243.41" y="966.68" width="2.47" height="1.64" transform="translate(-744.48 309.84) rotate(-68.92)"/><rect class="cls-125" x="245.7" y="967.56" width="2.47" height="1.64" transform="translate(-743.83 312.54) rotate(-68.92)"/><rect class="cls-126" x="242.23" y="969.74" width="2.45" height="1.64" transform="translate(-748.09 310.7) rotate(-68.92)"/><rect class="cls-127" x="234.44" y="963.82" width="3.29" height="1.64" transform="translate(-747.29 300.03) rotate(-68.92)"/><rect class="cls-128" x="238.43" y="970.54" width="1.64" height="8.19" transform="translate(-754.59 309.38) rotate(-68.92)"/><rect class="cls-129" x="237.55" y="972.83" width="1.64" height="8.19" transform="translate(-757.29 310.03) rotate(-68.92)"/><path class="cls-130" d="M148.73,839.5l-8,.36a.78.78,0,0,0-.69.47l-8.44,19.54a.79.79,0,0,0,.42,1l13.31,5.75,9,3.87a.77.77,0,0,0,1-.41l6.25-14.47a.77.77,0,0,0-.12-.81l-2.32-2.8a.79.79,0,1,0-1.21,1l2,2.42-5.74,13.3-7.52-3.24L154,848.39l1,1.25a.68.68,0,0,0,.29.22.78.78,0,0,0,.92-1.22l-1.55-1.87,2.82-6.53a.79.79,0,0,0-.76-1.1l-2.72.12a.79.79,0,0,0-.75.83.78.78,0,0,0,.82.75l1.46-.07-10.41,24.12-11.87-5.12,7.93-18.36,7.56-.33a.79.79,0,0,0-.07-1.58Z" transform="translate(1.63 -538)"/><path class="cls-131" d="M151.92,839.36l-.7,0a.8.8,0,0,0-.76.82.81.81,0,0,0,.48.69.68.68,0,0,0,.35.06l.7,0a.79.79,0,0,0-.07-1.57Z" transform="translate(1.63 -538)"/><path class="cls-132" d="M156.6,851.5a.77.77,0,0,0,.29.22.79.79,0,0,0,.92-1.23l-.22-.27a.78.78,0,0,0-1.11-.1.79.79,0,0,0-.11,1.11Z" transform="translate(1.63 -538)"/><path class="cls-133" d="M127.07,839.83a.79.79,0,0,0,1-.41l.74-1.72a.79.79,0,0,0-1.45-.63l-.74,1.72A.79.79,0,0,0,127.07,839.83Z" transform="translate(1.63 -538)"/><path class="cls-134" d="M163,836.29l-2.89-4.65a.73.73,0,0,0-.36-.31l-16.27-7,.05-.12a.8.8,0,0,0-.19-.89L137,817.47a.76.76,0,0,0-.7-.19.78.78,0,0,0-.56.45l-1.12,2.61,0,.12-1.81-.78a.79.79,0,0,0-1,.41L130.49,823a.8.8,0,0,0,.41,1l1.81.78-.39.91-3.88,9a.8.8,0,0,0,.42,1,.78.78,0,0,0,1-.41l3.56-8.25,1.42.62L124.3,852.14l-1.42-.61,4.29-9.95a.78.78,0,1,0-1.44-.62l-4.3,9.95-1.93-.84a.78.78,0,0,0-1,.41l-1.36,3.15a.79.79,0,0,0,.41,1l10.92,4.71a.78.78,0,0,0,1-.41l1.36-3.14a.79.79,0,0,0-.41-1l-4.68-2,10.57-24.49,3.86,1.67a.8.8,0,0,0,1-.42l.39-.91,12.66,5.46-1.31,3a.79.79,0,0,0,1.45.63l1.31-3,6.29,2.72a.8.8,0,0,0,.91-.21A.78.78,0,0,0,163,836.29Zm-33.92,19.63-.73,1.7-9.48-4.09.73-1.7,1.93.83,2.87,1.24Zm4.26-32.59-1.09-.47.62-1.42,1.08.47Zm6.74,4.86-6-2.6,2-4.63.68-1.58,5.1,4.69Zm2.16-1,.61-1.42,16.05,6.93,1.43,2.3Z" transform="translate(1.63 -538)"/><path class="cls-135" d="M140.52,848.63l-4.13,9.59a.78.78,0,1,0,1.44.62l4.14-9.58a.79.79,0,1,0-1.45-.63Z" transform="translate(1.63 -538)"/><path class="cls-136" d="M146.29,846a.79.79,0,0,0-1,.41l-5.68,13.16a.79.79,0,0,0,1.45.63l5.68-13.16A.79.79,0,0,0,146.29,846Z" transform="translate(1.63 -538)"/><path class="cls-137" d="M149.75,844.75l-7,16.22a.79.79,0,0,0,1.45.62l7-16.22a.79.79,0,0,0-1.45-.62Z" transform="translate(1.63 -538)"/><path class="cls-138" d="M474,997.63l-9.48-13.38,2.69-5.78a.85.85,0,0,0-.42-1.14l-2.29-1.07,3.27-7a.85.85,0,0,0-.41-1.14l-1.68-.79,2.47-5.28a.87.87,0,0,0-.42-1.15l-2.25-1a.86.86,0,0,0-1.15.41l-2.47,5.29-1.67-.78a.86.86,0,0,0-1.15.42l-3.27,7-2.29-1.06a.87.87,0,0,0-1.15.41l-2.69,5.78-16.35,1.33a.84.84,0,0,0-.71.49l-5.76,12.35a.87.87,0,0,0,.42,1.15l13.31,6.21,13.31,6.21,13.32,6.21a.86.86,0,0,0,1.14-.42l5.76-12.35A.86.86,0,0,0,474,997.63Zm-8.47-35.87.69.33-2.1,4.5-.69-.32Zm-5.29,4.93,1.68.78,2.25,1,1.68.78L463,975.53l-5.61-2.62Zm-19.74,30.22-11.75-5.48L434,980.31l14.87-1.21Zm13.31,6.21-11.75-5.48L451,978.49l2.54-5.45,2.29,1.07,7.17,3.35,2.29,1.07L462.78,984Zm13.31,6.21-11.75-5.48,8.31-17.8,8.63,12.17Z" transform="translate(1.63 -538)"/><path class="cls-139" d="M461.91,993.24l1.2,1.7a.83.83,0,0,0,.34.28.84.84,0,0,0,.86-.08.86.86,0,0,0,.21-1.2l-1.21-1.7a.86.86,0,0,0-1.2-.2A.85.85,0,0,0,461.91,993.24Z" transform="translate(1.63 -538)"/><path class="cls-140" d="M469.51,1001l-3.46-4.89a.88.88,0,0,0-1.21-.21.87.87,0,0,0-.2,1.21l3.46,4.88a.94.94,0,0,0,.34.29.91.91,0,0,0,.87-.08A.86.86,0,0,0,469.51,1001Z" transform="translate(1.63 -538)"/><path class="cls-141" d="M467,1006.38l-1.2-1.7a.85.85,0,0,0-1.2-.2.86.86,0,0,0-.21,1.2l1.21,1.7a.86.86,0,0,0,1.2.2A.85.85,0,0,0,467,1006.38Z" transform="translate(1.63 -538)"/><path class="cls-142" d="M464.26,1002.52l-3.46-4.88a.87.87,0,0,0-1.2-.21.86.86,0,0,0-.21,1.2l3.47,4.89a.91.91,0,0,0,.33.29.9.9,0,0,0,.87-.08A.87.87,0,0,0,464.26,1002.52Z" transform="translate(1.63 -538)"/><path class="cls-143" d="M442,985.21a.93.93,0,0,0,.44.08l2.07-.17a.86.86,0,0,0-.14-1.72l-2.07.17a.85.85,0,0,0-.79.93A.87.87,0,0,0,442,985.21Z" transform="translate(1.63 -538)"/><path class="cls-144" d="M433.38,985.91a.89.89,0,0,0,.43.08l6-.49a.86.86,0,1,0-.14-1.72l-6,.49a.86.86,0,0,0-.79.93A.88.88,0,0,0,433.38,985.91Z" transform="translate(1.63 -538)"/><path class="cls-145" d="M430.86,991.3a.91.91,0,0,0,.44.08l2.07-.17a.86.86,0,0,0-.14-1.72l-2.07.17a.86.86,0,0,0-.3,1.64Z" transform="translate(1.63 -538)"/><path class="cls-146" d="M441.84,988.79l-6,.49a.86.86,0,0,0-.3,1.64.89.89,0,0,0,.43.08l6-.49a.88.88,0,0,0,.79-.93A.86.86,0,0,0,441.84,988.79Z" transform="translate(1.63 -538)"/><path class="cls-147" d="M451.52,992.77a.86.86,0,0,0-1.14.42l-1.81,3.87a.87.87,0,0,0,1.57.73l1.8-3.87A.86.86,0,0,0,451.52,992.77Z" transform="translate(1.63 -538)"/><path class="cls-148" d="M453.26,989.06a.87.87,0,0,0-1.15.42l-.51,1.09a.86.86,0,1,0,1.56.73l.51-1.09A.86.86,0,0,0,453.26,989.06Z" transform="translate(1.63 -538)"/><path class="cls-149" d="M458.43,978a.86.86,0,0,0-1.14.42l-3.94,8.44a.86.86,0,0,0,1.56.73l3.94-8.44A.87.87,0,0,0,458.43,978Z" transform="translate(1.63 -538)"/><path class="cls-150" d="M456.64,991.17a.86.86,0,0,0-1.15.42l-2.33,5a.86.86,0,0,0,1.57.72l2.32-5A.85.85,0,0,0,456.64,991.17Z" transform="translate(1.63 -538)"/><path class="cls-151" d="M458.37,987.46a.87.87,0,0,0-1.15.41l-.51,1.1a.87.87,0,0,0,1.57.73l.51-1.1A.86.86,0,0,0,458.37,987.46Z" transform="translate(1.63 -538)"/><path class="cls-152" d="M461,981.79a.86.86,0,0,0-1.14.42l-1.41,3a.86.86,0,0,0,1.57.72l1.4-3A.86.86,0,0,0,461,981.79Z" transform="translate(1.63 -538)"/><path class="cls-153" d="M449.47,987.82a.87.87,0,0,0-1.15.42l-2.33,5a.86.86,0,0,0,.42,1.14.85.85,0,0,0,1.14-.41l2.33-5A.87.87,0,0,0,449.47,987.82Z" transform="translate(1.63 -538)"/><path class="cls-154" d="M451.82,982.78a.87.87,0,0,0-1.15.42l-1.13,2.42a.87.87,0,0,0,.42,1.15.86.86,0,0,0,1.14-.42l1.13-2.42A.86.86,0,0,0,451.82,982.78Z" transform="translate(1.63 -538)"/><path class="cls-155" d="M453.84,978.44a.87.87,0,0,0-1.15.42l-.78,1.68a.87.87,0,0,0,.42,1.15.86.86,0,0,0,1.14-.42l.79-1.68A.87.87,0,0,0,453.84,978.44Z" transform="translate(1.63 -538)"/><path class="cls-156" d="M462.79,968.73a.87.87,0,0,0-1.15.42l-1.48,3.17a.86.86,0,0,0,.42,1.14.87.87,0,0,0,1.15-.41l1.47-3.17A.87.87,0,0,0,462.79,968.73Z" transform="translate(1.63 -538)"/><line class="cls-157" x1="472.89" y1="411.02" x2="468.93" y2="420.61"/><line class="cls-157" x1="469.47" y1="411.6" x2="474.53" y2="413.97"/><path class="cls-158" d="M57.5,968.46l5.38.56L61.4,983.3a.94.94,0,0,0,.84,1l24.13,2.51a.93.93,0,0,0,1-.84l1.06-10.15a.94.94,0,0,0-1.88-.19l-1,9.21-7.44-.78.1-1a.94.94,0,1,0-1.87-.2l-.11,1-3.6-.37.67-6.49a1.81,1.81,0,0,1,3.6.38,1,1,0,0,0,.85,1,.93.93,0,0,0,1-.84,3.7,3.7,0,1,0-7.35-.77l-.68,6.49-7.45-.77,1.39-13.34,20.65,2.15a.95.95,0,0,0,.2-1.88l-25.42-2.64,17.34-12.26,7.35,7.92a1,1,0,0,0,1.33,0,1,1,0,0,0,.05-1.34l-7.91-8.52a1,1,0,0,0-1.23-.13L57.05,966.75a.95.95,0,0,0,.45,1.71Z" transform="translate(1.63 -538)"/><path class="cls-159" d="M87.61,965.45a.94.94,0,0,0,.59.3,1,1,0,0,0,.74-.25,1,1,0,0,0,0-1.33l-.59-.63a.94.94,0,0,0-1.33-.06,1,1,0,0,0,0,1.34Z" transform="translate(1.63 -538)"/><path class="cls-160" d="M105.23,968.86a3.79,3.79,0,0,0-1.49-4,3.83,3.83,0,0,0-.74-3.48.94.94,0,1,0-1.44,1.21,2,2,0,0,1,.23,2.1l-.08.16a.94.94,0,0,0-.07.83,1,1,0,0,0,.62.56,1.66,1.66,0,0,1,.31.12,1.89,1.89,0,0,1,.69,2.45l0,.05a.92.92,0,0,0,0,.76.94.94,0,0,0,.54.55l.17.07a1.91,1.91,0,0,1,.69,2.47,1.71,1.71,0,0,1-1.24,1,.93.93,0,0,0-.79.78,2,2,0,0,1-.17.54,1.7,1.7,0,0,1-1,.92,1.42,1.42,0,0,1-1.12-.1.93.93,0,0,0-1,.11,3.56,3.56,0,0,1-5.29-.55.93.93,0,0,0-1-.32,1.39,1.39,0,0,1-1.11-.14,1.74,1.74,0,0,1-.79-1.1,2.09,2.09,0,0,1-.05-.56.94.94,0,0,0-.61-.93,1.7,1.7,0,0,1-1-1.21,1.9,1.9,0,0,1,1.18-2.27l.18,0a.93.93,0,0,0,.65-.42,1,1,0,0,0,.11-.76v0a1.88,1.88,0,0,1,1.18-2.25,1.13,1.13,0,0,1,.32-.06,1,1,0,0,0,.72-.42.91.91,0,0,0,.11-.83.84.84,0,0,1,0-.17,1.88,1.88,0,0,1,1.18-2.27,1.31,1.31,0,0,1,.68,0A.94.94,0,0,0,96,959.7a3.29,3.29,0,0,0-1.59.07,3.78,3.78,0,0,0-2.58,3.85,3.78,3.78,0,0,0-2.28,3.6,3.83,3.83,0,0,0-2,4.34,3.65,3.65,0,0,0,1.59,2.25c0,.15,0,.3.08.45a3.57,3.57,0,0,0,1.68,2.29,3.2,3.2,0,0,0,2,.44,5.87,5.87,0,0,0,2.49,1.55l-.76,7.27-1.92-.2a.94.94,0,0,0-1,.84,1,1,0,0,0,.84,1l5.72.59a.94.94,0,0,0,1-.84,1,1,0,0,0-.84-1l-1.92-.2.75-7.27a5.79,5.79,0,0,0,2.76-1,3.25,3.25,0,0,0,2,0,3.54,3.54,0,0,0,2.1-1.9,3.25,3.25,0,0,0,.18-.43,3.61,3.61,0,0,0,2-1.86A3.84,3.84,0,0,0,105.23,968.86Z" transform="translate(1.63 -538)"/><path class="cls-161" d="M98.13,960.82a.93.93,0,0,1,.77.67,1,1,0,0,0,1.2.6,1,1,0,0,0,.59-1.2,2.84,2.84,0,0,0-2.36-1.95.95.95,0,0,0-.2,1.88Z" transform="translate(1.63 -538)"/><path class="cls-162" d="M100.61,973.32a.84.84,0,0,0,.3.08.92.92,0,0,0,1-.53,2.84,2.84,0,0,0-1.11-3.68.95.95,0,1,0-.91,1.66.93.93,0,0,1,.32,1.21A1,1,0,0,0,100.61,973.32Z" transform="translate(1.63 -538)"/><path class="cls-163" d="M94.34,967.55a1,1,0,0,0,.82.72,1.13,1.13,0,0,0,.32,0,.94.94,0,0,0,.7-1.14.94.94,0,0,1,.56-1.12.94.94,0,0,0,.63-1.17,1,1,0,0,0-1.17-.64A2.84,2.84,0,0,0,94.34,967.55Z" transform="translate(1.63 -538)"/><path class="cls-164" d="M77.74,979.17a.94.94,0,0,0-1,.84l0,.34a.94.94,0,0,0,1.88.19l0-.34A.93.93,0,0,0,77.74,979.17Z" transform="translate(1.63 -538)"/><path class="cls-165" d="M57.43,986.52a.94.94,0,0,0-1,.84,1,1,0,0,0,.84,1l19.7,2.05a.94.94,0,0,0,.19-1.88Z" transform="translate(1.63 -538)"/><path class="cls-166" d="M80.65,988.94a.94.94,0,1,0-.2,1.87l1.37.15a1,1,0,0,0,1-.85.94.94,0,0,0-.84-1Z" transform="translate(1.63 -538)"/><path class="cls-167" d="M101.93,991.15l-15.27-1.59a.94.94,0,0,0-.19,1.88L101.73,993a.95.95,0,1,0,.2-1.88Z" transform="translate(1.63 -538)"/><path class="cls-168" d="M77.44,909.88a11.7,11.7,0,0,0-12,11.35c-.14,4.71,1.46,6.07,9.92,19.16a1.46,1.46,0,0,0,2.41.07c9.23-12.56,10.91-13.82,11-18.54A11.71,11.71,0,0,0,77.44,909.88Zm-.5,16.56a4.87,4.87,0,1,1,5-4.72A4.86,4.86,0,0,1,76.94,926.44Z" transform="translate(1.63 -538)"/><path class="cls-2" d="M633.14,1281.64a5.5,5.5,0,0,1,1.15-1.72c.34-.29.57-.41.71-.37l14.79,4.93-18.93,6-.87.28a2.93,2.93,0,0,0-.52.23,1.21,1.21,0,0,0-.28.27,1.36,1.36,0,0,0-.18.4l-1.19,3.57.72.24a5.72,5.72,0,0,1,.79-1.15,4.35,4.35,0,0,1,1.17-.91l17.58,5.86c.16,0,.28.32.36.78a5.74,5.74,0,0,1-.15,2l.73.25,2.3-6.9-.73-.24a5.77,5.77,0,0,1-1.13,1.7c-.33.31-.57.44-.71.39l-15-5,20.28-6.35a1.85,1.85,0,0,0,.75-.5,4.68,4.68,0,0,0,.78-1.21l-19.94-6.65c-.16,0-.27-.32-.35-.8a5.94,5.94,0,0,1,.12-2l-.72-.25-2.3,6.9Z" transform="translate(1.63 -538)"/><path class="cls-2" d="M655.86,1265a8.62,8.62,0,0,1,1.4.79,3.64,3.64,0,0,1,.48.4,2.07,2.07,0,0,1,.38.46,1.39,1.39,0,0,1,.2.51,1.08,1.08,0,0,1,0,.56l-2.35,7-2.6-4.3c-.77-1.27-1.48-2.4-2.12-3.38s-1.22-1.84-1.75-2.56a18.4,18.4,0,0,0-1.53-1.84,10.06,10.06,0,0,0-1.41-1.23,6.06,6.06,0,0,0-1.44-.72,5.87,5.87,0,0,0-2.26-.33,4.17,4.17,0,0,0-1.82.54,4.44,4.44,0,0,0-1.38,1.25,6.24,6.24,0,0,0-.92,1.8,6.79,6.79,0,0,0-.33,2.7,9.55,9.55,0,0,0,.57,2.65,7.2,7.2,0,0,0,1.22,2.14,3.57,3.57,0,0,0,1.62,1.2l.66-.29a4,4,0,0,0,.11-.7,3.57,3.57,0,0,0,0-.57c0-.18,0-.36-.09-.55s-.08-.38-.12-.6a3.67,3.67,0,0,1-1.14-.65,4.5,4.5,0,0,1-.93-1,3.66,3.66,0,0,1-.51-1.28,2.6,2.6,0,0,1,.08-1.38,3.84,3.84,0,0,1,.81-1.46,2.74,2.74,0,0,1,1.14-.79,3.5,3.5,0,0,1,1.38-.2,6,6,0,0,1,1.52.3,6.74,6.74,0,0,1,1.25.59,7.48,7.48,0,0,1,1.3,1,17.57,17.57,0,0,1,1.48,1.71q.81,1,1.83,2.55c.67,1,1.44,2.21,2.3,3.6s1.84,3,2.94,4.86l1.41-.07,3.89-11.68-4.74-1.86Z" transform="translate(1.63 -538)"/><path class="cls-2" d="M517.26,1011.14a5.62,5.62,0,0,1,1.54,1.32c.25.37.34.62.28.75l-6.62,14.12-3.55-19.41c-.07-.38-.12-.67-.17-.9a1.86,1.86,0,0,0-.16-.53.88.88,0,0,0-.23-.32,2.1,2.1,0,0,0-.36-.22l-3.35-1.57-.32.7a5.16,5.16,0,0,1,1,.9,4.32,4.32,0,0,1,.74,1.26L498.23,1024q-.11.23-.81.27a5.53,5.53,0,0,1-1.94-.36l-.33.69,6.47,3,.33-.69a5.75,5.75,0,0,1-1.54-1.31c-.25-.36-.35-.61-.29-.74l6.69-14.28,3.75,20.8a1.87,1.87,0,0,0,.4.8,4.41,4.41,0,0,0,1.09.9l8.92-19c.07-.15.35-.24.83-.26a6.05,6.05,0,0,1,1.93.34l.32-.69-6.47-3Z" transform="translate(1.63 -538)"/><path class="cls-2" d="M531.05,1032.44l5.65-12.05-.32-.83c-.38,0-.8,0-1.24.08a9.81,9.81,0,0,1-1.46,0l-13.78,9,.27.77,7.84,3.68-1.77,3.77a.38.38,0,0,1-.26.21,1.63,1.63,0,0,1-.62,0,9.23,9.23,0,0,1-1.15-.18c-.47-.1-1.08-.25-1.82-.46l-.33.69,7.72,3.62.32-.69c-.38-.3-.7-.56-.94-.78a4.88,4.88,0,0,1-.56-.56,1.27,1.27,0,0,1-.24-.39.39.39,0,0,1,0-.28l1.85-4,1.11.52c.32-.07.62-.14.88-.22a4.49,4.49,0,0,0,1-.48l-.19-.67Zm-2.21-1-5.87-2.75,10.24-6.56Z" transform="translate(1.63 -538)"/><path class="cls-2" d="M20.57,792.51a5.53,5.53,0,0,1,1.53,1.33c.24.37.33.62.27.74l-6.74,14-3.36-19.32c-.07-.37-.12-.67-.16-.89a2.84,2.84,0,0,0-.16-.53,1,1,0,0,0-.23-.32,2.1,2.1,0,0,0-.36-.22L8,785.68l-.33.68a5.54,5.54,0,0,1,1,.91,4.09,4.09,0,0,1,.73,1.26l-8,16.61c-.07.14-.34.23-.81.25A5.54,5.54,0,0,1-1.3,805l-.33.68,6.43,3.07.33-.68a6,6,0,0,1-1.52-1.31c-.25-.37-.35-.62-.29-.75l6.82-14.12,3.55,20.7a1.79,1.79,0,0,0,.4.79,4.34,4.34,0,0,0,1.08.91l9.09-18.83c.07-.15.34-.23.82-.25a6.12,6.12,0,0,1,1.93.35l.33-.68-6.44-3.07Z" transform="translate(1.63 -538)"/><path class="cls-2" d="M34.16,813.8l5.75-11.92-.31-.83c-.38,0-.8,0-1.24.07a11.48,11.48,0,0,1-1.46,0L23.05,810l.26.77,7.81,3.73-1.81,3.73a.44.44,0,0,1-.26.21,1.68,1.68,0,0,1-.62,0,8.9,8.9,0,0,1-1.14-.19c-.48-.11-1.09-.26-1.83-.47l-.32.68,7.67,3.67.33-.69c-.38-.3-.69-.56-.94-.78a4.68,4.68,0,0,1-.55-.56,1.27,1.27,0,0,1-.24-.39.39.39,0,0,1,0-.28l1.88-3.9,1.1.52.89-.21a4.88,4.88,0,0,0,1-.47l-.18-.67Zm-2.2-1L26.12,810l10.29-6.43Z" transform="translate(1.63 -538)"/></svg>