<svg id="Layer_1" data-name="Layer 1" xmlns="http://www.w3.org/2000/svg" xmlns:xlink="http://www.w3.org/1999/xlink" viewBox="0 0 1366 768"><defs><style>.cls-1,.cls-157{fill:#232136;}.cls-2{fill:#2e2d4c;}.cls-3{opacity:0.9;fill:url(#linear-gradient);}.cls-4{fill:url(#linear-gradient-2);}.cls-5{fill:url(#linear-gradient-3);}.cls-6{fill:url(#linear-gradient-4);}.cls-7{fill:url(#linear-gradient-5);}.cls-8{fill:url(#linear-gradient-6);}.cls-9{fill:url(#linear-gradient-7);}.cls-10{fill:url(#linear-gradient-8);}.cls-11{fill:url(#linear-gradient-9);}.cls-12{fill:url(#linear-gradient-10);}.cls-13{fill:url(#linear-gradient-11);}.cls-14{fill:url(#linear-gradient-12);}.cls-15{fill:url(#linear-gradient-13);}.cls-16{fill:url(#linear-gradient-14);}.cls-17{fill:url(#linear-gradient-15);}.cls-18{fill:url(#linear-gradient-16);}.cls-19{fill:url(#linear-gradient-17);}.cls-20{fill:url(#linear-gradient-18);}.cls-21{fill:url(#linear-gradient-19);}.cls-22{fill:url(#linear-gradient-20);}.cls-23{fill:url(#linear-gradient-21);}.cls-24{fill:url(#linear-gradient-22);}.cls-25{fill:url(#linear-gradient-23);}.cls-26{fill:url(#linear-gradient-24);}.cls-27{fill:url(#linear-gradient-25);}.cls-28{fill:url(#linear-gradient-26);}.cls-29{fill:url(#linear-gradient-27);}.cls-30{fill:url(#linear-gradient-28);}.cls-31{fill:url(#linear-gradient-29);}.cls-32{fill:url(#linear-gradient-30);}.cls-33{fill:url(#linear-gradient-31);}.cls-34{fill:url(#linear-gradient-32);}.cls-35{fill:url(#linear-gradient-33);}.cls-36{fill:url(#linear-gradient-34);}.cls-37{fill:url(#linear-gradient-35);}.cls-38{fill:url(#linear-gradient-36);}.cls-39{fill:url(#linear-gradient-37);}.cls-40{fill:url(#linear-gradient-38);}.cls-41{fill:url(#linear-gradient-39);}.cls-42{fill:url(#linear-gradient-40);}.cls-43{fill:url(#linear-gradient-41);}.cls-44{fill:url(#linear-gradient-42);}.cls-45{fill:url(#linear-gradient-43);}.cls-46{fill:url(#linear-gradient-44);}.cls-47{fill:url(#linear-gradient-45);}.cls-48{fill:url(#linear-gradient-46);}.cls-49{fill:url(#linear-gradient-47);}.cls-50{fill:url(#linear-gradient-48);}.cls-51{fill:url(#linear-gradient-49);}.cls-52{fill:url(#linear-gradient-50);}.cls-53{fill:url(#linear-gradient-51);}.cls-54{fill:url(#linear-gradient-52);}.cls-55{fill:url(#linear-gradient-53);}.cls-56{fill:url(#linear-gradient-54);}.cls-57{fill:url(#linear-gradient-55);}.cls-58{fill:url(#linear-gradient-56);}.cls-59{fill:url(#linear-gradient-57);}.cls-60{fill:url(#linear-gradient-58);}.cls-61{fill:url(#linear-gradient-59);}.cls-62{fill:url(#linear-gradient-60);}.cls-63{fill:url(#linear-gradient-61);}.cls-64{fill:url(#linear-gradient-62);}.cls-65{fill:url(#linear-gradient-63);}.cls-66{fill:url(#linear-gradient-64);}.cls-67{fill:url(#linear-gradient-65);}.cls-68{fill:url(#linear-gradient-66);}.cls-69{fill:url(#linear-gradient-67);}.cls-70{fill:url(#linear-gradient-68);}.cls-71{fill:url(#linear-gradient-69);}.cls-72{fill:url(#linear-gradient-70);}.cls-73{fill:url(#linear-gradient-71);}.cls-74{fill:url(#linear-gradient-72);}.cls-75{fill:url(#linear-gradient-73);}.cls-76{fill:url(#linear-gradient-74);}.cls-77{fill:url(#linear-gradient-75);}.cls-78{fill:url(#linear-gradient-76);}.cls-79{fill:url(#linear-gradient-77);}.cls-80{fill:url(#linear-gradient-78);}.cls-81{fill:url(#linear-gradient-79);}.cls-82{fill:url(#linear-gradient-80);}.cls-83{fill:url(#linear-gradient-81);}.cls-84{fill:url(#linear-gradient-82);}.cls-85{fill:url(#linear-gradient-83);}.cls-86{fill:url(#linear-gradient-84);}.cls-87{fill:url(#linear-gradient-85);}.cls-88{fill:url(#linear-gradient-86);}.cls-89{fill:url(#linear-gradient-87);}.cls-90{fill:url(#linear-gradient-88);}.cls-91{fill:url(#linear-gradient-89);}.cls-92{fill:url(#linear-gradient-90);}.cls-93{fill:url(#linear-gradient-91);}.cls-94{fill:url(#linear-gradient-92);}.cls-95{fill:url(#linear-gradient-93);}.cls-96{fill:url(#linear-gradient-94);}.cls-97{fill:url(#linear-gradient-95);}.cls-98{fill:url(#linear-gradient-96);}.cls-99{fill:url(#linear-gradient-97);}.cls-100{fill:url(#linear-gradient-98);}.cls-101{fill:url(#linear-gradient-99);}.cls-102{fill:url(#linear-gradient-100);}.cls-103{fill:url(#linear-gradient-101);}.cls-104{fill:url(#linear-gradient-102);}.cls-105{fill:url(#linear-gradient-103);}.cls-106{fill:url(#linear-gradient-104);}.cls-107{fill:url(#linear-gradient-105);}.cls-108{fill:url(#linear-gradient-106);}.cls-109{fill:url(#linear-gradient-107);}.cls-110{fill:url(#linear-gradient-108);}.cls-111{fill:url(#linear-gradient-109);}.cls-112{fill:url(#linear-gradient-110);}.cls-113{fill:url(#linear-gradient-111);}.cls-114{fill:url(#linear-gradient-112);}.cls-115{fill:url(#linear-gradient-113);}.cls-116{fill:url(#linear-gradient-114);}.cls-117{fill:url(#linear-gradient-115);}.cls-118{fill:url(#linear-gradient-116);}.cls-119{fill:url(#linear-gradient-117);}.cls-120{fill:url(#linear-gradient-118);}.cls-121{fill:url(#linear-gradient-119);}.cls-122{fill:url(#linear-gradient-120);}.cls-123{fill:url(#linear-gradient-121);}.cls-124{fill:url(#linear-gradient-122);}.cls-125{fill:url(#linear-gradient-123);}.cls-126{fill:url(#linear-gradient-124);}.cls-127{fill:url(#linear-gradient-125);}.cls-128{fill:url(#linear-gradient-126);}.cls-129{fill:url(#linear-gradient-127);}.cls-130{fill:url(#linear-gradient-128);}.cls-131{fill:url(#linear-gradient-129);}.cls-132{fill:url(#linear-gradient-130);}.cls-133{fill:url(#linear-gradient-131);}.cls-134{fill:url(#linear-gradient-132);}.cls-135{fill:url(#linear-gradient-133);}.cls-136{fill:url(#linear-gradient-134);}.cls-137{fill:url(#linear-gradient-135);}.cls-138{fill:url(#linear-gradient-136);}.cls-139{fill:url(#linear-gradient-137);}.cls-140{fill:url(#linear-gradient-138);}.cls-141{fill:url(#linear-gradient-139);}.cls-142{fill:url(#linear-gradient-140);}.cls-143{fill:url(#linear-gradient-141);}.cls-144{fill:url(#linear-gradient-142);}.cls-145{fill:url(#linear-gradient-143);}.cls-146{fill:url(#linear-gradient-144);}.cls-147{fill:url(#linear-gradient-145);}.cls-148{fill:url(#linear-gradient-146);}.cls-149{fill:url(#linear-gradient-147);}.cls-150{fill:url(#linear-gradient-148);}.cls-151{fill:url(#linear-gradient-149);}.cls-152{fill:url(#linear-gradient-150);}.cls-153{fill:url(#linear-gradient-151);}.cls-154{fill:url(#linear-gradient-152);}.cls-155{fill:url(#linear-gradient-153);}.cls-156{fill:url(#linear-gradient-154);}.cls-157{stroke:#66669e;stroke-miterlimit:10;}.cls-158{fill:url(#linear-gradient-155);}.cls-159{fill:url(#linear-gradient-156);}.cls-160{fill:url(#linear-gradient-157);}.cls-161{fill:url(#linear-gradient-158);}.cls-162{fill:url(#linear-gradient-159);}.cls-163{fill:url(#linear-gradient-160);}.cls-164{fill:url(#linear-gradient-161);}.cls-165{fill:url(#linear-gradient-162);}.cls-166{fill:url(#linear-gradient-163);}.cls-167{fill:url(#linear-gradient-164);}.cls-168{fill:#b27824;}</style><linearGradient id="linear-gradient" x1="347.98" y1="349.88" x2="840.4" y2="694.13" gradientUnits="userSpaceOnUse"><stop offset="0" stop-color="#232136" stop-opacity="0"/><stop offset="0.2" stop-color="#2e2e3d"/></linearGradient><linearGradient id="linear-gradient-2" x1="725.5" y1="689.34" x2="728.36" y2="689.34" gradientUnits="userSpaceOnUse"><stop offset="0" stop-color="#66669e"/><stop offset="1" stop-color="#2b3990"/></linearGradient><linearGradient id="linear-gradient-3" x1="715.83" y1="689.1" x2="722.24" y2="689.1" xlink:href="#linear-gradient-2"/><linearGradient id="linear-gradient-4" x1="725.32" y1="679.86" x2="729.04" y2="679.86" xlink:href="#linear-gradient-2"/><linearGradient id="linear-gradient-5" x1="727.2" y1="679.83" x2="729.14" y2="679.83" xlink:href="#linear-gradient-2"/><linearGradient id="linear-gradient-6" x1="711.04" y1="676.22" x2="719.09" y2="676.22" xlink:href="#linear-gradient-2"/><linearGradient id="linear-gradient-7" x1="713.23" y1="677.05" x2="718.35" y2="677.05" xlink:href="#linear-gradient-2"/><linearGradient id="linear-gradient-8" x1="716.09" y1="677.98" x2="721.16" y2="677.98" xlink:href="#linear-gradient-2"/><linearGradient id="linear-gradient-9" x1="718.15" y1="678.28" x2="719.87" y2="678.28" xlink:href="#linear-gradient-2"/><linearGradient id="linear-gradient-10" x1="706.1" y1="689.21" x2="711.34" y2="689.21" xlink:href="#linear-gradient-2"/><linearGradient id="linear-gradient-11" x1="708.5" y1="689.25" x2="711.32" y2="689.25" xlink:href="#linear-gradient-2"/><linearGradient id="linear-gradient-12" x1="705.67" y1="684.61" x2="708.67" y2="684.61" xlink:href="#linear-gradient-2"/><linearGradient id="linear-gradient-13" x1="727.77" y1="690.84" x2="729.46" y2="690.84" xlink:href="#linear-gradient-2"/><linearGradient id="linear-gradient-14" x1="704.76" y1="682.15" x2="734" y2="682.15" xlink:href="#linear-gradient-2"/><linearGradient id="linear-gradient-15" x1="817.77" y1="423.5" x2="850.53" y2="420.62" xlink:href="#linear-gradient-2"/><linearGradient id="linear-gradient-16" x1="816.17" y1="405.32" x2="848.93" y2="402.44" gradientTransform="translate(877.91 -527.85) rotate(66.69)" xlink:href="#linear-gradient-2"/><linearGradient id="linear-gradient-17" x1="816.07" y1="404.09" x2="848.83" y2="401.21" gradientTransform="matrix(0.4, 0.92, -0.92, 0.4, 875.51, -526.28)" xlink:href="#linear-gradient-2"/><linearGradient id="linear-gradient-18" x1="816.28" y1="406.55" x2="849.04" y2="403.67" gradientTransform="translate(880.29 -529.42) rotate(66.69)" xlink:href="#linear-gradient-2"/><linearGradient id="linear-gradient-19" x1="816.39" y1="407.78" x2="849.15" y2="404.9" gradientTransform="translate(882.69 -531) rotate(66.69)" xlink:href="#linear-gradient-2"/><linearGradient id="linear-gradient-20" x1="816.5" y1="409.01" x2="849.26" y2="406.13" gradientTransform="translate(885.07 -532.57) rotate(66.69)" xlink:href="#linear-gradient-2"/><linearGradient id="linear-gradient-21" x1="816.61" y1="410.24" x2="849.37" y2="407.36" gradientTransform="translate(887.46 -534.13) rotate(66.69)" xlink:href="#linear-gradient-2"/><linearGradient id="linear-gradient-22" x1="816.51" y1="409.12" x2="849.27" y2="406.24" gradientTransform="matrix(0.4, 0.92, -0.92, 0.4, 880.51, -523.88)" xlink:href="#linear-gradient-2"/><linearGradient id="linear-gradient-23" x1="816.4" y1="407.89" x2="849.16" y2="405.01" gradientTransform="translate(878.14 -522.31) rotate(66.69)" xlink:href="#linear-gradient-2"/><linearGradient id="linear-gradient-24" x1="816.61" y1="410.34" x2="849.37" y2="407.46" gradientTransform="translate(882.88 -525.45) rotate(66.68)" xlink:href="#linear-gradient-2"/><linearGradient id="linear-gradient-25" x1="816.72" y1="411.58" x2="849.48" y2="408.7" gradientTransform="translate(885.31 -527.02) rotate(66.69)" xlink:href="#linear-gradient-2"/><linearGradient id="linear-gradient-26" x1="816.83" y1="412.8" x2="849.59" y2="409.92" gradientTransform="matrix(0.4, 0.92, -0.92, 0.4, 887.67, -528.59)" xlink:href="#linear-gradient-2"/><linearGradient id="linear-gradient-27" x1="816.94" y1="414.03" x2="849.7" y2="411.15" gradientTransform="matrix(0.4, 0.92, -0.92, 0.4, 890.06, -530.16)" xlink:href="#linear-gradient-2"/><linearGradient id="linear-gradient-28" x1="816.84" y1="412.91" x2="849.6" y2="410.03" gradientTransform="matrix(0.4, 0.92, -0.92, 0.4, 883.13, -519.9)" xlink:href="#linear-gradient-2"/><linearGradient id="linear-gradient-29" x1="816.73" y1="411.69" x2="849.49" y2="408.81" gradientTransform="translate(880.76 -518.33) rotate(66.69)" xlink:href="#linear-gradient-2"/><linearGradient id="linear-gradient-30" x1="816.95" y1="414.14" x2="849.71" y2="411.26" gradientTransform="translate(885.5 -521.47) rotate(66.68)" xlink:href="#linear-gradient-2"/><linearGradient id="linear-gradient-31" x1="817.06" y1="415.38" x2="849.82" y2="412.5" gradientTransform="translate(887.93 -523.04) rotate(66.69)" xlink:href="#linear-gradient-2"/><linearGradient id="linear-gradient-32" x1="817.17" y1="416.6" x2="849.93" y2="413.72" gradientTransform="matrix(0.4, 0.92, -0.92, 0.4, 890.29, -524.61)" xlink:href="#linear-gradient-2"/><linearGradient id="linear-gradient-33" x1="817.27" y1="417.83" x2="850.03" y2="414.95" gradientTransform="matrix(0.4, 0.92, -0.92, 0.4, 892.68, -526.18)" xlink:href="#linear-gradient-2"/><linearGradient id="linear-gradient-34" x1="817.36" y1="418.77" x2="850.12" y2="415.89" gradientTransform="matrix(0.4, 0.92, -0.92, 0.4, 896.4, -530.92)" xlink:href="#linear-gradient-2"/><linearGradient id="linear-gradient-35" x1="817.79" y1="423.74" x2="850.55" y2="420.86" gradientTransform="translate(900.34 -526.66) rotate(66.69)" xlink:href="#linear-gradient-2"/><linearGradient id="linear-gradient-36" x1="817.9" y1="424.97" x2="850.66" y2="422.09" gradientTransform="translate(902.75 -528.23) rotate(66.69)" xlink:href="#linear-gradient-2"/><linearGradient id="linear-gradient-37" x1="817.99" y1="426.02" x2="850.75" y2="423.14" gradientTransform="translate(901.91 -524.28) rotate(66.69)" xlink:href="#linear-gradient-2"/><linearGradient id="linear-gradient-38" x1="818.1" y1="427.25" x2="850.86" y2="424.37" gradientTransform="translate(904.32 -525.85) rotate(66.69)" xlink:href="#linear-gradient-2"/><linearGradient id="linear-gradient-39" x1="818.19" y1="428.29" x2="850.95" y2="425.41" gradientTransform="translate(903.48 -521.89) rotate(66.69)" xlink:href="#linear-gradient-2"/><linearGradient id="linear-gradient-40" x1="818.3" y1="429.52" x2="851.06" y2="426.64" gradientTransform="translate(905.86 -523.47) rotate(66.68)" xlink:href="#linear-gradient-2"/><linearGradient id="linear-gradient-41" x1="818.39" y1="430.57" x2="851.15" y2="427.69" gradientTransform="translate(905.05 -519.51) rotate(66.69)" xlink:href="#linear-gradient-2"/><linearGradient id="linear-gradient-42" x1="818.5" y1="431.8" x2="851.26" y2="428.92" gradientTransform="translate(907.43 -521.08) rotate(66.68)" xlink:href="#linear-gradient-2"/><linearGradient id="linear-gradient-43" x1="818.59" y1="432.86" x2="851.35" y2="429.98" gradientTransform="translate(906.63 -517.11) rotate(66.69)" xlink:href="#linear-gradient-2"/><linearGradient id="linear-gradient-44" x1="818.7" y1="434.09" x2="851.46" y2="431.21" gradientTransform="translate(909.03 -518.68) rotate(66.69)" xlink:href="#linear-gradient-2"/><linearGradient id="linear-gradient-45" x1="818.79" y1="435.13" x2="851.55" y2="432.25" gradientTransform="translate(908.2 -514.73) rotate(66.69)" xlink:href="#linear-gradient-2"/><linearGradient id="linear-gradient-46" x1="818.9" y1="436.36" x2="851.66" y2="433.48" gradientTransform="translate(910.62 -516.3) rotate(66.69)" xlink:href="#linear-gradient-2"/><linearGradient id="linear-gradient-47" x1="818.99" y1="437.41" x2="851.75" y2="434.53" gradientTransform="translate(909.76 -512.34) rotate(66.69)" xlink:href="#linear-gradient-2"/><linearGradient id="linear-gradient-48" x1="819.1" y1="438.64" x2="851.86" y2="435.76" gradientTransform="translate(912.17 -513.91) rotate(66.69)" xlink:href="#linear-gradient-2"/><linearGradient id="linear-gradient-49" x1="819.19" y1="439.69" x2="851.95" y2="436.81" gradientTransform="translate(911.33 -509.96) rotate(66.69)" xlink:href="#linear-gradient-2"/><linearGradient id="linear-gradient-50" x1="819.3" y1="440.92" x2="852.06" y2="438.04" gradientTransform="translate(913.71 -511.53) rotate(66.68)" xlink:href="#linear-gradient-2"/><linearGradient id="linear-gradient-51" x1="819.4" y1="441.97" x2="852.16" y2="439.09" gradientTransform="translate(912.91 -507.57) rotate(66.69)" xlink:href="#linear-gradient-2"/><linearGradient id="linear-gradient-52" x1="819.5" y1="443.2" x2="852.26" y2="440.32" gradientTransform="translate(915.31 -509.14) rotate(66.69)" xlink:href="#linear-gradient-2"/><linearGradient id="linear-gradient-53" x1="816.38" y1="407.71" x2="849.14" y2="404.83" gradientTransform="matrix(0.4, 0.92, -0.92, 0.4, 874.92, -516.78)" xlink:href="#linear-gradient-2"/><linearGradient id="linear-gradient-54" x1="816.75" y1="411.86" x2="849.51" y2="408.98" gradientTransform="translate(877.27 -511.48) rotate(66.69)" xlink:href="#linear-gradient-2"/><linearGradient id="linear-gradient-55" x1="816.64" y1="410.63" x2="849.4" y2="407.75" gradientTransform="matrix(0.4, 0.92, -0.92, 0.4, 874.88, -509.91)" xlink:href="#linear-gradient-2"/><linearGradient id="linear-gradient-56" x1="816.95" y1="414.14" x2="849.71" y2="411.26" gradientTransform="translate(878.84 -509.1) rotate(66.69)" xlink:href="#linear-gradient-2"/><linearGradient id="linear-gradient-57" x1="816.84" y1="412.91" x2="849.6" y2="410.03" gradientTransform="translate(876.44 -507.52) rotate(66.68)" xlink:href="#linear-gradient-2"/><linearGradient id="linear-gradient-58" x1="817.15" y1="416.41" x2="849.91" y2="413.53" gradientTransform="translate(880.41 -506.71) rotate(66.69)" xlink:href="#linear-gradient-2"/><linearGradient id="linear-gradient-59" x1="817.04" y1="415.18" x2="849.8" y2="412.3" gradientTransform="translate(878 -505.14) rotate(66.68)" xlink:href="#linear-gradient-2"/><linearGradient id="linear-gradient-60" x1="817.35" y1="418.69" x2="850.11" y2="415.81" gradientTransform="translate(881.98 -504.33) rotate(66.69)" xlink:href="#linear-gradient-2"/><linearGradient id="linear-gradient-61" x1="817.24" y1="417.46" x2="850" y2="414.58" gradientTransform="translate(879.6 -502.75) rotate(66.69)" xlink:href="#linear-gradient-2"/><linearGradient id="linear-gradient-62" x1="817.55" y1="420.98" x2="850.31" y2="418.1" gradientTransform="translate(883.55 -501.93) rotate(66.69)" xlink:href="#linear-gradient-2"/><linearGradient id="linear-gradient-63" x1="817.44" y1="419.75" x2="850.2" y2="416.87" gradientTransform="translate(881.15 -500.36) rotate(66.68)" xlink:href="#linear-gradient-2"/><linearGradient id="linear-gradient-64" x1="817.75" y1="423.25" x2="850.51" y2="420.37" gradientTransform="translate(885.12 -499.55) rotate(66.69)" xlink:href="#linear-gradient-2"/><linearGradient id="linear-gradient-65" x1="817.64" y1="422.02" x2="850.4" y2="419.14" gradientTransform="matrix(0.4, 0.92, -0.92, 0.4, 882.73, -497.97)" xlink:href="#linear-gradient-2"/><linearGradient id="linear-gradient-66" x1="817.95" y1="425.53" x2="850.71" y2="422.65" gradientTransform="translate(886.69 -497.16) rotate(66.69)" xlink:href="#linear-gradient-2"/><linearGradient id="linear-gradient-67" x1="817.84" y1="424.3" x2="850.6" y2="421.42" gradientTransform="translate(884.29 -495.59) rotate(66.68)" xlink:href="#linear-gradient-2"/><linearGradient id="linear-gradient-68" x1="818.15" y1="427.81" x2="850.91" y2="424.93" gradientTransform="translate(888.26 -494.78) rotate(66.69)" xlink:href="#linear-gradient-2"/><linearGradient id="linear-gradient-69" x1="818.04" y1="426.58" x2="850.8" y2="423.7" gradientTransform="translate(885.86 -493.21) rotate(66.68)" xlink:href="#linear-gradient-2"/><linearGradient id="linear-gradient-70" x1="818.35" y1="430.09" x2="851.11" y2="427.21" gradientTransform="translate(889.83 -492.39) rotate(66.69)" xlink:href="#linear-gradient-2"/><linearGradient id="linear-gradient-71" x1="818.24" y1="428.86" x2="851" y2="425.98" gradientTransform="translate(887.46 -490.81) rotate(66.69)" xlink:href="#linear-gradient-2"/><linearGradient id="linear-gradient-72" x1="817.17" y1="416.71" x2="849.93" y2="413.83" gradientTransform="translate(885.76 -515.92) rotate(66.69)" xlink:href="#linear-gradient-2"/><linearGradient id="linear-gradient-73" x1="817.07" y1="415.49" x2="849.83" y2="412.61" gradientTransform="matrix(0.4, 0.92, -0.92, 0.4, 883.36, -514.35)" xlink:href="#linear-gradient-2"/><linearGradient id="linear-gradient-74" x1="817.28" y1="417.94" x2="850.04" y2="415.06" gradientTransform="translate(888.15 -517.49) rotate(66.69)" xlink:href="#linear-gradient-2"/><linearGradient id="linear-gradient-75" x1="817.39" y1="419.18" x2="850.15" y2="416.3" gradientTransform="translate(890.54 -519.06) rotate(66.69)" xlink:href="#linear-gradient-2"/><linearGradient id="linear-gradient-76" x1="817.5" y1="420.4" x2="850.26" y2="417.52" gradientTransform="matrix(0.4, 0.92, -0.92, 0.4, 892.91, -520.63)" xlink:href="#linear-gradient-2"/><linearGradient id="linear-gradient-77" x1="817.61" y1="421.63" x2="850.37" y2="418.75" gradientTransform="translate(895.31 -522.2) rotate(66.69)" xlink:href="#linear-gradient-2"/><linearGradient id="linear-gradient-78" x1="817.51" y1="420.51" x2="850.27" y2="417.63" gradientTransform="matrix(0.4, 0.92, -0.92, 0.4, 888.36, -511.94)" xlink:href="#linear-gradient-2"/><linearGradient id="linear-gradient-79" x1="817.4" y1="419.28" x2="850.16" y2="416.4" gradientTransform="translate(885.99 -510.37) rotate(66.69)" xlink:href="#linear-gradient-2"/><linearGradient id="linear-gradient-80" x1="817.62" y1="421.74" x2="850.38" y2="418.86" gradientTransform="translate(890.73 -513.51) rotate(66.68)" xlink:href="#linear-gradient-2"/><linearGradient id="linear-gradient-81" x1="817.72" y1="422.97" x2="850.48" y2="420.09" gradientTransform="translate(893.17 -515.09) rotate(66.69)" xlink:href="#linear-gradient-2"/><linearGradient id="linear-gradient-82" x1="817.83" y1="424.2" x2="850.59" y2="421.32" gradientTransform="matrix(0.4, 0.92, -0.92, 0.4, 895.53, -516.66)" xlink:href="#linear-gradient-2"/><linearGradient id="linear-gradient-83" x1="817.94" y1="425.43" x2="850.7" y2="422.55" gradientTransform="matrix(0.4, 0.92, -0.92, 0.4, 897.91, -518.23)" xlink:href="#linear-gradient-2"/><linearGradient id="linear-gradient-84" x1="817.84" y1="424.31" x2="850.6" y2="421.43" gradientTransform="matrix(0.4, 0.92, -0.92, 0.4, 890.98, -507.96)" xlink:href="#linear-gradient-2"/><linearGradient id="linear-gradient-85" x1="817.73" y1="423.08" x2="850.49" y2="420.2" gradientTransform="matrix(0.4, 0.92, -0.92, 0.4, 888.6, -506.4)" xlink:href="#linear-gradient-2"/><linearGradient id="linear-gradient-86" x1="817.95" y1="425.54" x2="850.71" y2="422.66" gradientTransform="translate(893.35 -509.53) rotate(66.68)" xlink:href="#linear-gradient-2"/><linearGradient id="linear-gradient-87" x1="818.06" y1="426.77" x2="850.82" y2="423.89" gradientTransform="translate(895.78 -511.11) rotate(66.69)" xlink:href="#linear-gradient-2"/><linearGradient id="linear-gradient-88" x1="818.17" y1="428" x2="850.93" y2="425.12" gradientTransform="matrix(0.4, 0.92, -0.92, 0.4, 898.14, -512.68)" xlink:href="#linear-gradient-2"/><linearGradient id="linear-gradient-89" x1="818.27" y1="429.23" x2="851.03" y2="426.35" gradientTransform="matrix(0.4, 0.92, -0.92, 0.4, 900.53, -514.25)" xlink:href="#linear-gradient-2"/><linearGradient id="linear-gradient-90" x1="818.18" y1="428.11" x2="850.94" y2="425.23" gradientTransform="translate(893.61 -503.98) rotate(66.69)" xlink:href="#linear-gradient-2"/><linearGradient id="linear-gradient-91" x1="818.07" y1="426.88" x2="850.83" y2="424" gradientTransform="matrix(0.4, 0.92, -0.92, 0.4, 891.21, -502.42)" xlink:href="#linear-gradient-2"/><linearGradient id="linear-gradient-92" x1="818.28" y1="429.34" x2="851.04" y2="426.46" gradientTransform="translate(895.99 -505.55) rotate(66.69)" xlink:href="#linear-gradient-2"/><linearGradient id="linear-gradient-93" x1="818.39" y1="430.57" x2="851.15" y2="427.69" gradientTransform="translate(898.39 -507.13) rotate(66.69)" xlink:href="#linear-gradient-2"/><linearGradient id="linear-gradient-94" x1="818.5" y1="431.8" x2="851.26" y2="428.92" gradientTransform="translate(900.77 -508.7) rotate(66.69)" xlink:href="#linear-gradient-2"/><linearGradient id="linear-gradient-95" x1="818.61" y1="433.03" x2="851.37" y2="430.15" gradientTransform="matrix(0.4, 0.92, -0.92, 0.4, 903.15, -510.27)" xlink:href="#linear-gradient-2"/><linearGradient id="linear-gradient-96" x1="1208.55" y1="498.18" x2="1258.79" y2="462.34" gradientTransform="translate(356.48 -472.56) rotate(27.42)" xlink:href="#linear-gradient-2"/><linearGradient id="linear-gradient-97" x1="1197.77" y1="483.07" x2="1248.01" y2="447.23" gradientTransform="translate(356.48 -472.56) rotate(27.42)" xlink:href="#linear-gradient-2"/><linearGradient id="linear-gradient-98" x1="1205.14" y1="493.4" x2="1255.38" y2="457.56" gradientTransform="translate(356.48 -472.56) rotate(27.42)" xlink:href="#linear-gradient-2"/><linearGradient id="linear-gradient-99" x1="1205.05" y1="493.27" x2="1255.29" y2="457.43" gradientTransform="translate(356.48 -472.56) rotate(27.42)" xlink:href="#linear-gradient-2"/><linearGradient id="linear-gradient-100" x1="681.21" y1="324.73" x2="721.99" y2="324.73" gradientTransform="translate(163.96 -202.34) rotate(21.08)" xlink:href="#linear-gradient-2"/><linearGradient id="linear-gradient-101" x1="696.5" y1="311.76" x2="698.35" y2="311.76" gradientTransform="translate(1014.38 -358.05) rotate(90)" xlink:href="#linear-gradient-2"/><linearGradient id="linear-gradient-102" x1="699.28" y1="311.76" x2="701.13" y2="311.76" gradientTransform="translate(1016.97 -359.83) rotate(90)" xlink:href="#linear-gradient-2"/><linearGradient id="linear-gradient-103" x1="696.5" y1="316.39" x2="698.35" y2="316.39" gradientTransform="translate(1017.34 -353.73) rotate(90)" xlink:href="#linear-gradient-2"/><linearGradient id="linear-gradient-104" x1="699.28" y1="316.39" x2="701.13" y2="316.39" gradientTransform="translate(1019.93 -355.51) rotate(90)" xlink:href="#linear-gradient-2"/><linearGradient id="linear-gradient-105" x1="696.5" y1="321.03" x2="698.35" y2="321.03" gradientTransform="translate(1020.32 -349.4) rotate(90)" xlink:href="#linear-gradient-2"/><linearGradient id="linear-gradient-106" x1="699.28" y1="321.03" x2="701.13" y2="321.03" gradientTransform="translate(1022.91 -351.18) rotate(90)" xlink:href="#linear-gradient-2"/><linearGradient id="linear-gradient-107" x1="696.5" y1="325.66" x2="698.35" y2="325.66" gradientTransform="translate(1023.28 -345.08) rotate(90)" xlink:href="#linear-gradient-2"/><linearGradient id="linear-gradient-108" x1="689.1" y1="321.03" x2="690.95" y2="321.03" gradientTransform="translate(1013.41 -344.66) rotate(90)" xlink:href="#linear-gradient-2"/><linearGradient id="linear-gradient-109" x1="689.1" y1="325.66" x2="690.95" y2="325.66" gradientTransform="translate(1016.37 -340.34) rotate(90)" xlink:href="#linear-gradient-2"/><linearGradient id="linear-gradient-110" x1="689.1" y1="330.29" x2="690.95" y2="330.29" gradientTransform="translate(1019.34 -336.02) rotate(90)" xlink:href="#linear-gradient-2"/><linearGradient id="linear-gradient-111" x1="689.1" y1="334.93" x2="690.95" y2="334.93" gradientTransform="translate(1022.31 -331.69) rotate(90)" xlink:href="#linear-gradient-2"/><linearGradient id="linear-gradient-112" x1="699.28" y1="325.66" x2="701.13" y2="325.66" gradientTransform="translate(1025.87 -346.86) rotate(90)" xlink:href="#linear-gradient-2"/><linearGradient id="linear-gradient-113" x1="706.7" y1="318.71" x2="708.55" y2="318.71" gradientTransform="translate(1028.34 -358.1) rotate(90)" xlink:href="#linear-gradient-2"/><linearGradient id="linear-gradient-114" x1="709.48" y1="318.71" x2="711.33" y2="318.71" gradientTransform="translate(1030.93 -359.88) rotate(90)" xlink:href="#linear-gradient-2"/><linearGradient id="linear-gradient-115" x1="712.25" y1="318.71" x2="714.1" y2="318.71" gradientTransform="translate(1033.53 -361.65) rotate(90)" xlink:href="#linear-gradient-2"/><linearGradient id="linear-gradient-116" x1="706.7" y1="322.42" x2="708.55" y2="322.42" gradientTransform="translate(1030.72 -354.64) rotate(90)" xlink:href="#linear-gradient-2"/><linearGradient id="linear-gradient-117" x1="709.48" y1="322.42" x2="711.33" y2="322.42" gradientTransform="translate(1033.31 -356.41) rotate(90)" xlink:href="#linear-gradient-2"/><linearGradient id="linear-gradient-118" x1="712.25" y1="322.42" x2="714.1" y2="322.42" gradientTransform="translate(1035.9 -358.19) rotate(90)" xlink:href="#linear-gradient-2"/><linearGradient id="linear-gradient-119" x1="706.7" y1="326.12" x2="708.55" y2="326.12" gradientTransform="translate(1033.09 -351.18) rotate(90)" xlink:href="#linear-gradient-2"/><linearGradient id="linear-gradient-120" x1="709.48" y1="326.12" x2="711.33" y2="326.12" gradientTransform="translate(1035.68 -352.96) rotate(90)" xlink:href="#linear-gradient-2"/><linearGradient id="linear-gradient-121" x1="712.25" y1="326.12" x2="714.1" y2="326.12" gradientTransform="translate(1038.27 -354.74) rotate(90)" xlink:href="#linear-gradient-2"/><linearGradient id="linear-gradient-122" x1="706.7" y1="329.83" x2="708.55" y2="329.83" gradientTransform="translate(1035.47 -347.72) rotate(90)" xlink:href="#linear-gradient-2"/><linearGradient id="linear-gradient-123" x1="709.48" y1="329.83" x2="711.33" y2="329.83" gradientTransform="translate(1038.06 -349.5) rotate(90)" xlink:href="#linear-gradient-2"/><linearGradient id="linear-gradient-124" x1="706.7" y1="333.54" x2="708.55" y2="333.54" gradientTransform="translate(1037.84 -344.26) rotate(90)" xlink:href="#linear-gradient-2"/><linearGradient id="linear-gradient-125" x1="696.5" y1="330.29" x2="698.35" y2="330.29" gradientTransform="translate(1026.25 -340.76) rotate(90)" xlink:href="#linear-gradient-2"/><linearGradient id="linear-gradient-126" x1="700.21" y1="339.56" x2="709.48" y2="339.56" gradientTransform="translate(1039.1 -336.86) rotate(90)" xlink:href="#linear-gradient-2"/><linearGradient id="linear-gradient-127" x1="700.21" y1="342.33" x2="709.48" y2="342.33" gradientTransform="translate(1040.87 -334.27) rotate(90)" xlink:href="#linear-gradient-2"/><linearGradient id="linear-gradient-128" x1="578.05" y1="197.24" x2="626.14" y2="153.74" gradientTransform="translate(111.95 -166.63) rotate(23.35)" xlink:href="#linear-gradient-2"/><linearGradient id="linear-gradient-129" x1="568.2" y1="186.35" x2="616.28" y2="142.85" gradientTransform="translate(111.95 -166.63) rotate(23.35)" xlink:href="#linear-gradient-2"/><linearGradient id="linear-gradient-130" x1="577.23" y1="196.33" x2="625.31" y2="152.83" gradientTransform="translate(111.95 -166.63) rotate(23.35)" xlink:href="#linear-gradient-2"/><linearGradient id="linear-gradient-131" x1="560.99" y1="178.39" x2="609.08" y2="134.88" gradientTransform="translate(111.95 -166.63) rotate(23.35)" xlink:href="#linear-gradient-2"/><linearGradient id="linear-gradient-132" x1="562.26" y1="179.79" x2="610.34" y2="136.28" gradientTransform="translate(111.95 -166.63) rotate(23.35)" xlink:href="#linear-gradient-2"/><linearGradient id="linear-gradient-133" x1="574.92" y1="193.78" x2="623" y2="150.28" gradientTransform="translate(111.95 -166.63) rotate(23.35)" xlink:href="#linear-gradient-2"/><linearGradient id="linear-gradient-134" x1="575.59" y1="194.52" x2="623.67" y2="151.02" gradientTransform="translate(111.95 -166.63) rotate(23.35)" xlink:href="#linear-gradient-2"/><linearGradient id="linear-gradient-135" x1="576.42" y1="195.44" x2="624.5" y2="151.93" gradientTransform="translate(111.95 -166.63) rotate(23.35)" xlink:href="#linear-gradient-2"/><linearGradient id="linear-gradient-136" x1="945.3" y1="399.07" x2="999" y2="349.31" gradientTransform="translate(224.19 -366.74) rotate(25.01)" xlink:href="#linear-gradient-2"/><linearGradient id="linear-gradient-137" x1="950.45" y1="404.62" x2="1004.14" y2="354.86" gradientTransform="translate(224.19 -366.74) rotate(25.01)" xlink:href="#linear-gradient-2"/><linearGradient id="linear-gradient-138" x1="955.35" y1="409.91" x2="1009.04" y2="360.15" gradientTransform="translate(224.19 -366.74) rotate(25.01)" xlink:href="#linear-gradient-2"/><linearGradient id="linear-gradient-139" x1="960.13" y1="415.08" x2="1013.83" y2="365.32" gradientTransform="translate(224.19 -366.74) rotate(25.01)" xlink:href="#linear-gradient-2"/><linearGradient id="linear-gradient-140" x1="955.23" y1="409.8" x2="1008.94" y2="360.03" gradientTransform="translate(224.19 -366.74) rotate(25.01)" xlink:href="#linear-gradient-2"/><linearGradient id="linear-gradient-141" x1="939.01" y1="392.29" x2="992.71" y2="342.52" gradientTransform="translate(224.19 -366.74) rotate(25.01)" xlink:href="#linear-gradient-2"/><linearGradient id="linear-gradient-142" x1="937.84" y1="391.02" x2="991.54" y2="341.26" gradientTransform="translate(224.19 -366.74) rotate(25.01)" xlink:href="#linear-gradient-2"/><linearGradient id="linear-gradient-143" x1="940.86" y1="394.28" x2="994.56" y2="344.51" gradientTransform="translate(224.19 -366.74) rotate(25.01)" xlink:href="#linear-gradient-2"/><linearGradient id="linear-gradient-144" x1="942.03" y1="395.54" x2="995.72" y2="345.78" gradientTransform="translate(224.19 -366.74) rotate(25.01)" xlink:href="#linear-gradient-2"/><linearGradient id="linear-gradient-145" x1="948.79" y1="402.84" x2="1002.49" y2="353.07" gradientTransform="translate(224.19 -366.74) rotate(25.01)" xlink:href="#linear-gradient-2"/><linearGradient id="linear-gradient-146" x1="945.61" y1="399.41" x2="999.31" y2="349.65" gradientTransform="translate(224.19 -366.74) rotate(25.01)" xlink:href="#linear-gradient-2"/><linearGradient id="linear-gradient-147" x1="940.99" y1="394.42" x2="994.69" y2="344.66" gradientTransform="translate(224.19 -366.74) rotate(25.01)" xlink:href="#linear-gradient-2"/><linearGradient id="linear-gradient-148" x1="949.17" y1="403.24" x2="1002.86" y2="353.48" gradientTransform="translate(224.19 -366.74) rotate(25.01)" xlink:href="#linear-gradient-2"/><linearGradient id="linear-gradient-149" x1="945.64" y1="399.44" x2="999.34" y2="349.68" gradientTransform="translate(224.19 -366.74) rotate(25.01)" xlink:href="#linear-gradient-2"/><linearGradient id="linear-gradient-150" x1="942.71" y1="396.28" x2="996.41" y2="346.52" gradientTransform="translate(224.19 -366.74) rotate(25.01)" xlink:href="#linear-gradient-2"/><linearGradient id="linear-gradient-151" x1="945.03" y1="398.78" x2="998.73" y2="349.02" gradientTransform="translate(224.19 -366.74) rotate(25.01)" xlink:href="#linear-gradient-2"/><linearGradient id="linear-gradient-152" x1="941.09" y1="394.53" x2="994.79" y2="344.77" gradientTransform="translate(224.19 -366.74) rotate(25.01)" xlink:href="#linear-gradient-2"/><linearGradient id="linear-gradient-153" x1="938.16" y1="391.37" x2="991.86" y2="341.61" gradientTransform="translate(224.19 -366.74) rotate(25.01)" xlink:href="#linear-gradient-2"/><linearGradient id="linear-gradient-154" x1="933.62" y1="386.47" x2="987.32" y2="336.7" gradientTransform="translate(224.19 -366.74) rotate(25.01)" xlink:href="#linear-gradient-2"/><linearGradient id="linear-gradient-155" x1="491.08" y1="368.18" x2="549.46" y2="327.43" gradientTransform="translate(39.9 -37.3) rotate(5.94)" xlink:href="#linear-gradient-2"/><linearGradient id="linear-gradient-156" x1="490.03" y1="366.69" x2="548.42" y2="325.93" gradientTransform="translate(39.9 -37.3) rotate(5.94)" xlink:href="#linear-gradient-2"/><linearGradient id="linear-gradient-157" x1="498" y1="378.1" x2="556.38" y2="337.36" gradientTransform="translate(39.9 -37.3) rotate(5.94)" xlink:href="#linear-gradient-2"/><linearGradient id="linear-gradient-158" x1="491.25" y1="368.42" x2="549.62" y2="327.67" gradientTransform="translate(39.9 -37.3) rotate(5.94)" xlink:href="#linear-gradient-2"/><linearGradient id="linear-gradient-159" x1="497.83" y1="377.85" x2="556.2" y2="337.1" gradientTransform="translate(39.9 -37.3) rotate(5.94)" xlink:href="#linear-gradient-2"/><linearGradient id="linear-gradient-160" x1="493.46" y1="371.59" x2="551.84" y2="330.84" gradientTransform="translate(39.9 -37.3) rotate(5.94)" xlink:href="#linear-gradient-2"/><linearGradient id="linear-gradient-161" x1="495.72" y1="374.83" x2="554.1" y2="334.08" gradientTransform="translate(39.9 -37.3) rotate(5.94)" xlink:href="#linear-gradient-2"/><linearGradient id="linear-gradient-162" x1="497.09" y1="376.79" x2="555.47" y2="336.05" gradientTransform="translate(39.9 -37.3) rotate(5.94)" xlink:href="#linear-gradient-2"/><linearGradient id="linear-gradient-163" x1="502.33" y1="384.3" x2="560.71" y2="343.55" gradientTransform="translate(39.9 -37.3) rotate(5.94)" xlink:href="#linear-gradient-2"/><linearGradient id="linear-gradient-164" x1="507.16" y1="391.22" x2="565.54" y2="350.47" gradientTransform="translate(39.9 -37.3) rotate(5.94)" xlink:href="#linear-gradient-2"/></defs><title>map</title><rect class="cls-1" width="1366" height="768"/><polygon class="cls-2" points="1366 186.54 1366 229.16 1172.69 768 1157.4 768 1366 186.54"/><polygon class="cls-2" points="1222.38 0 1057.37 459.95 1051.92 458 1216.23 0 1222.38 0"/><rect class="cls-2" x="1204.56" y="418.6" width="4.04" height="105.17" transform="translate(228.98 -381.75) rotate(19.74)"/><polygon class="cls-2" points="635.3 0 549.92 238 555.37 239.95 641.45 0 635.3 0"/><polygon class="cls-2" points="1365 591.76 1365 607.2 0 6.93 0 2 23.88 2 1365 591.76"/><path class="cls-3" d="M1003.43,770H952c-12.25-30-21.89-37.6-20.37-62.93.57-9.56,2.39-39.93,23.94-60.71,13.43-12.94,26.21-14.15,26.12-21.59-.13-10.81-27.32-23-52.83-22-13.84.51-15.79,4.46-47.77,13.69-35.77,10.33-35.15,5.92-44.52,11.48-28,16.63-16.12,45.67-43.56,68.89-24.71,20.92-58.75,18-70.28,16.31-11.21-1.68-33.81-5.06-47.49-22.45-14.51-18.43-3.94-33.48-16.53-56.62-13-24-38.1-33.26-46.67-36.61-6.52-2.55-28.86-11-55.93-5.76-42.11,8.11-48.59,40.17-82.27,40.05-14.89-.05-37.21-6.4-44.28-21.71-11.44-24.82,25.62-55,11.19-82.69-3.86-7.41-10.53-12.94-13.45-15.37-14-11.63-22.83-8.71-36.13-17.84-15.05-10.32-9.33-17.87-23.84-29.06-19-14.64-37.22-6.83-41.58-18.84-4.8-13.2,6.93-29.86,10.61-35.09,11-15.56,25.28-21.59,23.4-31.06-.05-4.93-2.53-8.92-4.59-11.51L364.65,357c1.28,3.73,4.45,13.06,3.84,21.87-.57,8.25-4.11,11-15,28.66-12,19.34-17.9,29.1-14.88,33.75,3.32,5.09,12.17-.87,25.41,3,16.86,4.9,15.59,18.38,37,34.27,14.87,11.06,19.66,7.63,34.08,19.71,4.69,3.93,15.64,13.11,21.62,25.85,16.6,35.34-16.62,73.58-.45,88.58,5.54,5.13,13.94,4.81,16.05,4.74,13.16-.5,20.5-11.66,31-20.81,16.63-14.45,35.09-18.57,48.11-21.48,33-7.38,61,2.7,73.14,7.23,11.2,4.18,30.46,11.38,47,28.82,31.87,33.53,18.37,67.56,43.9,81,18.15,9.55,43.52,1.92,58.15-9,23.28-17.35,12-37.52,35-62.6,9.73-10.63,31.81-19.34,76-36.78,33.89-13.38,41.57-14.08,47.73-14.07,20.75,0,50.59,8.21,61.86,31,5.53,11.17,4.56,21.77,3.71,31-3.5,38.21-30.34,52.84-23.79,74.76,1.38,4.62,4.74,11.22,14.13,17.74A135.22,135.22,0,0,0,1003.43,770Z" transform="translate(-1 -2)"/><path class="cls-2" d="M787.5,444.12q6.5-16.42,13.77-33.41C809,392.62,817,375.32,825,358.78l-4-2L798.36,408c-6.26-1-7.78-.81-7.94-.34s1.84,1.85,3.2,2.44a10,10,0,0,0,3.53.79q-7.92,21.42-17.46,44-6.87,16.26-13.93,31.51l-6.92-2.42-2.07,1.63-2.53-1.31c.69-1.45,1.37-2.92,2.06-4.37a55.5,55.5,0,0,1,.5-10.31,109.88,109.88,0,0,0,1.71-12.64c.07-1.25.09-2.17.1-2.28.12-4.42,11.24-32.22,43.87-105l-3.33-1.23q-19.27,44.79-38.54,89.56-2.29,7.86-4.57,15.71l-4,1a8.19,8.19,0,0,0-2.11,1.94,7.88,7.88,0,0,0-1.57,4.26q-2.9,9.17-5.8,18.34l-10.62-5.13,55.35-130.61-3.67-1-16.85,40-14-1.95.84,3.74,12.17,1.16c-1.23,3-2.46,6-3.68,8.94l-24.69-10.28c1.51-3.85,1.51-4.89,1.19-5.07-.71-.37-2.58,3.45-5.42,3.45-2.51,0-3.82-3-5.24-2.48-.62.21-1.2,1.08-1.33,3.53L761.08,398Q734,461.63,706.89,525.25l-52.3-21.31c2.54-5.74,5.93-13.47,9.9-22.66,0,0,1.45-3.35,2.89-6.71,7.48-17.48,19-45.69,20.64-49.56q15.84,5.72,31.66,11.41c.15-.85.3-1.69.44-2.54q-15.23-6.18-30.46-12.36l1.93-4.55,30.59,12.53c.27-1,.54-2.07.82-3.12l-30.49-12.06q11.29-26.79,22.6-53.6l9.68,3.67c.19-.79.38-1.59.58-2.38l-9.12-4.38q7.8-18,15.61-36l-3.5-1.1q-31.51,76.6-63,153.2-3.42,6-6.83,12l-6.23,16.46-12-3.74-7.84-4.56-6.1-1.8q10.32-23.7,20.66-47.39l17,3.92.3-2.72-15.69-4.7q5.08-10.47,10.18-21l4.33-6.44,3-9q19.4-46.51,38.77-93.05l-2.84-1.34c-1.28,3-2.56,6-3.84,9.09-.46,1.83-.93,3.66-1.39,5.5l-10.57,22.9a604.67,604.67,0,0,1-28.08,67.56q-5.22,10.71-10.63,20.78l-5.84-2.85-1.09,2.79,5.42,2.35q-11.34,26.27-22.65,52.53l-9.92-2.92L615.32,463l-4-4.8c6-11.53,12.06-23.76,17.91-36.69,8.89-19.67,16.34-38.54,22.59-56.36l8.83,1.31,3.94-1.45q12.84-29.92,25.66-59.87l-3.47-1.39q-12.22,29.44-24.45,58.91l-10.93-.91c-8.28,21.71-17.89,44.34-29,67.63q-6.6,13.77-13.35,26.76l-20.67-22.54-12.17-5.27q-11.79-17.44-23.57-34.86c.18-2.53.35-5.05.52-7.58q6.23-11.36,12.43-22.73,2.22-7.24,4.44-14.51c8.56-20,16-37.27,21.42-50s9-20.86,9.71-22.64c.5-1.2,1.35-3.32,3.31-4.06,1.21-.47,2.18-.17,3.25-.91a4.35,4.35,0,0,0,1.6-2.92c-3-4.46-7.26-6.34-9.84-5.19-1.39.63-3,2.44-2.82,4.15.11,1.22,1,1.57,1.26,2.86.26,1.55-.73,3-1.71,4.11q-7.41,17.12-14.8,34.24-8,19.35-15.93,38.7L562,359.64l-12.57,21.2a71.17,71.17,0,0,0-13.07-11.46A72,72,0,0,0,526,363.51a22.85,22.85,0,0,1-5.2-1.41c-6.94-2.81-9.81-8.12-11.36-7.3-.88.48-.69,2.61-.12,3.95,1,2.22,3.49,3.67,6.53,3.67l3.75,3.1a21.63,21.63,0,0,1,16.79,7.7q5.88,5.29,11.76,10.57l-.24,7.9.26.37L505,443l3,2,42.28-49.88q4.79,6.79,9.57,13.56,4.49,6.39,9,12.75l-19.65,15.49c.27,1,.55,2,.82,3l20.61-15.51,4.37,6.11,11.28,6.16,12,11.5L570.8,466.52c.68.8,1.36,1.62,2,2.43L600.23,451l11.52,12.58,0,22.56-67.29,47.5c-.24-.37-.49-.74-.73-1.09q-2.62-4-5.26-8a2.7,2.7,0,0,0-.22-.33c-2.82.41-3.75,1.65-4,2-1.62,2.49.13,7.4,5.38,11.18l5.9.87,66.89-47.75L622.9,494l-3.75,11.22,4.92,1.07,2.86-8.86c4,1.35,8.06,2.76,12.13,4.2q12.45,4.44,24.21,9-6.74,18.63-13.48,37.25c-.33.94-.67,1.87-1,2.81,1.88.76,3.83,1.92,4.31,3.77,1,4.06-5.89,8.11-4.66,10.83.4.89,1.73,1.71,5.47,1.74,5.45-8.2,5.3-11.85,4-13.64-1.45-2-4.47-1.87-5.33-4.06s1.38-5.31,3.34-7.41q5-14.75,10-29.51L706,527.79c-.87,2.61-1.75,5.21-2.63,7.83l2.84.08q1-2.87,2-5.75l3.23.77c.66-1,1.33-2.05,2-3.07-.89-.28-1.79-.54-2.68-.81q10-24.95,20-49.89-.88,5.25-1.78,10.5a4.87,4.87,0,0,0-.68,3.28c.4,2.29,2.73,4.18,5.8,4.52a7.43,7.43,0,0,0,6.21,2.27,7,7,0,0,0,5.76-5.09l3.44-5.45,5.19,1.4c-.1,3.29-.41,4.74-.73,5.37,0,.07-.18.33-.07.5.22.34,1.33,0,2.33-.3a4.74,4.74,0,0,1,6.89-5.44l3.71,1.33Q774,474.23,781,458.6l15.89,5.93q2.25-4.66,4.49-9.32-8.24-3.16-16.48-6.3Zm-52,48c-1.55-.44-3.1-.86-4.65-1.29q1.41-6,2.81-11.93l6.91,3.46c-.21.42-4.83,9.29-5,9.7Zm9-2c-2.45,4.37-3.8,5.1-4.59,4.94a12,12,0,0,1-2.08-1.43l.08-.17,4.9-9.46c.51-.14,1.92-.47,2.74.19C746.67,485.11,746.59,487.69,744.53,490.13Zm40.58-38.27,13,4.85-3,4.84-13-4.84,2-4.85Z" transform="translate(-1 -2)"/><path class="cls-2" d="M919.06,311.27l24.14-53.94-2.6-3L921.47,297l-6.11-2.41-2.5.88L920,300.2q-4.11,8.35-8.23,16.71l-2.9-.66a5.72,5.72,0,0,0,.41-3.23,5.57,5.57,0,0,0-.79-2l-6-4.64q.84-3.16,1.7-6.35l5.15,2.89,1-2.11-4.45-3.69q11.32-25.87,22.66-51.74c.33-1.4.66-2.8,1-4.2l-2.2-1.48c-.63,1.46-1.26,2.93-1.9,4.39L912.7,237.8l2.73-7.41-2.19-.43-4.08,6.35-12.86-5.66,4.08-6.34-3.45-1q-1.6,3.24-3.2,6.46l-13.51-6.48,3-5.75L879.65,216l-2.84,5.91L846.67,209l4.93-10.71,3.09-.81L853,195.33l-2.95,1q-3.3,5.32-6.58,10.66L831.73,202l4.76-11.64-2.24-1.17q-3.93,8.07-7.87,16.16l-45.84-20.88,6.3-14.42-3.29-1.16q-3.25,6.9-6.52,13.8l-64-28.25c.85-2,1.7-4,2.54-5.95l-2.95-1.42-3.55,5.67-10.75-4.64-2.69,2.34,13.41,6L703.67,167l-18.8-8.2-2.61,1.76L703,170.21l-6.61,10.95-24.82-12.54-2.77,1.89,26.71,12.93q-7.51,16.41-15,32.83l-4,9.19-6.92-3.11-5.87-.75-7.57-5-8.18,2.09-23.24-10.85a2,2,0,0,0-1.58-1.69,2.05,2.05,0,0,0-2.28,1.5l1.5,2.28c-.45.75-.9,1.54-1.34,2.37a43.43,43.43,0,0,0-3.54,9.1l-8-4.14-2.28,1.5,7.43,3.77,1.5,2.28q-8.11,18.22-16.25,36.44l48.07,23.13.78-2.09L645.77,281l-26.35-11.83,6.24-12.79-2.18-.42-6.33,12.32-12-5.25a16.55,16.55,0,0,1,2.24-3.59c3.53-4.27,7.3-4.27,9-7.52.64-1.2,1.18-3.2.23-6.53l-2.26.16a6.92,6.92,0,0,1,.22,3A7,7,0,0,1,613,252l-8.72,7.19q7.37-16.29,14.72-32.6a24.46,24.46,0,0,0,7.47,5.87c4.64,2.34,8,2.07,11.85,3s9.23,3.37,14.86,9.94c-.68,1.86-1.37,3.71-2,5.56l-8.13-.58c-.14.73-.29,1.46-.43,2.18l13,1.35,4.63-1.21,4.51,2.07L652.13,283l-1.72,1.87,1,.44,31.76,14.45,1.27-1.78,2.84-8.29,6.61-5.14c.36-1.59.71-3.19,1.06-4.79a40.81,40.81,0,0,0,30,8,53.83,53.83,0,0,0,18.15,8.72,52.74,52.74,0,0,0,7.14,1.35c.3-.86.61-1.71.92-2.57a61.36,61.36,0,0,1-6.81-1.61A62.09,62.09,0,0,1,726.49,285c-10.58,1.62-16.29-.07-19.59-2-2.82-1.68-5-4.25-9.5-5.08a9.28,9.28,0,0,1-5-2,8.06,8.06,0,0,1-2.24-3.57L687,269.2l-2.28-19.68-3.41-3.72-1.78,1.12,2.29,4.32,1.64,18.86a8.27,8.27,0,0,1,4,4.08,7.77,7.77,0,0,1,.58,2.46q-2,5.94-4,11.87l-13.38-3.93c-.16.92-.33,1.85-.5,2.77l13.34,4.23-2,5.26-26.86-11.75q8.25-18.42,16.31-38.07,5.88-14.34,11.19-28.28l3.6,2.25L798,269.23c-1.14,2.3-2.27,4.59-3.41,6.88a14.59,14.59,0,0,0-12.49-6.2c-.66.62-1.4,1.49-1.18,2.23.37,1.27,3.24,1.07,6,2a14.61,14.61,0,0,1,7.2,5.54l-25.28,55.88,4.13,1.57,28.09-66.27,45.46,20.38q-5.29,12.1-11.33,24.67c-6.74,14-13.63,27.29-20.55,39.78L817.8,358l20.76-40.19,62.56,26.72L896,357l3,1.12q2.56-6.62,5.11-13.23l5.07,2.43c.4-.84.81-1.68,1.21-2.53l-5-2,9.45-21.63,14,5.63.45-2.76-4.68-1.94c-.22-1.77-.45-3.54-.67-5.3ZM665.37,251.54a19,19,0,0,0-6.68-1.44,19.32,19.32,0,0,0-3.77.27c.78-1.23,2.1-3.75,1.41-6.39-.58-2.17-2.29-3.59-6.42-5.88a86.41,86.41,0,0,0-13.41-6l2-1.83-1.54-2-3.34,2.86a24.33,24.33,0,0,1-6.19-1.83,24.72,24.72,0,0,1-7.41-5.11L625,211.36l22.25,9.75,4.69,7.24,2.9-1.72-4.74-6.12,5.67-1.22,7.67,5.44a15.77,15.77,0,0,1,4.77,0,16.3,16.3,0,0,1,7.76,3.52Q670.66,239.9,665.37,251.54Zm258.35-4.18q-6.74,15.45-13.46,30.92l-6.41-2.8-1.18,3,5.75,3.31-9.15,21.92-13.08-5q12.43-28.36,24.89-56.73Zm-15.29-6.52q-13,28.29-26.06,56.58l-12.94-6.21,25-56.12Zm-17-8.32q-13.78,31.17-27.59,62.35L852.2,289l26.66-61.28ZM747.45,244.33q2.91-6,5.84-11.94l-3-1.42q-2.87,6.19-5.75,12.4c-15.82-6.16-32.13-13.19-48.78-21.25q-6.36-3.08-12.49-6.2a264.63,264.63,0,0,1,11.42-24.22c3.57-6.67,6.72-11.83,11.18-21.11,2.52-5.27,4.41-9.67,5.62-12.57l55.11,24.29A38,38,0,0,1,760.79,199l2.11,1a27.08,27.08,0,0,0,6.31-16.8L824.71,208q-5.94,13.35-11.89,26.7a5.6,5.6,0,0,1-3-.84,7,7,0,0,1-2.31-3c-.87-1.47-2.93-3-8.22-3.43l-1,2.86a9.92,9.92,0,0,1,6.48,1.87,9.74,9.74,0,0,1,3.2,4.13l3.21,1.75L799,266.37Zm86.38,37.4.11-.16c1.25-1.78,2.51-3.55,3.76-5.32l-3.08-.79-3.44,5.14-29-12.83,16.91-39.24,23.73,10.57c0-1.4,0-2.79-.07-4.19l-21.92-9.14q4.56-10.07,9.11-20.13l45.19,18.65Q862,256,848.77,287.8Zm5.77,33,9.87-21.43,13.83,5.53q-2.13,5-4.25,10l-8.67-4.16s-.18-.18-.34-.16c-.5.07-.73,1.69-.83,3.48l8.83,4.1-4.35,7.6ZM902.72,341l-45.31-19.26q3.72-10.47,7.43-21l14.09,5-3.54,9.1,3.42,1.23,4-9.44,12,5.89-2.46,6.85,3.7.67c.51-1.92,1-3.85,1.52-5.77l13.73,6.31Z" transform="translate(-1 -2)"/><path class="cls-4" d="M727.89,688.73l-.47.25-.53.3-.52.32-.45.29-.31.21-.11.08.13-.06A3.57,3.57,0,0,0,726,690l.47-.25.53-.3.52-.31.45-.29.31-.21.12-.09-.13.06Z" transform="translate(-1 -2)"/><path class="cls-5" d="M721.24,688.24l-1,.41-1.17.46-1.18.47-1,.39-.73.28-.27.11.28-.08.75-.23,1-.36,1.19-.45,1.17-.48,1-.45.7-.34.27-.13-.28.1Z" transform="translate(-1 -2)"/><path class="cls-6" d="M727.9,679.46l.58-.41.41-.3.15-.12-.17.09-.43.26c-.18.11-.39.23-.61.38l-.69.44-.67.46-.59.41-.4.3-.16.12.17-.1.44-.25.6-.38.69-.44Z" transform="translate(-1 -2)"/><path class="cls-7" d="M728.8,679.38l-.33.14-.37.2-.35.22a2.43,2.43,0,0,0-.29.22,1.81,1.81,0,0,0-.19.17l-.07.06.08,0,.22-.13.31-.18.36-.2.35-.21.31-.18.22-.13.09-.05-.1,0Z" transform="translate(-1 -2)"/><path class="cls-8" d="M711.75,678.25l.49-.36c.36-.27.79-.56,1.25-.88s1-.65,1.46-1,1-.63,1.49-.91.94-.55,1.33-.76l.54-.29.41-.22.37-.19-.38.16-.43.2-.55.27-1.35.72c-.48.28-1,.59-1.5.91s-1,.66-1.46,1-.87.64-1.23.92l-.47.38-.37.3-.31.27.33-.25Z" transform="translate(-1 -2)"/><path class="cls-9" d="M717.55,675.92l.58-.36.22-.14-.23.11-.61.32-.85.48-.95.59-.93.62c-.3.2-.56.4-.79.57l-.55.42-.21.16.22-.14.58-.38.81-.53.94-.6c.32-.21.64-.42.94-.6Z" transform="translate(-1 -2)"/><path class="cls-10" d="M717.61,678.5l-.78.59c-.23.17-.41.33-.54.43l-.2.17.21-.14.58-.4.8-.55.93-.63.93-.63.82-.54.58-.38.22-.15-.23.13c-.15.08-.36.19-.61.34s-.54.31-.84.5l-1,.61Z" transform="translate(-1 -2)"/><path class="cls-11" d="M719.58,677.86l-.29.16-.32.2-.31.22-.26.2-.19.15-.06.06.08,0,.21-.11.29-.16.32-.2.31-.22c.1-.06.19-.14.26-.19l.19-.15.06-.06-.08,0Z" transform="translate(-1 -2)"/><path class="cls-12" d="M709.66,688.79l.85-.3.6-.2.23-.08-.24,0-.61.16c-.26.07-.56.15-.87.25s-.65.22-1,.35l-.95.39-.82.39c-.24.12-.43.22-.56.3l-.21.12.22-.1.58-.25.83-.35,1-.37Z" transform="translate(-1 -2)"/><path class="cls-13" d="M709.93,689.31l.52-.2.44-.19.31-.15.12-.06-.13,0-.33.09-.45.15-.52.19-.52.2-.44.19-.31.15-.12.06.13,0,.33-.09.46-.15Z" transform="translate(-1 -2)"/><path class="cls-14" d="M708.18,684.23l.35-.09.14,0h-.14a3.25,3.25,0,0,0-.36,0l-.5.09-.57.16c-.19.07-.38.14-.55.22a3.94,3.94,0,0,0-.46.23l-.31.18-.11.08.12,0,.34-.14.47-.19.54-.2.56-.17Z" transform="translate(-1 -2)"/><path class="cls-15" d="M729.17,690.49l-.28.13-.31.16-.31.18-.25.17-.18.13-.07,0,.08,0,.2-.09.28-.13.32-.17.3-.18a2,2,0,0,0,.26-.17l.18-.12.07-.06-.08,0Z" transform="translate(-1 -2)"/><path class="cls-16" d="M734,690.94a.35.35,0,0,0-.12-.23.33.33,0,0,0-.19-.06h-.07l-.14,0a.06.06,0,0,0,0-.06l-2.9-5c0-.47,0-1,0-1.45v0h0a.21.21,0,1,0,0-.41l-.57,0-5.47-1.49c.1,0,.16-.08.16-.12a.21.21,0,0,0-.07-.16,18.82,18.82,0,0,1,5.06,1.38.19.19,0,0,0,.1,0l.12,0a.28.28,0,0,0,.12-.18,21.54,21.54,0,0,0-.68-9.51l0-.06h.15a.23.23,0,0,0,.19-.23.22.22,0,0,0-.23-.19l-.39,0-5.36-2.36v-.82a.27.27,0,0,0-.18-.26v-.43a.43.43,0,0,1,.22.17.24.24,0,0,0,.34.05,2.64,2.64,0,0,1,.57-.36,1,1,0,0,1-.73-.32,1.59,1.59,0,0,0-.4-.3v0a.08.08,0,0,0-.08-.08.08.08,0,0,0-.09.08v1.24a.28.28,0,0,0-.2.26v.56l-6.89-.53,0-.86a.28.28,0,0,0-.22-.28v-.52a.68.68,0,0,1,.23.31c.11.27.31.18.31.18a1.68,1.68,0,0,1,.55-.21s-.33-.09-.68-.66a3.11,3.11,0,0,0-.41-.57.09.09,0,0,0-.09-.08.09.09,0,0,0-.09.09V669a.31.31,0,0,0-.16.24l0,1L712,673.31l-.29,0a.21.21,0,0,0-.18.23.21.21,0,0,0,.2.19h.1a15,15,0,0,0-1.7,4.23l-3.62,5a.23.23,0,0,0-.16,0,.22.22,0,0,0-.09.22l-1.13.46H705a.14.14,0,0,0,0,.28h0s0,0,0,0a1.93,1.93,0,0,0,.39,1.49.13.13,0,0,0,.1,0h0a13.37,13.37,0,0,0,1.18,1.15l-1.36.82H705a.21.21,0,0,0-.2.21.21.21,0,0,0,.18.21,4,4,0,0,0,.72,2.91.21.21,0,0,0,.15.07h.09a5.8,5.8,0,0,0,.51.47.42.42,0,0,0-.14.09.29.29,0,0,0-.08.23,4.54,4.54,0,0,0,.83,2.1,3.59,3.59,0,0,1,.43,1.09c.25.91.57,2,1.94,2h22.78a.3.3,0,0,0,.28-.19,3.73,3.73,0,0,0,.32-1,.4.4,0,0,0-.33-.38,4.58,4.58,0,0,1,.85-.25.29.29,0,0,0,.23-.21A12,12,0,0,0,734,690.94Zm-.31,0c-.92.23-1.86.41-2.8.56s-1.89.26-2.84.36-1.9.17-2.85.22-1.9.09-2.86.1l2.85-.25,2.84-.27,1.42-.15,1.41-.17C731.8,691.24,732.74,691.11,733.68,691Zm-11.89.6-1.81-.12c.37,0,.68,0,.92-.07l.54-.06-.54-.08c-.34,0-.84-.1-1.42-.15s-1.28-.11-2-.15l-1.14,0c-.38,0-.78,0-1.17,0l-1.17,0h-1a.18.18,0,0,0,.07-.05.2.2,0,0,0,.05-.18c-.05-.29-.09-.6-.11-.89l.61-.19,1.48-.5,1.68-.6,1.67-.66c.53-.21,1-.42,1.43-.6l1-.45.38-.18-.39.15-1,.41-1.46.56-1.67.64-1.67.62-1.47.53-.59.21c0-.23,0-.46,0-.67l.47-.17c.71-.26,1.48-.54,2.24-.84s1.51-.6,2.21-.89,1.36-.58,1.92-.83l1.34-.61.5-.24-.51.21-1.37.57-1.92.79-2.22.88-2.24.85-.42.16c0-.49,0-.88,0-1h0a.21.21,0,0,0,0-.42h-.72l-.16-.07.18-.06.53-.22.51-.26.42-.26.29-.2.1-.09-.11.06-.32.16-.44.22-.51.25-.51.23-.28.12-1.75-.68,1.51-1.34,1.88-.07,2.35-.1,2.35-.12,2-.12,1.45-.1.55,0h-.55l-1.45,0c-.6,0-1.3,0-2,.08L716,685l-2.35.12-1.78.11.25-.22,1.48-.13,9.37-.55A18.4,18.4,0,0,1,721.79,691.56Zm.24.68v.27c-.94,0-1.91,0-2.89-.09a1.75,1.75,0,0,1-.23-.75c1,0,1.88.09,2.7.15a2.56,2.56,0,0,1,.07.3.15.15,0,0,0,.13.11Zm-3.37.16c-1.8-.1-3.63-.25-5.31-.41a1,1,0,0,0,0-.14h5.12A2.33,2.33,0,0,0,718.66,692.4Zm-5.63-.87a.2.2,0,0,0,0,.13.59.59,0,0,1-.07.29h-.06a1.68,1.68,0,0,0,.09-.41Zm-1.12-4.11Zm.51-2.92-2.3.14,5.29-2.8v0Zm3-2.45,0,2.28-2.71.16Zm-3.55,3-.23.21h0l-1.45.1-.55,0,.55,0,1.4,0-1.43,1.27a11.89,11.89,0,0,1-.79-1.25.08.08,0,0,0,0,0C710.14,685.16,711,685.08,711.85,685Zm-2,1.48-1-.39c0-.37,0-.63-.05-.73l.36,0h0A11,11,0,0,0,709.86,686.48Zm.1.19-.71.63-.37-.61c0-.16,0-.31,0-.45Zm.11.09a4.88,4.88,0,0,0,.59.68h-1.32l0,0Zm.19,0,1.53.6-.11,0h-.81A3.83,3.83,0,0,1,710.26,686.78Zm6.92-5.52.29,0a7.75,7.75,0,0,0,0,.88l-1.46-.48c.62,0,1.15-.18,1.15-.34A.2.2,0,0,0,717.18,681.26Zm.37,1.09a5.22,5.22,0,0,0,.34,1.36.23.23,0,0,0,.18.13h0a.23.23,0,0,0,.17-.07,5.25,5.25,0,0,1,1-.84l1.46.48-1.29.68-3.58.21.06-2.48Zm1-.8a16.9,16.9,0,0,1,1.63.51l-.33.14a8.61,8.61,0,0,0-.85.48l-1.24-.4c0-.27-.06-.58-.07-.93.3.06.58.13.85.2l-.08.07Zm2.51-9.07H721l2.18-1.39v2.69l-1.72.16a8.1,8.1,0,0,0-.3-1.06h0a.22.22,0,0,0,.18-.23A.21.21,0,0,0,721.07,672.48Zm.69,9.91,0-.36.35,0c0,.18.28.3.6.37l-1.8,1-1.48-.49a6.13,6.13,0,0,1,1.28-.56,7.28,7.28,0,0,1,.69.3l.1,0a.2.2,0,0,0,.11,0A.24.24,0,0,0,721.76,682.39Zm-.64,1,1.85-1h.17v1.46l-.43,0Zm1.22.54-2.53.15,1.14-.6Zm-3.85-.83.31-.17.2-.09h0a5.53,5.53,0,0,0-.91.78,4.7,4.7,0,0,1-.32-1.18l1.08.35-.11.07-.28.22-.1.08Zm12.07,2.83,2.79,4.77,0,0-.32.06a.06.06,0,0,0,0,0l-2.5-4.27C730.55,686.29,730.56,686.1,730.56,685.92Zm2.36,4.88c-.93.17-1.95.32-3,.45a31.45,31.45,0,0,0,.57-4.53Zm-2.63-6.45a31.12,31.12,0,0,1-.62,6.94c-1.19.14-2.37.25-3.43.34l.16-.07.43-.2.59-.29.68-.36.67-.37.58-.33.4-.24.15-.1-.16.07-.43.2-.6.3-.67.35-.67.37-.58.33-.4.25-.15.09-1.31.1-.34,0H724l-.58,0h-.1c.13-.46.26-1,.37-1.56.3-.19.65-.39,1-.61s.86-.49,1.32-.73.9-.48,1.33-.7.83-.42,1.18-.58l.85-.39.32-.15-.33.12-.87.35c-.35.15-.77.33-1.2.54l-1.35.69c-.45.25-.9.5-1.31.75l-.94.59q.18-.94.3-2.1h0l.49-.21.69-.31.78-.36.78-.38.67-.35.47-.25.17-.1-.19.08-.49.2c-.2.09-.44.19-.68.31l-.79.36-.77.39-.67.34-.47.25h0c0-.25,0-.51.07-.78l1.28-.58,1.42-.61,1.24-.52.88-.36.34-.13-.35.11c-.21.07-.53.17-.9.31s-.8.29-1.26.48-.94.39-1.42.6-.83.37-1.22.56c.06-.78.09-1.62.1-2.51C727.13,684.37,729.69,684.35,730.29,684.35Zm-.72-.55-5.88.26v-1.64a4.69,4.69,0,0,0,.59-.06ZM723.69,671l5.07,2.23-5.07.47Zm5.45,2.74a21.46,21.46,0,0,1,.66,9.4,18.8,18.8,0,0,0-5.15-1.41h0l1,.1c.64.09,1.23.22,1.73.34s.92.26,1.22.35l.45.15-.11-.06-.31-.17a11,11,0,0,0-1.18-.5,12,12,0,0,0-1.74-.47c-.33,0-.67-.11-1-.14s-.7,0-1.06,0-.46,0-.68,0c0-.56,0-1.11-.06-1.66l.54-.33.95-.59.93-.6.81-.53.57-.39.21-.15-.23.13-.59.34-.83.5-1,.59-.93.6-.49.32c0-.41-.06-.81-.1-1.2l.85-.54c.68-.43,1.36-.84,2-1.21s1.27-.7,1.8-1l.74-.36.56-.28.5-.24-.51.22-.58.25-.74.34c-.54.26-1.17.58-1.83.94s-1.35.77-2,1.19l-.79.52c-.09-.82-.19-1.58-.29-2.22l.06,0c.26-.16.49-.33.7-.46l.51-.32.19-.12-.2.1a5.84,5.84,0,0,0-.54.28l-.73.42v0c-.12-.7-.22-1.25-.28-1.55Zm-6-3v.16l-2.47,1.58-4.41-2.27Zm-6.9-.38,4.18,2.15-4.24.39Zm-.7.17-1.89,2.6-1.37.12Zm.14,0-.06,2.39-1.78.16Zm-3.55,3.16,1.17-.11-2.77,3.84A15.35,15.35,0,0,1,712.13,673.75Zm-1.7,4.09,3.05-4.21,7.43-.66a22.68,22.68,0,0,1,.62,9.39,17.12,17.12,0,0,0-4.44-1.35c.27,0,.53,0,.78.07a14.07,14.07,0,0,1,1.72.31,12.08,12.08,0,0,1,1.2.35l.34.12.11,0-.1-.07-.32-.16a8.09,8.09,0,0,0-1.16-.51,10,10,0,0,0-1.74-.45c-.33-.05-.67-.09-1-.11s-.7,0-1,0-.71,0-1.05.1-.68.12-1,.19-.63.17-.91.27a7.41,7.41,0,0,0-.8.31A9,9,0,0,0,711,682l-.29.19-.11.07.12,0,.32-.14.48-.19a5.08,5.08,0,0,0-1,.87A8.38,8.38,0,0,1,710.43,677.84Zm-.33.46a10.8,10.8,0,0,0-.21,2,6.74,6.74,0,0,0,.4,2.57.23.23,0,0,0,.17.13h0a.22.22,0,0,0,.17-.07,5.26,5.26,0,0,1,2.56-1.57l.66-.14.19,0h0c0,.35.58.5,1.23.53l-5.54,2.94-.54,0a6.11,6.11,0,0,1,0-.87h.11a.13.13,0,0,0,.13-.14.13.13,0,0,0-.14-.13H709l-2.28-.42,0-.08h0Zm-1.75,5.27-1.34,0-.19-.33Zm-2-.24.18.29-1,0Zm-.85,2a1.8,1.8,0,0,1-.34-1.39l1.42-.09,2.53-.08a5.3,5.3,0,0,0,.06,1.42s-.68-.06-1.53-.06A9.42,9.42,0,0,0,705.51,685.38Zm2.9.54-.36-.59h.49s0,.27,0,.64Zm.18.22v.07l-.06-.1Zm0,.91c0,.13,0,.27,0,.41h-.48a6.26,6.26,0,0,1-1.18-.77l1-.63Zm-2.91-1.56a9.4,9.4,0,0,1,1.87-.17l.37.62-1.09.65A13.11,13.11,0,0,1,705.7,685.49Zm1.14,1.28a7.42,7.42,0,0,0,1,.69l-2.2,0Zm-1,3.91a3.88,3.88,0,0,1-.66-2.77l7.61-.08a12.45,12.45,0,0,0,.11,2.78h-.06v0a34,34,0,0,0-3.82-.24A14.69,14.69,0,0,0,705.81,690.68Zm5.6.2-.11-.19c.8.06,1.38.13,1.52.15Zm1.4.65a1.59,1.59,0,0,1-.09.4l-.71-.07-.21-.34Zm-3.42-.38.81.09h-1.59c0-.21.07-.43.09-.65H709c.64,0,1.26,0,1.8.06l.15.24h-.12c-.59,0-1.08.07-1.43.1l-.54.06Zm.78.37h1.14l.18.28-1.76-.18-1-.1Zm-4.11-.68a14,14,0,0,1,2.37-.23l-.09.59a.29.29,0,0,0,.06.22.28.28,0,0,0,.09.07c-.86-.09-1.51-.15-1.87-.16C706.42,691.17,706.23,691,706.06,690.84ZM720,696.22l-1.32,0-1.31-.07-1.32-.08c-.88-.07-1.75-.15-2.62-.25s-1.75-.21-2.61-.37l1.3.16,1.31.14,2.63.22,2.63.17,2.63.14Zm13.67-4.11-.58.09-.36,1.8.08-1.77c-.44.07-1,.14-1.65.22l-.36,1.85.08-1.81c-.54.07-1.13.14-1.76.2l-.36,1.86.08-1.82-1.75.17-.34,1.6,0-1.58c-.58.06-1.17.1-1.75.14l-.3,1.32v-1.3c-.61,0-1.2.06-1.77.07l-.24,1,0-1h-.4l-1.39,0-.22.76,0-.77-1.8-.07-.17.48-.06-.49-1.83-.12-.14.33-.06-.35-1.83-.14-.13.23-.08-.25c-3.76-.33-7-.74-8-.77.08.24.17.47.27.7s.16.32.25.48l.09.13a120.11,120.11,0,0,0,26.11,1.22l-.08.26c-4.61.53-16.71.36-25.84-1.2l0,0a2.77,2.77,0,0,1,.27.61,67.83,67.83,0,0,0,11.85,1.29c7.68.33,12.13.23,12.92.2a1.44,1.44,0,0,1-.09.34c-1,0-5.39.12-12.83-.2a69.43,69.43,0,0,1-11.76-1.27l0,.09c.09.37.16.73.28,1.08a4.41,4.41,0,0,1-.43-1c-.06-.18-.11-.35-.18-.52a2.34,2.34,0,0,0-.22-.48l-.07-.11-.09-.12-.15-.24a3.43,3.43,0,0,1-.23-.52,3.2,3.2,0,0,1-.21-1.1c1.41,0,9.62,1.18,15.83,1.18a89.13,89.13,0,0,0,11.36-1.1C733.69,691.84,733.68,692,733.67,692.11Zm-22.45,1.34-.8-.08-.79-.1-.8-.13.81.05.8.08.79.1.8.13Zm.81.3-.81,0-.8-.08-.79-.11-.8-.13.81,0,.8.08.79.11Zm-.81-.54-.8-.08-.79-.11-.8-.13q.4,0,.81.06l.8.07.79.11.8.13Zm0-.25-.8-.08-.79-.1-.8-.13.81.05.8.08.79.1.8.13C711.76,693,711.49,693,711.22,693Zm0-.24-.8-.08-.79-.11c-.27,0-.53-.08-.8-.13q.4,0,.81.06l.8.08.79.1.8.13ZM725,695.17h-2.63l-1.32,0-1.32,0c-.87-.05-1.75-.1-2.62-.17s-1.75-.17-2.61-.31l1.3.13,1.31.1c.88.06,1.75.11,2.63.14s1.75.08,2.63.11Zm-15.17-.93.67.07.67.1.67.13-.68,0-.67-.08-.67-.1-.67-.13Zm-.69-.26.67,0,.68.08.67.1.66.13c-.22,0-.45,0-.67-.06l-.68-.07-.67-.11Zm.7.46.67.08.67.1.67.13-.68,0-.67-.08-.67-.1-.67-.13Z" transform="translate(-1 -2)"/><path class="cls-17" d="M857.17,420.49l-3.58-1.55,1.89-4.38a.45.45,0,0,0-.22-.57l-2-.86.86-2a.43.43,0,0,0-.23-.57l-2-.86,2.23-5.17a.44.44,0,0,0-.24-.57l-16.7-7.19a.43.43,0,0,0-.57.21l-2.23,5.18-2-.86a.45.45,0,0,0-.58.23l-.85,2-2-.86a.44.44,0,0,0-.56.24l-1.89,4.38L823,405.74a.44.44,0,0,0-.57.22l-10.12,23.48-1.19-.51a.43.43,0,0,0-.57.22.43.43,0,0,0,.23.57l1.59.68h0l8.76,3.78,16.7,7.2,8.75,3.77h0l1.59.68a.43.43,0,0,0,.57-.21.43.43,0,0,0-.23-.58l-1.18-.51,10.12-23.48A.43.43,0,0,0,857.17,420.49ZM834,403.06l-.65,1.5-1.59-.68.69-1.59,1.59.68Zm14.8,13.83,1.71-4,4,1.72-1.72,4Zm3.65-4.1-.76-.33-.83-.35.69-1.59,1.58.68Zm-13.94,28,2.73-6.31,7.22-16.76,1,.45,6.92,3-10,23.08Zm-1.28-43,15.92,6.86-2.57,6-.69,1.59L848.68,415l-10.94,25.39-15.92-6.86,10.12-23.47.82-1.92Zm-8.2,5.9,2,.86h0l2,.86-1.3,3-.41.94-4-1.71Zm-6,3.06,8,3.43-3.51,8.13L821,433.21l-8-3.43Z" transform="translate(-1 -2)"/><rect class="cls-18" x="838.35" y="402.35" width="3.46" height="1.73" transform="translate(136.31 1013.13) rotate(-66.69)"/><rect class="cls-19" x="835.97" y="401.33" width="3.46" height="1.73" transform="translate(135.81 1010.31) rotate(-66.69)"/><rect class="cls-20" x="840.74" y="403.38" width="3.46" height="1.73" transform="translate(136.81 1015.94) rotate(-66.69)"/><rect class="cls-21" x="843.13" y="404.41" width="3.46" height="1.73" transform="translate(137.31 1018.77) rotate(-66.69)"/><rect class="cls-22" x="845.52" y="405.44" width="3.46" height="1.73" transform="translate(137.81 1021.58) rotate(-66.69)"/><rect class="cls-23" x="847.9" y="406.47" width="3.46" height="1.73" transform="translate(138.3 1024.39) rotate(-66.69)"/><rect class="cls-24" x="836.64" y="406.33" width="3.46" height="1.73" transform="translate(131.62 1013.95) rotate(-66.69)"/><rect class="cls-25" x="834.25" y="405.3" width="3.46" height="1.73" transform="translate(131.13 1011.15) rotate(-66.69)"/><rect class="cls-26" x="839.02" y="407.36" width="3.46" height="1.73" transform="translate(132.11 1016.75) rotate(-66.68)"/><rect class="cls-27" x="841.42" y="408.39" width="3.46" height="1.73" transform="translate(132.63 1019.6) rotate(-66.69)"/><rect class="cls-28" x="843.8" y="409.42" width="3.46" height="1.73" transform="translate(133.11 1022.4) rotate(-66.69)"/><rect class="cls-29" x="846.19" y="410.44" width="3.46" height="1.73" transform="translate(133.61 1025.21) rotate(-66.69)"/><rect class="cls-30" x="834.92" y="410.31" width="3.47" height="1.73" transform="translate(126.93 1014.78) rotate(-66.69)"/><rect class="cls-31" x="832.53" y="409.28" width="3.47" height="1.73" transform="translate(126.44 1011.98) rotate(-66.69)"/><rect class="cls-32" x="837.3" y="411.34" width="3.47" height="1.73" transform="translate(127.42 1017.58) rotate(-66.68)"/><rect class="cls-33" x="839.7" y="412.37" width="3.47" height="1.73" transform="translate(127.94 1020.43) rotate(-66.69)"/><rect class="cls-34" x="842.08" y="413.4" width="3.47" height="1.73" transform="translate(128.42 1023.23) rotate(-66.69)"/><rect class="cls-35" x="844.47" y="414.42" width="3.47" height="1.73" transform="translate(128.92 1026.04) rotate(-66.69)"/><rect class="cls-36" x="850.8" y="414.88" width="1.73" height="1.74" transform="translate(131.79 1031.33) rotate(-66.69)"/><rect class="cls-37" x="849.53" y="420" width="1.73" height="1.74" transform="translate(126.33 1033.27) rotate(-66.69)"/><rect class="cls-38" x="851.93" y="421.04" width="1.73" height="1.73" transform="translate(126.83 1036.09) rotate(-66.69)"/><rect class="cls-39" x="848.51" y="422.39" width="1.73" height="1.74" transform="translate(123.52 1033.76) rotate(-66.69)"/><rect class="cls-40" x="850.9" y="423.42" width="1.73" height="1.73" transform="translate(124.02 1036.59) rotate(-66.69)"/><rect class="cls-41" x="847.48" y="424.77" width="1.73" height="1.74" transform="translate(120.71 1034.26) rotate(-66.69)"/><rect class="cls-42" x="849.87" y="425.81" width="1.73" height="1.73" transform="translate(121.19 1037.07) rotate(-66.68)"/><rect class="cls-43" x="846.45" y="427.15" width="1.73" height="1.74" transform="translate(117.89 1034.76) rotate(-66.69)"/><rect class="cls-44" x="848.84" y="428.19" width="1.73" height="1.73" transform="translate(118.38 1037.56) rotate(-66.68)"/><rect class="cls-45" x="845.42" y="429.55" width="1.73" height="1.74" transform="translate(115.07 1035.26) rotate(-66.69)"/><rect class="cls-46" x="847.81" y="430.59" width="1.73" height="1.73" transform="translate(115.58 1038.09) rotate(-66.69)"/><rect class="cls-47" x="844.39" y="431.94" width="1.73" height="1.74" transform="translate(112.26 1035.75) rotate(-66.69)"/><rect class="cls-48" x="846.78" y="432.97" width="1.73" height="1.73" transform="translate(112.78 1038.6) rotate(-66.69)"/><rect class="cls-49" x="843.36" y="434.32" width="1.73" height="1.74" transform="translate(109.45 1036.25) rotate(-66.69)"/><rect class="cls-50" x="845.75" y="435.36" width="1.73" height="1.73" transform="translate(109.96 1039.08) rotate(-66.69)"/><rect class="cls-51" x="842.34" y="436.7" width="1.73" height="1.74" transform="translate(106.64 1036.75) rotate(-66.69)"/><rect class="cls-52" x="844.73" y="437.74" width="1.73" height="1.73" transform="translate(107.13 1039.56) rotate(-66.68)"/><rect class="cls-53" x="841.3" y="439.09" width="1.74" height="1.74" transform="translate(103.82 1037.25) rotate(-66.69)"/><rect class="cls-54" x="843.69" y="440.13" width="1.74" height="1.73" transform="translate(104.33 1040.08) rotate(-66.69)"/><rect class="cls-55" x="829.32" y="405.62" width="1.73" height="1.74" transform="translate(127.32 1006.01) rotate(-66.69)"/><rect class="cls-56" x="826.46" y="410.06" width="1.73" height="1.74" transform="translate(121.52 1006.07) rotate(-66.69)"/><rect class="cls-57" x="824.07" y="409.03" width="1.73" height="1.73" transform="translate(121.02 1003.25) rotate(-66.69)"/><rect class="cls-58" x="825.43" y="412.44" width="1.73" height="1.74" transform="translate(118.71 1006.57) rotate(-66.69)"/><rect class="cls-59" x="823.04" y="411.42" width="1.73" height="1.73" transform="translate(118.2 1003.74) rotate(-66.68)"/><rect class="cls-60" x="824.41" y="414.83" width="1.73" height="1.74" transform="translate(115.9 1007.06) rotate(-66.69)"/><rect class="cls-61" x="822.02" y="413.8" width="1.73" height="1.73" transform="translate(115.39 1004.24) rotate(-66.68)"/><rect class="cls-62" x="823.38" y="417.21" width="1.73" height="1.74" transform="translate(113.08 1007.56) rotate(-66.69)"/><rect class="cls-63" x="820.99" y="416.19" width="1.73" height="1.73" transform="translate(112.6 1004.76) rotate(-66.69)"/><rect class="cls-64" x="822.35" y="419.61" width="1.73" height="1.74" transform="translate(110.26 1008.06) rotate(-66.69)"/><rect class="cls-65" x="819.96" y="418.58" width="1.73" height="1.73" transform="translate(109.75 1005.23) rotate(-66.68)"/><rect class="cls-66" x="821.32" y="421.99" width="1.73" height="1.74" transform="translate(107.45 1008.56) rotate(-66.69)"/><rect class="cls-67" x="818.93" y="420.97" width="1.73" height="1.73" transform="translate(106.95 1005.74) rotate(-66.69)"/><rect class="cls-68" x="820.29" y="424.38" width="1.73" height="1.74" transform="translate(104.64 1009.05) rotate(-66.69)"/><rect class="cls-69" x="817.9" y="423.35" width="1.73" height="1.73" transform="translate(104.13 1006.23) rotate(-66.68)"/><rect class="cls-70" x="819.26" y="426.76" width="1.73" height="1.74" transform="translate(101.83 1009.55) rotate(-66.69)"/><rect class="cls-71" x="816.87" y="425.74" width="1.73" height="1.73" transform="translate(101.32 1006.72) rotate(-66.68)"/><rect class="cls-72" x="818.23" y="429.15" width="1.74" height="1.74" transform="translate(99.01 1010.05) rotate(-66.69)"/><rect class="cls-73" x="815.84" y="428.13" width="1.74" height="1.73" transform="translate(98.52 1007.25) rotate(-66.69)"/><rect class="cls-74" x="833.21" y="414.29" width="3.46" height="1.73" transform="translate(122.25 1015.62) rotate(-66.69)"/><rect class="cls-75" x="830.82" y="413.26" width="3.46" height="1.73" transform="translate(121.74 1012.8) rotate(-66.69)"/><rect class="cls-76" x="835.59" y="415.32" width="3.46" height="1.73" transform="translate(122.75 1018.43) rotate(-66.69)"/><rect class="cls-77" x="837.99" y="416.35" width="3.46" height="1.73" transform="translate(123.24 1021.26) rotate(-66.69)"/><rect class="cls-78" x="840.37" y="417.38" width="3.46" height="1.73" transform="translate(123.73 1024.06) rotate(-66.69)"/><rect class="cls-79" x="842.76" y="418.4" width="3.46" height="1.73" transform="translate(124.24 1026.88) rotate(-66.69)"/><rect class="cls-80" x="831.5" y="418.26" width="3.46" height="1.73" transform="translate(117.55 1016.44) rotate(-66.69)"/><rect class="cls-81" x="829.11" y="417.23" width="3.46" height="1.73" transform="translate(117.06 1013.64) rotate(-66.69)"/><rect class="cls-82" x="833.88" y="419.29" width="3.46" height="1.73" transform="translate(118.04 1019.24) rotate(-66.68)"/><rect class="cls-83" x="836.28" y="420.32" width="3.46" height="1.73" transform="translate(118.57 1022.1) rotate(-66.69)"/><rect class="cls-84" x="838.66" y="421.35" width="3.46" height="1.73" transform="translate(119.05 1024.88) rotate(-66.69)"/><rect class="cls-85" x="841.04" y="422.38" width="3.46" height="1.73" transform="translate(119.54 1027.7) rotate(-66.69)"/><rect class="cls-86" x="829.77" y="422.24" width="3.47" height="1.73" transform="translate(112.86 1017.27) rotate(-66.69)"/><rect class="cls-87" x="827.39" y="421.21" width="3.47" height="1.73" transform="translate(112.36 1014.46) rotate(-66.69)"/><rect class="cls-88" x="832.16" y="423.27" width="3.47" height="1.73" transform="translate(113.35 1020.07) rotate(-66.68)"/><rect class="cls-89" x="834.55" y="424.3" width="3.47" height="1.73" transform="translate(113.87 1022.92) rotate(-66.69)"/><rect class="cls-90" x="836.94" y="425.33" width="3.47" height="1.73" transform="translate(114.35 1025.71) rotate(-66.69)"/><rect class="cls-91" x="839.32" y="426.36" width="3.47" height="1.73" transform="translate(114.85 1028.52) rotate(-66.69)"/><rect class="cls-92" x="828.06" y="426.22" width="3.46" height="1.73" transform="translate(108.17 1018.1) rotate(-66.69)"/><rect class="cls-93" x="825.68" y="425.19" width="3.46" height="1.73" transform="translate(107.67 1015.29) rotate(-66.69)"/><rect class="cls-94" x="830.45" y="427.25" width="3.46" height="1.73" transform="translate(108.67 1020.91) rotate(-66.69)"/><rect class="cls-95" x="832.85" y="428.28" width="3.46" height="1.73" transform="translate(109.17 1023.74) rotate(-66.69)"/><rect class="cls-96" x="835.23" y="429.31" width="3.46" height="1.73" transform="translate(109.67 1026.55) rotate(-66.69)"/><rect class="cls-97" x="837.61" y="430.34" width="3.46" height="1.73" transform="translate(110.16 1029.35) rotate(-66.69)"/><path class="cls-98" d="M1247.25,519l-1.86-1a.85.85,0,0,0-1,.12l-9.41,8.25-6.73-3.5a4,4,0,0,0-2-4.51l-.25-.11.63-3.35,12.89,4.33a.87.87,0,0,0,.55-1.66L1226.26,513a.89.89,0,0,0-1.14.67l-.81,4.32a4,4,0,0,0-1.68,7.46,4,4,0,0,0,4.84-1l6.81,3.53,0,1.93a.86.86,0,0,0,.48.75.84.84,0,0,0,.42.1.89.89,0,0,0,.85-.9l0-2,9.1-8,1.33.69a.87.87,0,0,0,1.17-.37A.88.88,0,0,0,1247.25,519Zm-23.81,4.88a2.21,2.21,0,1,1,3-.95A2.21,2.21,0,0,1,1223.44,523.89Z" transform="translate(-1 -2)"/><path class="cls-99" d="M1218.17,521.15l-8.51-4.41,1.66-3.2,5.78,3a.87.87,0,0,0,.8-1.55l-1.05-.55,1.74-3.33,3.78,2a.87.87,0,0,0,.8-1.55l-5.64-2.92a.87.87,0,1,0-.8,1.54l.31.16-1.73,3.34-7.32-3.79,1.73-3.34,4.65,2.41a.87.87,0,0,0,.8-1.55l-.52-.27,1.74-3.34,7.09,3.69a.87.87,0,1,0,.8-1.55l-2.36-1.23,1.74-3.33,7.74,4-1.73,3.34-2.75-1.43a.87.87,0,0,0-.81,1.55l7.44,3.86a.87.87,0,0,0,.8-1.55l-3.14-1.63,1.74-3.33,7.74,4-.76,1.46a.87.87,0,1,0,1.55.8l.75-1.45,2.67,1.38-.83,1.6a.88.88,0,0,0,.38,1.18.87.87,0,0,0,1.17-.38l3.7-7.12a.87.87,0,0,0-.37-1.17l-3.8-2a.87.87,0,0,0-.8,1.55l3,1.56-1.66,3.2L1238.3,507l1.66-3.2,1.14.59a.87.87,0,0,0,.8-1.55l-28.8-14.94a.87.87,0,0,0-1.17.37L1199.4,512.4a.87.87,0,0,0,.37,1.17l17.6,9.13a.87.87,0,0,0,.8-1.55Zm2.21-17.28-7.32-3.8,1.73-3.33,7.32,3.79Zm10.29-4.92,7.74,4-1.66,3.2-7.74-4Zm-9.29-4.82,7.74,4-1.66,3.2-7.74-4Zm-8.31-4.31,6.77,3.51-1.66,3.2-6.77-3.51Zm-2.46,4.75,2.63,1.36-1.73,3.34-2.63-1.36Zm-2.53,4.88,6.76,3.51-1.73,3.34-6.77-3.51Zm-2.54,4.89,2.63,1.37-1.73,3.33-2.63-1.36Zm2.57,11.59-6.76-3.51,1.66-3.19,6.76,3.5Z" transform="translate(-1 -2)"/><path class="cls-100" d="M1221.54,516.87l-1.18-.61a.87.87,0,0,0-.8,1.55l1.17.61a.87.87,0,1,0,.81-1.55Z" transform="translate(-1 -2)"/><path class="cls-101" d="M1240,513.41a.88.88,0,0,0-1.18.37l-.33.64a.87.87,0,1,0,1.55.8l.33-.63A.88.88,0,0,0,1240,513.41Z" transform="translate(-1 -2)"/><path class="cls-102" d="M712.94,379.6l-3.89-1.5,1.33-3.46,3,1.17a.45.45,0,0,0,.6-.27l9-23.34a.46.46,0,0,0-.08-.45l-3.31-4.27a.07.07,0,0,0,0,0l0-.05a.37.37,0,0,0-.19-.08h-.1l-5.8-1.2,2.52-6.55a.46.46,0,0,0,0-.41l-3-5.07-.06-.09-.07-.08a.29.29,0,0,0-.13-.08l-.2,0h-.06l-12.13.71a.5.5,0,0,0-.42.3l-2.6,6.76-5.38-4.79,0,0a.43.43,0,0,0-.41-.1h0L687,337.93a.44.44,0,0,0-.31.27l-9,23.34a.46.46,0,0,0,.27.61l1.3.5-1.33,3.46-2.17-.84a.48.48,0,0,0-.61.27.46.46,0,0,0,.28.59l2.59,1,12.1,4.67L704,377.13l8.65,3.33a.46.46,0,0,0,.6-.25A.47.47,0,0,0,712.94,379.6Zm.36-4.82-3.45-1.33,9.54-24.75,2.65,3.4Zm5.32-26.66-9.64,25-2.59-1,1.5-3.9a.45.45,0,0,0-.27-.6l-6.48-2.5L708.49,346Zm-6.1-2.2-3.69-.76,3.79-9.84,2.4,4.11Zm-11.86-10.48,11.19-.68-4.08,10.57-7.5,19.45-6.48-2.5a.46.46,0,0,0-.59.28l-1.5,3.89-2.61-1,8.84-22.92Zm-12.43,29.68-6.05-2.33,9.59-24.88,5.17,4.59Zm-9.5-3.67,8.75-22.7,3.34-.95-9.5,24.65L680,362Zm1.39,1.53,1.29.5,6.92,2.67,3,1.17L690,370.77l-11.24-4.33Zm10.78,8.12,1.5-3.89,1.49-3.88,6.49,2.5,6.48,2.5-1.5,3.88-1.5,3.89ZM706.06,373l3,1.17.42.16-1.33,3.46-3.45-1.34Z" transform="translate(-1 -2)"/><rect class="cls-103" x="700.77" y="338.45" width="3.7" height="1.85" transform="translate(132.27 870.94) rotate(-68.92)"/><rect class="cls-104" x="703.36" y="339.45" width="3.7" height="1.85" transform="translate(133 874) rotate(-68.92)"/><rect class="cls-105" x="699.1" y="342.77" width="3.7" height="1.85" transform="translate(127.18 872.16) rotate(-68.92)"/><rect class="cls-106" x="701.69" y="343.77" width="3.7" height="1.85" transform="translate(127.9 875.21) rotate(-68.92)"/><rect class="cls-107" x="697.43" y="347.1" width="3.7" height="1.85" transform="translate(122.07 873.37) rotate(-68.92)"/><rect class="cls-108" x="700.03" y="348.1" width="3.7" height="1.85" transform="translate(122.79 876.43) rotate(-68.92)"/><rect class="cls-109" x="695.77" y="351.42" width="3.7" height="1.85" transform="translate(116.97 874.58) rotate(-68.92)"/><rect class="cls-110" x="690.52" y="344.44" width="3.7" height="1.85" transform="translate(120.13 865.22) rotate(-68.92)"/><rect class="cls-111" x="688.86" y="348.76" width="3.7" height="1.85" transform="translate(115.03 866.43) rotate(-68.92)"/><rect class="cls-112" x="687.19" y="353.08" width="3.72" height="1.85" transform="translate(109.93 867.65) rotate(-68.92)"/><rect class="cls-113" x="685.53" y="357.41" width="3.7" height="1.85" transform="translate(104.82 868.86) rotate(-68.92)"/><rect class="cls-114" x="698.36" y="352.42" width="3.7" height="1.85" transform="translate(117.7 877.64) rotate(-68.92)"/><rect class="cls-115" x="708.24" y="348.6" width="2.79" height="1.85" transform="translate(127.29 883.99) rotate(-68.92)"/><rect class="cls-116" x="710.83" y="349.6" width="2.79" height="1.85" transform="translate(128.02 887.05) rotate(-68.92)"/><rect class="cls-117" x="713.42" y="350.6" width="2.79" height="1.85" transform="translate(128.75 890.1) rotate(-68.92)"/><rect class="cls-118" x="706.91" y="352.06" width="2.78" height="1.85" transform="translate(123.21 884.96) rotate(-68.92)"/><rect class="cls-119" x="709.5" y="353.06" width="2.78" height="1.85" transform="translate(123.94 888.02) rotate(-68.92)"/><rect class="cls-120" x="712.09" y="354.06" width="2.78" height="1.85" transform="translate(124.66 891.08) rotate(-68.92)"/><rect class="cls-121" x="705.58" y="355.52" width="2.78" height="1.85" transform="translate(119.13 885.93) rotate(-68.92)"/><rect class="cls-122" x="708.17" y="356.52" width="2.78" height="1.85" transform="translate(119.86 888.99) rotate(-68.92)"/><rect class="cls-123" x="710.76" y="357.52" width="2.78" height="1.85" transform="translate(120.59 892.05) rotate(-68.92)"/><rect class="cls-124" x="704.24" y="358.98" width="2.79" height="1.85" transform="translate(115.05 886.9) rotate(-68.92)"/><rect class="cls-125" x="706.83" y="359.98" width="2.79" height="1.85" transform="translate(115.78 889.96) rotate(-68.92)"/><rect class="cls-126" x="702.91" y="362.44" width="2.78" height="1.85" transform="translate(110.96 887.88) rotate(-68.92)"/><rect class="cls-127" x="694.1" y="355.74" width="3.72" height="1.85" transform="translate(111.87 875.8) rotate(-68.92)"/><rect class="cls-128" x="698.61" y="363.34" width="1.85" height="9.27" transform="translate(103.61 886.39) rotate(-68.92)"/><rect class="cls-129" x="697.62" y="365.94" width="1.85" height="9.27" transform="translate(100.55 887.11) rotate(-68.92)"/><path class="cls-130" d="M597.13,215.1l-9.11.41a.89.89,0,0,0-.78.53l-9.54,22.1a.9.9,0,0,0,.47,1.18l15.06,6.5,10.14,4.38a.91.91,0,0,0,1.18-.47l7.06-16.37a.88.88,0,0,0-.13-.92l-2.63-3.17a.9.9,0,0,0-1.26-.11.89.89,0,0,0-.11,1.25l2.28,2.75-6.5,15.05-8.51-3.68,8.36-19.37,1.18,1.42a1,1,0,0,0,.33.25.91.91,0,0,0,.93-.14.88.88,0,0,0,.11-1.25l-1.75-2.12,3.18-7.38a.88.88,0,0,0-.85-1.24l-3.08.13a.9.9,0,0,0,.08,1.79l1.65-.08-11.78,27.29L579.69,238l9-20.77,8.55-.38a.89.89,0,1,0-.08-1.78Z" transform="translate(-1 -2)"/><path class="cls-131" d="M600.74,214.94l-.79,0a.89.89,0,0,0-.86.93.92.92,0,0,0,.54.78,1,1,0,0,0,.39.07l.8,0a.89.89,0,1,0-.08-1.78Z" transform="translate(-1 -2)"/><path class="cls-132" d="M606,228.67a.91.91,0,0,0,.34.25.89.89,0,0,0,1-1.39l-.25-.3a.89.89,0,1,0-1.37,1.14Z" transform="translate(-1 -2)"/><path class="cls-133" d="M572.63,215.47a.88.88,0,0,0,1.17-.46l.84-1.95a.89.89,0,0,0-1.63-.71l-.84,2A.88.88,0,0,0,572.63,215.47Z" transform="translate(-1 -2)"/><path class="cls-134" d="M575.35,237.13l1.54-3.56a.88.88,0,0,0-.46-1.17l-5.3-2.29,12-27.7,4.37,1.88a.88.88,0,0,0,1.17-.46l.45-1L603.4,209l-1.48,3.44a.89.89,0,1,0,1.63.71l1.49-3.44,7.12,3.07a.89.89,0,0,0,1.11-1.28L610,206.21a.87.87,0,0,0-.41-.35l-18.41-8,.06-.14a.89.89,0,0,0-.22-1l-7.16-6.58a.88.88,0,0,0-.79-.22.89.89,0,0,0-.63.52l-1.27,2.94-.06.14-2-.88a.89.89,0,0,0-1.17.46l-1.4,3.25a.89.89,0,0,0,.47,1.17l2,.88-.45,1-4.38,10.15a.9.9,0,0,0,.47,1.17.89.89,0,0,0,1.17-.46l4-9.33,1.61.69-12,27.71-1.61-.7,4.86-11.25a.9.9,0,0,0-.47-1.17.88.88,0,0,0-1.17.46L566.25,228l-2.18-.94a.9.9,0,0,0-1.17.47l-1.54,3.56a.88.88,0,0,0,.46,1.17l12.36,5.34A.9.9,0,0,0,575.35,237.13Zm15.13-37.59,18.16,7.84,1.62,2.61-20.47-8.84Zm-10.76-2.73-1.23-.53.7-1.61,1.22.53Zm.83,2.56,2.27-5.24.77-1.79,5.77,5.3-2,4.66Zm-6.48,36.23L563.35,231l.83-1.93,2.18.94,3.25,1.41,5.29,2.28Z" transform="translate(-1 -2)"/><path class="cls-135" d="M587.85,225.43l-4.68,10.85a.89.89,0,0,0,1.63.71l4.69-10.85A.9.9,0,0,0,589,225,.88.88,0,0,0,587.85,225.43Z" transform="translate(-1 -2)"/><path class="cls-136" d="M594.37,222.48a.88.88,0,0,0-1.17.46l-6.43,14.89a.89.89,0,1,0,1.63.71l6.43-14.89A.88.88,0,0,0,594.37,222.48Z" transform="translate(-1 -2)"/><path class="cls-137" d="M598.29,221l-7.92,18.35a.89.89,0,0,0,.46,1.17.9.9,0,0,0,1.18-.47l7.92-18.34a.89.89,0,1,0-1.64-.71Z" transform="translate(-1 -2)"/><path class="cls-138" d="M942.37,402.38l15.06,7a1,1,0,0,0,1.3-.47l6.52-14a1,1,0,0,0-.09-1l-10.73-15.14,3-6.53A1,1,0,0,0,957,371l-2.59-1.21,3.7-7.93a1,1,0,0,0-.47-1.3l-1.9-.88,2.79-6a1,1,0,0,0-.47-1.29l-2.55-1.19a1,1,0,0,0-1.3.47l-2.79,6-1.9-.88a1,1,0,0,0-1.29.47l-3.7,7.93L941.94,364a1,1,0,0,0-1.3.47l-3,6.53-18.5,1.5a1,1,0,0,0-.81.56l-6.51,14a1,1,0,0,0,.47,1.3l15.06,7Zm11.11-21.49,9.76,13.77-5.87,12.57L944.08,401Zm2.09-27.47.78.36-2.38,5.1-.78-.36Zm-6,5.57,1.9.88,2.55,1.19,1.9.89-3.29,7-6.34-3Zm-10.46,13.35,2.88-6.16,2.59,1.21,8.11,3.78,2.59,1.21-2.87,6.16L942.31,400.2,929,394Zm-11.87,20.84L914,387l5.86-12.58L936.65,373Z" transform="translate(-1 -2)"/><path class="cls-139" d="M951.43,389l1.36,1.92a1,1,0,0,0,.38.32,1,1,0,0,0,1-.09,1,1,0,0,0,.23-1.36L953,387.9a1,1,0,0,0-1.59,1.13Z" transform="translate(-1 -2)"/><path class="cls-140" d="M960,397.79l-3.92-5.53a1,1,0,0,0-1.59,1.13l3.92,5.53a1,1,0,0,0,.38.32,1,1,0,0,0,1-.09A1,1,0,0,0,960,397.79Z" transform="translate(-1 -2)"/><path class="cls-141" d="M957.18,403.89,955.82,402a1,1,0,0,0-1.59,1.13l1.36,1.92a1,1,0,0,0,.38.32,1,1,0,0,0,1-.09A1,1,0,0,0,957.18,403.89Z" transform="translate(-1 -2)"/><path class="cls-142" d="M954.09,399.53,950.17,394a1,1,0,0,0-1.59,1.13l3.92,5.53a1,1,0,0,0,.38.32,1,1,0,0,0,1-.09A1,1,0,0,0,954.09,399.53Z" transform="translate(-1 -2)"/><path class="cls-143" d="M928.89,379.94a1,1,0,0,0,.49.09l2.35-.19a1,1,0,0,0-.16-1.95l-2.35.19a1,1,0,0,0-.89,1.05A1,1,0,0,0,928.89,379.94Z" transform="translate(-1 -2)"/><path class="cls-144" d="M919.15,380.73a1,1,0,0,0,.49.09l6.76-.55a1,1,0,0,0,.89-1,1,1,0,0,0-1-.9l-6.76.55a1,1,0,0,0-.89,1.06A1,1,0,0,0,919.15,380.73Z" transform="translate(-1 -2)"/><path class="cls-145" d="M916.31,386.83a1,1,0,0,0,.49.09l2.34-.19a1,1,0,1,0-.16-2l-2.34.19a1,1,0,0,0-.89,1.06A.94.94,0,0,0,916.31,386.83Z" transform="translate(-1 -2)"/><path class="cls-146" d="M928.72,384l-6.75.55a1,1,0,0,0-.9,1,1,1,0,0,0,.56.81,1,1,0,0,0,.49.09l6.76-.55a1,1,0,0,0-.16-1.95Z" transform="translate(-1 -2)"/><path class="cls-147" d="M939.68,388.5a1,1,0,0,0-1.3.47l-2,4.37a1,1,0,0,0,1.77.83l2-4.38A1,1,0,0,0,939.68,388.5Z" transform="translate(-1 -2)"/><path class="cls-148" d="M941.64,384.3a1,1,0,0,0-1.3.47l-.58,1.24a1,1,0,0,0,.48,1.29,1,1,0,0,0,1.29-.47l.58-1.24A1,1,0,0,0,941.64,384.3Z" transform="translate(-1 -2)"/><path class="cls-149" d="M947.5,371.74a1,1,0,0,0-1.3.47l-4.46,9.55a1,1,0,0,0,.48,1.3,1,1,0,0,0,1.29-.47L948,373A1,1,0,0,0,947.5,371.74Z" transform="translate(-1 -2)"/><path class="cls-150" d="M945.47,386.68a1,1,0,0,0-1.3.47l-2.63,5.65a1,1,0,1,0,1.76.82l2.64-5.64A1,1,0,0,0,945.47,386.68Z" transform="translate(-1 -2)"/><path class="cls-151" d="M947.42,382.48a1,1,0,0,0-1.29.47l-.58,1.24a1,1,0,1,0,1.77.83l.58-1.24A1,1,0,0,0,947.42,382.48Z" transform="translate(-1 -2)"/><path class="cls-152" d="M950.42,376.07a1,1,0,0,0-1.3.47L947.53,380a1,1,0,0,0,.47,1.3,1,1,0,0,0,1.3-.48l1.59-3.4A1,1,0,0,0,950.42,376.07Z" transform="translate(-1 -2)"/><path class="cls-153" d="M937.35,382.9a1,1,0,0,0-1.3.47L933.42,389a1,1,0,1,0,1.77.83l2.63-5.65A1,1,0,0,0,937.35,382.9Z" transform="translate(-1 -2)"/><path class="cls-154" d="M940,377.19a1,1,0,0,0-1.29.48l-1.28,2.74a1,1,0,0,0,1.76.82l1.28-2.74A1,1,0,0,0,940,377.19Z" transform="translate(-1 -2)"/><path class="cls-155" d="M942.3,372.29a1,1,0,0,0-1.3.47l-.88,1.9a1,1,0,0,0,.47,1.3,1,1,0,0,0,1.3-.48l.88-1.9A1,1,0,0,0,942.3,372.29Z" transform="translate(-1 -2)"/><path class="cls-156" d="M952.42,361.3a1,1,0,0,0-1.3.47l-1.67,3.58a1,1,0,1,0,1.77.83l1.67-3.58A1,1,0,0,0,952.42,361.3Z" transform="translate(-1 -2)"/><line class="cls-157" x1="961" y1="337" x2="956.52" y2="347.85"/><line class="cls-157" x1="957.14" y1="337.66" x2="962.86" y2="340.34"/><path class="cls-158" d="M493.92,361l6.1.63-1.69,16.15a1.08,1.08,0,0,0,.95,1.18l27.3,2.84a1.07,1.07,0,0,0,1.17-.95l1.2-11.48a1.07,1.07,0,1,0-2.13-.22l-1.08,10.41-8.43-.87.13-1.18a1.07,1.07,0,0,0-2.13-.22l-.12,1.18-4.07-.43.76-7.34a2,2,0,1,1,4.07.42,1.07,1.07,0,1,0,2.13.22,4.18,4.18,0,1,0-8.32-.86l-.77,7.34-8.42-.88,1.57-15.09,23.36,2.43a1.07,1.07,0,0,0,.22-2.12l-28.75-3,19.61-13.87,8.31,9a1.07,1.07,0,0,0,1.57-1.45l-9-9.64a1.06,1.06,0,0,0-1.4-.15l-22.69,16a1.08,1.08,0,0,0-.42,1.14A1.09,1.09,0,0,0,493.92,361Z" transform="translate(-1 -2)"/><path class="cls-159" d="M528,357.59a1.07,1.07,0,0,0,1.51.05,1.07,1.07,0,0,0,.06-1.51l-.66-.71a1.07,1.07,0,1,0-1.57,1.45Z" transform="translate(-1 -2)"/><path class="cls-160" d="M547.92,361.44a4.29,4.29,0,0,0-1.69-4.52,4.34,4.34,0,0,0-.83-3.94,1.07,1.07,0,1,0-1.63,1.38,2.23,2.23,0,0,1,.26,2.36.77.77,0,0,1-.1.18,1.13,1.13,0,0,0-.07,1,1.1,1.1,0,0,0,.7.63,1.51,1.51,0,0,1,.35.14,2.12,2.12,0,0,1,.78,2.76l0,.06a1.06,1.06,0,0,0,.56,1.48l.2.09a2.13,2.13,0,0,1,.77,2.79,1.94,1.94,0,0,1-1.4,1.1,1,1,0,0,0-.89.88,2.77,2.77,0,0,1-.19.62,1.93,1.93,0,0,1-1.13,1,1.61,1.61,0,0,1-1.27-.11,1.06,1.06,0,0,0-1.17.12,4,4,0,0,1-6-.62,1.07,1.07,0,0,0-1.13-.36,1.59,1.59,0,0,1-1.26-.16,1.92,1.92,0,0,1-.89-1.24,2.32,2.32,0,0,1-.06-.64,1.07,1.07,0,0,0-.69-1.05A1.9,1.9,0,0,1,530,364a2.13,2.13,0,0,1,1.33-2.56l.21-.05a1.07,1.07,0,0,0,.86-1.34l0-.05a2.13,2.13,0,0,1,1.34-2.55,1.44,1.44,0,0,1,.36-.07,1.09,1.09,0,0,0,.82-.47A1.08,1.08,0,0,0,535,356l-.06-.19a2.13,2.13,0,0,1,1.34-2.57,1.54,1.54,0,0,1,.77,0,1.06,1.06,0,0,0,1.26-.83,1.08,1.08,0,0,0-.84-1.26,3.83,3.83,0,0,0-1.81.08,4.28,4.28,0,0,0-2.91,4.36,4.29,4.29,0,0,0-2.58,4.07,4.35,4.35,0,0,0-2.27,4.91A4.1,4.1,0,0,0,529.7,367a4.71,4.71,0,0,0,.09.52,4,4,0,0,0,1.89,2.59,3.67,3.67,0,0,0,2.23.49,6.53,6.53,0,0,0,2.82,1.75l-.86,8.23-2.17-.23a1.07,1.07,0,0,0-.22,2.13l6.47.67a1.07,1.07,0,1,0,.22-2.12l-2.17-.23.85-8.23a6.51,6.51,0,0,0,3.12-1.13,3.7,3.7,0,0,0,2.28,0,4.09,4.09,0,0,0,2.58-2.64,4,4,0,0,0,2.29-2.11A4.33,4.33,0,0,0,547.92,361.44Z" transform="translate(-1 -2)"/><path class="cls-161" d="M539.89,352.35a1.06,1.06,0,0,1,.87.76,1.09,1.09,0,0,0,.9.73,1.16,1.16,0,0,0,.45,0,1.09,1.09,0,0,0,.68-1.36,3.23,3.23,0,0,0-2.68-2.21,1.07,1.07,0,0,0-.22,2.13Z" transform="translate(-1 -2)"/><path class="cls-162" d="M542.69,366.49a1.4,1.4,0,0,0,.35.1,1.07,1.07,0,0,0,1.07-.61,3.2,3.2,0,0,0-1.26-4.16,1.07,1.07,0,1,0-1,1.88,1.06,1.06,0,0,1,.35,1.37A1.07,1.07,0,0,0,542.69,366.49Z" transform="translate(-1 -2)"/><path class="cls-163" d="M535.6,360a1.09,1.09,0,0,0,.93.81,1.1,1.1,0,0,0,.36,0,1.06,1.06,0,0,0,.79-1.29,1.06,1.06,0,0,1,.63-1.26,1.06,1.06,0,1,0-.61-2A3.21,3.21,0,0,0,535.6,360Z" transform="translate(-1 -2)"/><path class="cls-164" d="M516.82,373.1a1.07,1.07,0,0,0-1.17,1l0,.38a1.07,1.07,0,1,0,2.12.22l0-.38A1.07,1.07,0,0,0,516.82,373.1Z" transform="translate(-1 -2)"/><path class="cls-165" d="M493.84,381.42a1.07,1.07,0,0,0-.22,2.13l22.28,2.32a1.07,1.07,0,0,0,.22-2.13Z" transform="translate(-1 -2)"/><path class="cls-166" d="M520.11,384.16a1.07,1.07,0,1,0-.22,2.12l1.55.16a1.07,1.07,0,1,0,.22-2.12Z" transform="translate(-1 -2)"/><path class="cls-167" d="M544.18,386.66l-17.26-1.79a1.07,1.07,0,1,0-.23,2.12l17.27,1.8a1.07,1.07,0,0,0,.22-2.13Z" transform="translate(-1 -2)"/><path class="cls-168" d="M514.09,329.24c-9.58-14.81-11.39-16.35-11.23-21.68a13.23,13.23,0,0,1,26.45.78c-.16,5.34-2.06,6.77-12.5,21a1.65,1.65,0,0,1-2.72-.08Zm1.83-15.78a5.51,5.51,0,1,0-5.35-5.67A5.51,5.51,0,0,0,515.92,313.46Z" transform="translate(-1 -2)"/><path class="cls-2" d="M1289.12,321a6.6,6.6,0,0,1,1.33-1.92c.4-.32.67-.45.82-.4l16.61,5.91L1286.34,331l-1,.3a2.57,2.57,0,0,0-.59.24,1.21,1.21,0,0,0-.33.3,2.41,2.41,0,0,0-.21.45l-1.42,4,.81.29a6.52,6.52,0,0,1,.91-1.29,4.84,4.84,0,0,1,1.35-1l19.76,7c.17.07.3.37.38.9a6.57,6.57,0,0,1-.21,2.26l.82.29,2.75-7.76-.81-.28a6.84,6.84,0,0,1-1.32,1.9c-.39.34-.66.48-.81.43l-16.8-6,23.08-6.72a2.06,2.06,0,0,0,.86-.55,5.23,5.23,0,0,0,.91-1.35l-22.41-8c-.17-.06-.3-.37-.37-.91a6.8,6.8,0,0,1,.18-2.25l-.82-.29-2.75,7.76Z" transform="translate(-1 -2)"/><path class="cls-2" d="M1315.19,302.7a9,9,0,0,1,1.56.92,3.45,3.45,0,0,1,.54.46,2.33,2.33,0,0,1,.42.53,1.63,1.63,0,0,1,.22.59,1.38,1.38,0,0,1-.06.63l-2.81,7.9-2.85-4.92q-1.28-2.19-2.32-3.88c-.7-1.13-1.34-2.11-1.93-2.93a22.14,22.14,0,0,0-1.68-2.12,11,11,0,0,0-1.58-1.42,6.38,6.38,0,0,0-1.61-.85,6.53,6.53,0,0,0-2.54-.42,4.7,4.7,0,0,0-2.08.57,5.22,5.22,0,0,0-1.59,1.38,7.08,7.08,0,0,0-1.07,2,7.79,7.79,0,0,0-.44,3,10.86,10.86,0,0,0,.58,3,8.52,8.52,0,0,0,1.33,2.46,4.24,4.24,0,0,0,1.82,1.39l.75-.31a4.56,4.56,0,0,0,.14-.79,3.52,3.52,0,0,0,0-.65c0-.21,0-.41-.09-.62s-.08-.44-.12-.69a4.29,4.29,0,0,1-1.27-.75,4.85,4.85,0,0,1-1-1.19,4.13,4.13,0,0,1-.56-1.45,3,3,0,0,1,.13-1.56,4.69,4.69,0,0,1,.94-1.64,3.21,3.21,0,0,1,1.31-.86,3.72,3.72,0,0,1,1.57-.19,6.78,6.78,0,0,1,3.11,1.06,7.92,7.92,0,0,1,1.44,1.22,18.49,18.49,0,0,1,1.65,2c.59.79,1.26,1.76,2,2.92s1.59,2.54,2.53,4.13,2,3.44,3.22,5.56l1.59-.05,4.66-13.12-5.32-2.21Z" transform="translate(-1 -2)"/><path class="cls-2" d="M1145.14,715.29a6.42,6.42,0,0,1,1.3-1.94c.38-.33.65-.47.8-.42l16.73,5.58-21.41,6.75-1,.32a2.78,2.78,0,0,0-.59.26,1,1,0,0,0-.32.3,1.93,1.93,0,0,0-.2.45l-1.35,4,.82.27a6.37,6.37,0,0,1,.89-1.3,4.76,4.76,0,0,1,1.32-1L1162,735.2c.18.06.32.36.41.89a6.59,6.59,0,0,1-.17,2.26l.82.27,2.6-7.8-.81-.27a7,7,0,0,1-1.28,1.93c-.39.34-.65.49-.8.44l-16.93-5.64,22.95-7.18a2.11,2.11,0,0,0,.85-.57,5,5,0,0,0,.88-1.37L1148,710.64c-.17-.06-.31-.36-.39-.9a7.09,7.09,0,0,1,.13-2.25l-.81-.27-2.61,7.8Z" transform="translate(-1 -2)"/><path class="cls-2" d="M1170.84,696.45a9.09,9.09,0,0,1,1.59.89,4.51,4.51,0,0,1,.54.44,2.33,2.33,0,0,1,.43.53,1.6,1.6,0,0,1,.23.58,1.25,1.25,0,0,1-.05.63l-2.65,8c-1.09-1.81-2.08-3.43-3-4.87s-1.67-2.72-2.39-3.83-1.38-2.08-2-2.89a20,20,0,0,0-1.73-2.08,10.66,10.66,0,0,0-1.59-1.39,6.4,6.4,0,0,0-1.63-.82,6.51,6.51,0,0,0-2.56-.37,4.77,4.77,0,0,0-2.06.61,5.22,5.22,0,0,0-1.56,1.41,7.27,7.27,0,0,0-1,2,7.82,7.82,0,0,0-.37,3.06,10.41,10.41,0,0,0,.64,3,8.45,8.45,0,0,0,1.38,2.43,4.16,4.16,0,0,0,1.84,1.35l.74-.32a4.55,4.55,0,0,0,.13-.8,3.51,3.51,0,0,0,0-.65,4.31,4.31,0,0,0-.1-.61c0-.21-.09-.44-.13-.69a4.21,4.21,0,0,1-1.29-.73,4.63,4.63,0,0,1-1-1.16,4.34,4.34,0,0,1-.59-1.44,3.11,3.11,0,0,1,.1-1.57,4.64,4.64,0,0,1,.91-1.65,3.26,3.26,0,0,1,1.29-.89,3.89,3.89,0,0,1,1.57-.22,6.25,6.25,0,0,1,1.71.34,6.75,6.75,0,0,1,1.42.66,8.08,8.08,0,0,1,1.47,1.19,21.31,21.31,0,0,1,1.68,1.93c.61.78,1.29,1.75,2.06,2.89s1.64,2.5,2.61,4.07,2.08,3.41,3.33,5.5l1.59-.08,4.4-13.21-5.37-2.11Z" transform="translate(-1 -2)"/><path class="cls-2" d="M1014,409.28a6.28,6.28,0,0,1,1.75,1.49c.28.42.38.7.31.85l-7.48,16-4-22c-.07-.42-.14-.76-.19-1a3,3,0,0,0-.18-.61,1,1,0,0,0-.26-.35,1.93,1.93,0,0,0-.42-.25l-3.78-1.78-.37.79a6.3,6.3,0,0,1,1.17,1,4.6,4.6,0,0,1,.84,1.42l-8.9,19c-.08.17-.38.27-.91.3a6.25,6.25,0,0,1-2.19-.41l-.37.78,7.32,3.44.36-.79A6.59,6.59,0,0,1,995,425.7c-.29-.42-.4-.7-.33-.85l7.57-16.15,4.23,23.53a2.14,2.14,0,0,0,.46.9,4.8,4.8,0,0,0,1.23,1l10.1-21.53c.08-.17.39-.26.93-.29a6.66,6.66,0,0,1,2.18.38l.37-.78-7.32-3.43Z" transform="translate(-1 -2)"/><path class="cls-2" d="M1026.87,440.59a1.32,1.32,0,0,1-.27-.44.37.37,0,0,1,0-.31l2.09-4.47,1.25.58a9.72,9.72,0,0,0,1-.25,4.71,4.71,0,0,0,1.09-.54l-.21-.76-2.19-1,6.39-13.63-.37-.94c-.43,0-.89.05-1.39.1a14.71,14.71,0,0,1-1.66,0L1017,429.16l.31.88,8.87,4.16-2,4.26a.47.47,0,0,1-.3.24,2,2,0,0,1-.7,0c-.32,0-.75-.1-1.3-.21s-1.23-.29-2.06-.52l-.37.79,8.73,4.09.37-.78c-.44-.34-.8-.63-1.07-.88A6.36,6.36,0,0,1,1026.87,440.59Zm.28-8.39-6.64-3.12,11.58-7.42Z" transform="translate(-1 -2)"/><path class="cls-2" d="M452.15,161.94a6.27,6.27,0,0,1,1.73,1.51q.4.62.3.84l-7.62,15.8-3.81-21.86c-.07-.42-.13-.75-.18-1a2.82,2.82,0,0,0-.18-.61,1.09,1.09,0,0,0-.25-.35,1.92,1.92,0,0,0-.42-.26L438,154.22l-.38.77a5.68,5.68,0,0,1,1.16,1,4.58,4.58,0,0,1,.83,1.42l-9.07,18.78c-.08.17-.38.27-.91.3a6.62,6.62,0,0,1-2.19-.43l-.37.77,7.28,3.48.37-.77a6.49,6.49,0,0,1-1.72-1.49c-.29-.41-.39-.69-.32-.84l7.71-16,4,23.42a2.22,2.22,0,0,0,.45.9,4.8,4.8,0,0,0,1.23,1l10.28-21.3c.08-.16.39-.26.93-.28a6.78,6.78,0,0,1,2.18.4l.37-.77-7.28-3.48Z" transform="translate(-1 -2)"/><path class="cls-2" d="M464.68,193.17a1.23,1.23,0,0,1-.27-.44.41.41,0,0,1,0-.31l2.13-4.42,1.25.59a9.84,9.84,0,0,0,1-.24,4.7,4.7,0,0,0,1.09-.52l-.2-.76-2.18-1,6.5-13.48-.35-.94c-.43,0-.9,0-1.4.09a12.73,12.73,0,0,1-1.65,0l-15.67,10,.3.87,8.83,4.21L462,191a.48.48,0,0,1-.3.23,1.83,1.83,0,0,1-.7,0,10.63,10.63,0,0,1-1.3-.22c-.54-.12-1.22-.29-2.06-.53l-.37.77,8.68,4.15.38-.77c-.44-.34-.79-.64-1.06-.88A5.2,5.2,0,0,1,464.68,193.17Zm.35-8.33-6.61-3.16,11.64-7.27Z" transform="translate(-1 -2)"/></svg>