<svg id="Layer_1" data-name="Layer 1" xmlns="http://www.w3.org/2000/svg" viewBox="0 0 611.72 191.44"><defs><style>.cls-1{fill:#fdb324;}.cls-2{fill:#b27824;}.cls-3{fill:#fff;}</style></defs><title>logo</title><path class="cls-1" d="M870.36,526.64c0-.21,0-.4,0-.6a3.37,3.37,0,0,0,.32-.19.65.65,0,0,0-.27-1.19.71.71,0,0,0-.05-.16.48.48,0,0,0-.31-.37,11.58,11.58,0,0,0-2-3.19c-1.93-2.39-4-4.65-6-7-.43-.75-.87-1.48-1.36-2.18a7.61,7.61,0,0,1,.75.28,36.41,36.41,0,0,0,5.16,3.93c1,.69,2.21,1.23,3.3,1.82.25.14.88.56,1.49,1a4.71,4.71,0,0,0-.88-.08.35.35,0,0,0-.21.61c.25.19.51.34.77.5a1.08,1.08,0,0,0,.07.27c.28.54,1.05.52,1.55.64a.86.86,0,0,0,.27,0,5.25,5.25,0,0,0,.7,0,.4.4,0,0,0,.38-.34c.17-1.41-2.79-2.73-3.81-3.3-1.85-1.06-3.77-2.09-5.59-3.27a9.41,9.41,0,0,0,1.15.57,34.89,34.89,0,0,0,8.91,2,.4.4,0,0,0,.4-.59.69.69,0,0,0-.12-1.28,9.48,9.48,0,0,0-2.63-.4.45.45,0,0,0-.38.65.55.55,0,0,0-.34.56,23.06,23.06,0,0,1-7.41-2.36c-.62-.33-1.3-.81-2-1.21,5.11.72,11.41-1.82,14.95-4.68a.4.4,0,0,0,0-.69c-2.84-1.61-6.12-1.28-9.27-1.71a69.38,69.38,0,0,1-12-3c1.11-.19,2.22-.44,3.31-.73,1.75-.47,3.53-.71,5.28-1.11.13,0,.12-.26,0-.27-3.1-.36-6.26,1.38-9.3,1.88l-.21-.07c-.78-.25-1.79-.55-2.92-.83,3.33-.26,6.78-1.61,10-2,3-.32,6.09-.46,8.84.8,1.62.74-3.06,2.53-3.54,2.7a26.13,26.13,0,0,1-5.26.93c-.17,0-.21.28,0,.31,3.59.62,7.6-.89,10.43-3.05a.43.43,0,0,0,0-.67c-5.76-5.38-15.47,0-22.12.58a18.93,18.93,0,0,0-7.75-.26q6.83-4.62,13.85-8.86,3.32-2,6.69-3.88c3.69,2.69,7.87,5.88,12.21,7,1.19.32,6.54,1.77,7.21-.17,1-2.83-4.53-5.41-6.45-6-3-.94-7.18-2.31-10.78-2.07q6.84-3.75,13.9-7.06l.35.11c1.24,1.9,3.86,3.42,5.63,4.59s4.71,3.08,7,2.13c2.48-1,.56-4-.66-5.18-2.56-2.39-6-3-9.38-3q4-1.81,8-3.47c1.84,2.72,12.75,11.87,13.83,5.21.5-3.08-5.87-6.22-10-6.73,2.45-.95,4.92-1.88,7.41-2.76,1.32,1.74,3.8,3.13,5.48,4.24s4.28,3.05,6.29,2.28c2.21-.85.19-4-.84-4.83a14.74,14.74,0,0,0-7.83-2.77c2.15-.72,4.31-1.42,6.49-2.08a0,0,0,0,0,0,0c1.92,2.63,5.54,4.47,8.6,5.37,1.48.44,4,.31,3.19-1.85s-3.74-3.77-5.77-4.66c-.29-.12-.61-.25-1-.36,1.16-.32,2.31-.64,3.48-.94a5.23,5.23,0,0,0,.7.37c1.63,2.29,4.56,3.88,7.12,4.84,1,.36,3.56.81,3.92-.72.49-2.11-1.92-3.82-3.54-4.57a11.83,11.83,0,0,0-3.93-1c2-.47,4-.93,6-1.35a.33.33,0,0,0,0,.1c.07.19.17.38.26.57h0a.19.19,0,0,0-.16.32,3.33,3.33,0,0,0,.58.37,13,13,0,0,0,4,3.82c1.07.66,3.13,1.52,4,.18s-1.18-3.54-2.15-4.2a11.4,11.4,0,0,0-4.46-1.6q2.64-.52,5.29-1a2.41,2.41,0,0,0,.37.41c-.16,0-.33.18-.2.33a1.44,1.44,0,0,0,.38.32,5.75,5.75,0,0,0,2.27,2.6c.89.65,2.32,1.54,3.43,1s.15-2.78-.42-3.4a6.3,6.3,0,0,0-3.16-1.69l.66-.12a.19.19,0,0,0,.23.11,3.82,3.82,0,0,0,.55-.24l.12,0a.2.2,0,0,0,.14-.08c.22-.12.45-.25.67-.39s.61-.14.91-.22a.23.23,0,0,0,.07.33l.06,0a.17.17,0,0,0,.14,0,9.11,9.11,0,0,0,3,1.43c.76.28,2.75,1.15,3.44.33.88-1-.69-2-1.48-2.23a9.45,9.45,0,0,0-2.9-.34,9.8,9.8,0,0,0-1.3.06c.51-.17,1-.36,1.4-.5,1-.37,3.49-1.27,3.18-2.74-.89-4.22-6.86,1.31-8.61,3.38l-.44.28a.38.38,0,0,0-.16.47l-1.1.17c-.5-.06-1-.1-1.46-.11-.21,0-.22.23-.1.34l-.72.11a13.73,13.73,0,0,0,3.7-3.11c.72-.81,2.2-2.64,1-3.61s-3.24.8-4,1.7a21.63,21.63,0,0,0-1.64,2.58,8.79,8.79,0,0,0-1.28,2.34.11.11,0,0,0,0,.1l-.13.07a.23.23,0,0,0-.1.3c-1.34.22-2.67.47-4,.72l-.22,0h0c2.12-1.2,8.3-8.64,4.7-9.07-2.74-.33-6.92,7.52-5.77,9.34-2,.4-4,.84-6,1.29,3.23-2.06,8.19-8.12,5.06-10-2.16-1.28-4,1.74-5,3.25-.89,1.34-3.45,5.43-2.1,7.11a.23.23,0,0,0,.17.07h0c-2.14.51-4.26,1.07-6.38,1.66a4.78,4.78,0,0,0-1.07,0A14.89,14.89,0,0,0,918,458c.57-1.9,1-4.95-1.87-4.59-2.18.28-3.76,3.81-4.55,5.48s-2.43,5.2-1.18,7.08q-3.55,1-7.09,2.24a13.91,13.91,0,0,0,3.9-5.94c.39-1.25.79-3.72-1-4.07-2-.41-3.61,2.47-4.28,3.9-.92,2-1.8,4.78-1,6.92-3.06,1.07-6.09,2.22-9.11,3.42a19.11,19.11,0,0,0,5.31-7.93c.6-1.92.61-4.46-2-4.12-2.42.33-3.75,3.49-4.47,5.44-.78,2.14-1.55,5.12-.88,7.43-2.61,1.06-5.2,2.19-7.78,3.35a16.34,16.34,0,0,0,4.61-6.82c.63-2.17.26-4.72-2.49-4.31-2.25.33-3.5,3.68-4.17,5.45-.75,2-1.65,4.72-1.25,7a1.42,1.42,0,0,0-1.1.21.19.19,0,0,0,0,.3.82.82,0,0,0,.22.16c-5,2.36-9.9,4.9-14.74,7.57,4.06-7.21,9.89-13,15.47-19.09,4-4.3,7.72-8.7,8.76-14.62a.46.46,0,0,0-.7-.47c-3.6,2.22-7.27,4.42-9.9,7.67a36.55,36.55,0,0,1,2.34-3.35c.51-.67,1-1.35,1.51-2l.5-.75a1,1,0,0,0,.4-1s0,0,.07,0a1.26,1.26,0,0,0,.17-.13c-.08.22-.07.2,0,0l.31-.25a4.46,4.46,0,0,0,2.66-2.6.66.66,0,0,0-1-.84,5.6,5.6,0,0,0-2.15,2.29l-.32.29a.46.46,0,0,0,0,.69.26.26,0,0,0,.05.12l-.06.09,0,0a.27.27,0,0,0-.09.22c-1.64,2.78-3.94,5.11-5.24,8.08,0-.16,0-.33,0-.5,1.78-3.18,2.8-6.71,4.32-10a4,4,0,0,0,1.74-3.32c0-.71-.89-.86-1.3-.44A5.78,5.78,0,0,0,879,450c0,.31.36.6.59.29l.11-.15h.11c-1,2.85-2.42,5.6-3.59,8.38.31-3.28.26-6.61.46-10a.42.42,0,0,0-.44-.39c-3.49.31-6.59,4.71-8.33,8.47a38,38,0,0,0,1.72-8.34.39.39,0,0,0,0-.18,1.17,1.17,0,0,1,.05-.11v0a.28.28,0,0,0,.5-.1,5.14,5.14,0,0,1,.13-.8.5.5,0,0,0,.17-.21,11.53,11.53,0,0,0,.67-1.68c.2-.65-.83-1.18-1.22-.59a4.74,4.74,0,0,0-.31.52.66.66,0,0,0-.63.67,5.22,5.22,0,0,1-.62,2.57.48.48,0,0,0,.59.64c-.4,3.67-2.13,7.07-2.47,10.72a.19.19,0,0,0,.22.2c-.21.8-.39,1.6-.54,2.41a43.13,43.13,0,0,0-.83-11.39.56.56,0,0,0,0-.39.24.24,0,0,0,0-.08,2,2,0,0,0-.12-.45c-.13-.44-.27-.88-.44-1.32a.64.64,0,0,0-.78-.39.55.55,0,0,0-.72.54,2,2,0,0,0,0,.28c-.46.95-.53,2.19.89,2.27h.32a26.77,26.77,0,0,1,1.25,10.6c-1.81-4.83-9.76-8.88-14-8.09a.39.39,0,0,0-.23.68c4.84,4.1,8.93,9.76,9.7,16.05.68,5.66,2.46,11.5-.58,16.8a.14.14,0,0,0,0,.11l-3,1.72q-3.93,2.31-7.83,4.76a42.1,42.1,0,0,0,5.46-14.57c.23-1.51.69-6.91-1.95-6.75-3.56.2-5.47,5.54-6,8.27-1,4.6-.13,9.51,1,14q-5.42,3.44-10.72,7.15h0a.36.36,0,0,0-.14.1q-2.53,1.77-5.06,3.6c2.31-4.32,4.13-12-.3-12.82-2.59-.46-3.8,3.72-4,5.48-.41,3.2.32,6.67,1,9.83a235.14,235.14,0,0,0-40.43,38.38c-.46.56.39,1.31.86.74a232.29,232.29,0,0,1,34.74-33.86.24.24,0,0,0,.31,0l.06-.05c2,1.35,5.82,1,8.08.86,1.84-.08,6.05-.22,6.37-2.73.38-2.93-3.8-3.31-5.67-3a17.06,17.06,0,0,0-4.84,1.59q5.24-4,10.63-7.75a6.11,6.11,0,0,1,3.5.66c4.41,3.7,2.76,10.9,2.78,15.82a23.61,23.61,0,0,0,3.92,13.19.36.36,0,0,0,.62,0c2.33-5.14,3.95-11,2.68-16.56,3,4.63,6.91,11.21,12.45,12.41a.4.4,0,0,0,.44-.21c1.06-2.3-.64-6.71-1.32-9a21.12,21.12,0,0,0-1-2.59c1,1.15,2,2.27,2.93,3.44s2.78,2.88,3.4,4.62a.61.61,0,0,0-.3.55,7.72,7.72,0,0,0,.32,2A.46.46,0,0,0,870.36,526.64Zm3.09-38.52a17.06,17.06,0,0,1,6.28,2.62,8.89,8.89,0,0,1,2,2.12c1.13,1.58-1.5,1.47-2,1.46a16.45,16.45,0,0,1-7.69-2.27,45.66,45.66,0,0,1-4.3-3,17.76,17.76,0,0,0,2.88.52.34.34,0,0,0,.21-.63,24,24,0,0,0-6-2.13C867.67,486.64,870.78,487.55,873.45,488.12Zm73.84-28.72a4.21,4.21,0,0,1,2,.64c.43.33.44.91-.14.95a6.81,6.81,0,0,1-3.48-1,1.7,1.7,0,0,0,1.14-.13.12.12,0,0,0,0-.22l-1.36-.31A12.5,12.5,0,0,1,947.29,459.4Zm-3.45-2.63a11,11,0,0,0-1.09.53l.48-.48a14.47,14.47,0,0,1,2.39-1.79c.73-.43,3.15-.57,2.53.94-.53,1.28-3.17,1.8-4.34,2.12-.48.13-1,.24-1.45.34a13.1,13.1,0,0,0,1.67-1.37A.18.18,0,0,0,943.84,456.77Zm-5.74,3.59a15,15,0,0,1,3.27,1,3.29,3.29,0,0,1,1.67,1.93c.15.44.33,1.19-.32,1.23-1,0-2.05-.88-2.73-1.44a7.79,7.79,0,0,1-1.07-1.16l.6.05c.38,0,.42-.52.13-.68a15.66,15.66,0,0,1-1.85-.89Zm-2.41-1.11c.38-.44.72-.92,1.06-1.34a.18.18,0,0,0-.27-.24c-.23.25-.48.49-.73.75v0a19.52,19.52,0,0,1,2.52-3.66c.59-.61,2.86-1.31,2.06.36a7.1,7.1,0,0,1-1.39,1.74A12.12,12.12,0,0,1,935.69,459.25Zm1.93,6.54c.94,2.71-3.11.3-3.81-.25a11.64,11.64,0,0,1-1.7-1.74h0a.37.37,0,0,0,.32-.64c-.43-.37-.9-.84-1.4-1.23C933.65,462.54,936.71,463.14,937.62,465.79Zm-8.15-5.37c.18-.28.34-.57.5-.86a10.45,10.45,0,0,0,1-1.78.23.23,0,0,0-.38-.25,5,5,0,0,0-.85,1.2c-.07.12-.15.24-.23.35-.18.27-.37.55-.52.83a20,20,0,0,1,1.41-3.18c.71-1.4,2-4.13,3.91-3.93,1.42.16-1.29,3.94-1.56,4.3A12.08,12.08,0,0,1,929.47,460.42Zm-7.69,3.4c3.18-.06,6.7.71,8.47,3.33,1.11,1.63-.52,2.14-1.79,1.93a9.92,9.92,0,0,1-2.66-1,20.14,20.14,0,0,1-4.24-3,4.43,4.43,0,0,0,1.54,0c.28-.06.23-.49,0-.53a9.6,9.6,0,0,1-2-.5Zm-.22-3a2.13,2.13,0,0,0-.16.25,3.54,3.54,0,0,0-.69,1.05c.12-3.23,4.8-10.93,6.84-8.54,1.31,1.54-1.56,4.67-2.47,5.71a17.7,17.7,0,0,1-3.47,3.05,4.61,4.61,0,0,0,1.12-1.94.22.22,0,0,0-.13-.28.2.2,0,0,0-.28-.24A2.89,2.89,0,0,0,921.56,460.81Zm-6.66,4.85a12.88,12.88,0,0,1,6.2,3.53c.56.55,1.95,2.21.45,2.44a7.23,7.23,0,0,1-3.52-.84,23.13,23.13,0,0,1-4.56-2.75,2.52,2.52,0,0,0,1.47-.12.29.29,0,0,0,0-.54,8.17,8.17,0,0,0-2-.81,4.64,4.64,0,0,0-.76-.14Zm-2.73,1.21a7.14,7.14,0,0,1,.93.28,8.6,8.6,0,0,1,.84.33,14.62,14.62,0,0,1-2.05-.51c-.1-.06-.19-.13-.29-.18A1.36,1.36,0,0,1,912.17,466.87ZM911.5,465l.12-.07a.09.09,0,0,0,0-.16,4.26,4.26,0,0,0,.25-.93c.29-.69.6-1.36.87-2.05.13-.3-.32-.54-.46-.23-.24.53-.51,1.05-.77,1.56a.36.36,0,0,0-.25.23c-.09.29-.2.58-.31.87-.07.14-.13.29-.2.44-.13-3.35,2.34-7.64,4.4-9.76,1.26-1.3,2.76-.75,2.57,1.12a10.64,10.64,0,0,1-.88,2.91c-1.13,2.69-3.39,4.34-5.41,6.27Zm-8,4.21a20.16,20.16,0,0,1,7.31,2.13c1.48.75,3,2.06,2.66,3.89-.23,1.28-2.15.49-2.84.21-2.63-1.08-4.7-2.94-6.89-4.64a1.87,1.87,0,0,0,.93-.28.34.34,0,0,0-.12-.6,4.88,4.88,0,0,1-1-.38l-.38-.19Zm-2.08-.74a.26.26,0,0,0,.17-.09,3.22,3.22,0,0,0,.63-1.35c.12-.25.25-.51.36-.77s-.12-.36-.27-.23l0,0a.37.37,0,0,0-.56.08,3.63,3.63,0,0,0-.29.75c.21-2.75,1.43-5.88,3.35-7.44,2.68-2.17,2,2.27,1.49,3.46-1.09,2.53-3,4-4.8,5.92C901.39,468.74,901.39,468.62,901.37,468.49Zm-8.57,4.7c3.78.1,12,3.31,10.27,7-1.51,3.23-7.3-1.58-10.53-4.6a5.11,5.11,0,0,0,2.79.83.36.36,0,0,0,.21-.63,9.63,9.63,0,0,0-2.72-1.5,11.89,11.89,0,0,0-1.29-.55Zm-2.57-.68a.23.23,0,0,0,.2-.1,3.3,3.3,0,0,0,.76-1.92c.22-.51.44-1,.63-1.55.08-.22-.24-.4-.34-.17-.36.85-.86,1.64-1.23,2.48a15.52,15.52,0,0,1,3.2-9c1-1.22,3.57-1.56,3.35.73a9.15,9.15,0,0,1-.86,2.84,21.53,21.53,0,0,1-3.74,5.12,31.33,31.33,0,0,1,1.72-4.12c.15-.26-.25-.45-.4-.2a35.31,35.31,0,0,0-2.66,5.9l-.42.53-.2.08C890.23,472.9,890.24,472.7,890.23,472.51Zm-9.16,5.68a14.82,14.82,0,0,1,9.1,2.22c1.34.92,3.49,2.81,2.15,4.57-.7.92-2.36.33-3.21,0-3.06-1.1-5.47-3.26-7.88-5.36l.38.11a30.12,30.12,0,0,0,4.91,2.25.15.15,0,0,0,.13-.27,19.94,19.94,0,0,0-2.91-1.73l.21,0a.39.39,0,0,0,0-.77,12.61,12.61,0,0,1-3.09-1Zm1.75-11c1-1.2,3.3-1.73,3.42.68a7.31,7.31,0,0,1-.88,3.35c-1.26,2.6-3.84,4.32-5.67,6.5l-.38.17C879,474.36,880.75,469.7,882.82,467.17Zm2.79-13.56c1.64-1-2.74,6.86-2.67,6.75a51,51,0,0,1-4,5c-3.84,4.5-8,8.78-11.58,13.46,2.27-3.73,4.44-7.52,6.38-11.32a21.11,21.11,0,0,0,1.83-5.24A37.55,37.55,0,0,1,885.61,453.61Zm-22.44,15.24c0,2.36-.3,4.66-.48,7a45.41,45.41,0,0,0-2-11c-.52-1.52-6.5-10.55-8.1-10.26,5.2-.95,11.36,5.12,13,9.61,0,.23,0,.47-.07.69a.16.16,0,0,0,.16.18c-.5,3.62-.73,7.28-1.58,10.88-.4,1.66-.68,4.32-1.24,6.74.48-2.46.21-4.9.42-7.38.18-2.16.79-4.34.2-6.48C863.41,468.64,863.18,468.7,863.17,468.85Zm.79,10.4c.77-3.8,1.83-7.5,2.26-11.36s.95-7.91,2.86-11.54a23.28,23.28,0,0,1,2.3-3.28c.14-.18,4.42-4.38,4.36-3.22-.25,4.34,0,8.49-1,12.78s-3.77,8.17-6.08,12c-1.45,2.36-2.76,4.8-4.11,7.21,1.09-2.54,1.87-5.22,2.79-7.86,1.54-4.41,3.61-8.78,4.09-13.47a.11.11,0,0,0-.21,0c-1.13,4.09-2.6,8-4,12.06S865,480.39,863,484C863.48,482.33,863.7,480.52,864,479.25Zm-11.84-5.39c2.9-2.13,2.5,4.1,2.44,5a23.07,23.07,0,0,1-1.46,6.08,63.63,63.63,0,0,1-3.24,6.77c.75-1.93,1.23-4.22.49-5.91a.37.37,0,0,0-.61-.13,3.57,3.57,0,0,0-.3.38.26.26,0,0,0-.5,0c-.08.35-.13.71-.18,1.07-.7,1.66-.61,3.78-.7,5.47,0,.36.59.4.64,0,.2-1.45.27-2.91.43-4.36a4.49,4.49,0,0,1,.73-1.64c.55,2.26-1,4.75-1.29,6.94a.19.19,0,0,0,.35.11l0-.05c-.16.37-.31.75-.45,1.13C847,487.94,845.81,478.49,852.12,473.86Zm-22.74,33.05a.23.23,0,0,0,.17-.17c.26-.74.42-1.51.65-2.27a.29.29,0,0,0-.32-.37c.07-.3.14-.6.2-.9a.25.25,0,0,0-.49-.1c-.14.62-.36,1.22-.51,1.83-.61-3.61-1.31-7.42,1.13-10.32,1.56-1.86,2.94-.17,3.38,1.37a6.87,6.87,0,0,1-.14,3.4,37.09,37.09,0,0,1-3,7.83l-1,.71C829.47,507.59,829.43,507.25,829.38,506.91Zm1.25,3.5a11.66,11.66,0,0,0-2.06.5,28.2,28.2,0,0,1,2.63-1.1,10.21,10.21,0,0,1,4.44-.63c1.33.15,3.68,1.94,2.11,3.29s-4.87,1.19-6.85,1.18a37.42,37.42,0,0,1-5-.41c1.1-.16,2.19-.32,3.27-.58a.2.2,0,0,0,.12-.32l.17-.08c.19-.1.06-.38-.12-.37a16.07,16.07,0,0,0-3,.44,15.64,15.64,0,0,1,1.66-.57,14,14,0,0,0,2.74-1A.21.21,0,0,0,830.63,510.41Zm9.75-8.8c3.38-2.24,9.55-.95,13,0,4.82,1.3,9.36,2.85,14.3,3.82,1.8.35,3.67.37,5.49.56,4.86.5.95,2.29-1.29,3.27a19.79,19.79,0,0,1-12.15,1.26,31.16,31.16,0,0,0-3.2-3.49,22.19,22.19,0,0,0-3.92-2.87c1.26.55,2.51,1.09,3.74,1.53,3.72,1.32,7.7,2.43,11.61,1.48.13,0,.08-.21,0-.22a40.86,40.86,0,0,1-16.14-3.65c-2.78-1.16-5.94-2.92-9-2A10.08,10.08,0,0,0,840.38,501.61Zm10.12,27.23c-1.47,4.22-2.87-1.22-3.46-3.13a30.25,30.25,0,0,1-.89-8.49c0-3.44.92-9.2-1.37-12.49a19.25,19.25,0,0,1,1.89,2A17.62,17.62,0,0,1,848.4,515c0,2.69-.71,5.54-.15,8.19,0,.17.29.13.32,0a43.84,43.84,0,0,0,.53-10,13.78,13.78,0,0,0-.66-3.94c1.26,1.86,2.35,3.76,3.29,5.21a.2.2,0,0,0,0,.16A26.69,26.69,0,0,1,850.5,528.84ZM863,526.57c-4-1.75-6.75-6.87-9.08-10.31-2.57-3.78-6.12-11.38-11.06-13.77a21.76,21.76,0,0,1,5.84,3.72c3.66,2.92,5.57,7.18,8.43,10.76a.12.12,0,0,0,.19-.13c-2.61-5-5.71-9.55-10.44-12.73a16.05,16.05,0,0,0-4.61-2.32c6.16-.3,12.25,4,16.25,8.69a.2.2,0,0,0,.09.18l.12.06c.19.22.36.44.53.66a.15.15,0,0,0,.12.25h.08c.32.41.62.82.89,1.22C861.08,513.88,866.67,528.17,863,526.57Z" transform="translate(-653.91 -444.38)"/><path class="cls-1" d="M879.87,476.76a2.9,2.9,0,0,0,1.1-1.69.23.23,0,0,0-.17-.28,10.53,10.53,0,0,1,.75-1.29c.19-.28-.2-.64-.41-.35a12.7,12.7,0,0,0-1.78,3.25.31.31,0,0,0,0,.25,1.22,1.22,0,0,0,0,.27c0,.14.22.25.33.11S879.82,476.85,879.87,476.76Z" transform="translate(-653.91 -444.38)"/><path class="cls-1" d="M848.58,483.46l.42-1.73c0-.19-.25-.29-.32-.11-.2.52-.42,1-.59,1.56a3.26,3.26,0,0,0-.26,1.68.2.2,0,0,0,.36,0A6.22,6.22,0,0,0,848.58,483.46Z" transform="translate(-653.91 -444.38)"/><path class="cls-1" d="M872.52,471.8a57.19,57.19,0,0,0,6.42-9.4c.07-.12-.12-.24-.2-.13-2.21,3-4.43,6.2-6.39,9.41A.11.11,0,0,0,872.52,471.8Z" transform="translate(-653.91 -444.38)"/><path class="cls-1" d="M871.59,464.3a32,32,0,0,0,1.8-6.31c.06-.26-.34-.34-.41-.08-.56,2.09-1.23,4.17-1.69,6.29A.16.16,0,0,0,871.59,464.3Z" transform="translate(-653.91 -444.38)"/><path class="cls-1" d="M862.55,461.58c0-.26-.43-.13-.38.12.23,1.19.68,2.36,1,3.52,0,.11.21.1.22,0C863.58,464,862.78,462.76,862.55,461.58Z" transform="translate(-653.91 -444.38)"/><path class="cls-1" d="M864.26,458.9c.13.3.23.61.39.9.08.14.27,0,.24-.12a22.37,22.37,0,0,0-3.13-6.45.6.6,0,0,0-.13-.75c-.43-.43-.78-.84-1.21-1.25a.53.53,0,0,0-.28-.14L860,451c-.54-.48-1.45.27-1,.86l.13.12h0l0,0a7.94,7.94,0,0,0,1.61,1.44.69.69,0,0,0,.6.08c.39.69.76,1.41,1.18,2.05a22.23,22.23,0,0,1,1.61,2.91c0,.08.08.18.14.3S864.23,458.83,864.26,458.9Z" transform="translate(-653.91 -444.38)"/><path class="cls-1" d="M852.66,508.4c-.08-.09-.24.05-.16.14,1.78,2.06,3.3,4.32,5,6.4a.12.12,0,0,0,.2-.13A31.15,31.15,0,0,0,852.66,508.4Z" transform="translate(-653.91 -444.38)"/><path class="cls-1" d="M865.37,508.15c-2.86.65-6-.2-8.58-1.39-.07,0-.12.07,0,.12a11.39,11.39,0,0,0,8.7,1.49C865.59,508.34,865.52,508.12,865.37,508.15Z" transform="translate(-653.91 -444.38)"/><path class="cls-1" d="M862.71,500.52a5.92,5.92,0,0,0-2.65.61c-.14.06-.07.29.07.23a18.44,18.44,0,0,1,2.61-.65A.1.1,0,0,0,862.71,500.52Z" transform="translate(-653.91 -444.38)"/><path class="cls-1" d="M849.08,523.08c0,.1.17.14.2,0a27.14,27.14,0,0,0,.84-4.18.2.2,0,0,0-.39-.08A27.41,27.41,0,0,0,849.08,523.08Z" transform="translate(-653.91 -444.38)"/><path class="cls-1" d="M1049.18,526.64c0-.21,0-.4,0-.6l-.32-.19a.65.65,0,0,1,.27-1.19.71.71,0,0,1,.05-.16.48.48,0,0,1,.31-.37,12.07,12.07,0,0,1,2-3.19c1.93-2.39,4-4.65,6-7a25.55,25.55,0,0,1,1.35-2.18,7.61,7.61,0,0,0-.75.28,36.41,36.41,0,0,1-5.16,3.93c-1.05.69-2.2,1.23-3.3,1.82-.24.14-.87.56-1.49,1a4.71,4.71,0,0,1,.88-.08.35.35,0,0,1,.21.61c-.25.19-.51.34-.77.5a.6.6,0,0,1-.07.27c-.28.54-1.05.52-1.55.64a.86.86,0,0,1-.27,0,5.1,5.1,0,0,1-.69,0,.41.41,0,0,1-.39-.34c-.17-1.41,2.8-2.73,3.81-3.3,1.85-1.06,3.78-2.09,5.59-3.27a10.08,10.08,0,0,1-1.14.57,35.06,35.06,0,0,1-8.92,2,.4.4,0,0,1-.4-.59.69.69,0,0,1,.12-1.28,9.48,9.48,0,0,1,2.63-.4.45.45,0,0,1,.38.65.53.53,0,0,1,.34.56,23.12,23.12,0,0,0,7.42-2.36c.61-.33,1.3-.81,2-1.21-5.11.72-11.41-1.82-15-4.68a.4.4,0,0,1,.05-.69c2.84-1.61,6.13-1.28,9.27-1.71a68.93,68.93,0,0,0,12-3c-1.11-.19-2.22-.44-3.31-.73-1.75-.47-3.52-.71-5.28-1.11-.13,0-.12-.26,0-.27,3.1-.36,6.27,1.38,9.3,1.88l.22-.07c.77-.25,1.78-.55,2.91-.83-3.33-.26-6.78-1.61-10-2-3-.32-6.09-.46-8.84.8-1.62.74,3.06,2.53,3.54,2.7a26.1,26.1,0,0,0,5.27.93c.16,0,.2.28,0,.31-3.59.62-7.6-.89-10.43-3.05a.43.43,0,0,1,0-.67c5.76-5.38,15.47,0,22.13.58a18.92,18.92,0,0,1,7.75-.26q-6.84-4.62-13.86-8.86c-2.2-1.33-4.44-2.62-6.69-3.88-3.69,2.69-7.86,5.88-12.21,7-1.19.32-6.54,1.77-7.21-.17-1-2.83,4.54-5.41,6.45-6,3-.94,7.18-2.31,10.78-2.07q-6.84-3.75-13.89-7.06l-.36.11c-1.24,1.9-3.86,3.42-5.63,4.59s-4.71,3.08-7,2.13c-2.48-1-.55-4,.66-5.18,2.57-2.39,6-3,9.38-3q-4-1.81-8-3.47c-1.84,2.72-12.75,11.87-13.83,5.21-.5-3.08,5.88-6.22,10-6.73-2.46-.95-4.93-1.88-7.42-2.76-1.31,1.74-3.8,3.13-5.48,4.24s-4.27,3.05-6.29,2.28c-2.21-.85-.19-4,.84-4.83a14.74,14.74,0,0,1,7.83-2.77c-2.15-.72-4.31-1.42-6.49-2.08v0c-1.93,2.63-5.55,4.47-8.6,5.37-1.49.44-4,.31-3.2-1.85s3.74-3.77,5.77-4.66c.29-.12.61-.25.95-.36-1.16-.32-2.31-.64-3.47-.94a5.34,5.34,0,0,1-.71.37c-1.63,2.29-4.56,3.88-7.12,4.84-1,.36-3.56.81-3.92-.72-.49-2.11,1.92-3.82,3.54-4.57a11.83,11.83,0,0,1,3.94-1c-2-.47-4-.93-6-1.35a.33.33,0,0,1,0,.1c-.07.19-.17.38-.26.57h0a.19.19,0,0,1,.16.32,3,3,0,0,1-.58.37,13,13,0,0,1-4,3.82c-1.08.66-3.14,1.52-4,.18s1.18-3.54,2.15-4.2a11.51,11.51,0,0,1,4.47-1.6c-1.77-.35-3.53-.68-5.3-1a2.41,2.41,0,0,1-.37.41c.16,0,.33.18.2.33a1.44,1.44,0,0,1-.38.32c-.26,1.07-1.48,2-2.27,2.6s-2.32,1.54-3.43,1-.15-2.78.42-3.4a6.3,6.3,0,0,1,3.16-1.69l-.65-.12a.2.2,0,0,1-.23.11,3.5,3.5,0,0,1-.56-.24l-.12,0a.17.17,0,0,1-.13-.08c-.23-.12-.45-.25-.68-.39s-.61-.14-.91-.22a.23.23,0,0,1-.07.33l-.06,0a.16.16,0,0,1-.13,0,9.25,9.25,0,0,1-3.05,1.43c-.76.28-2.74,1.15-3.44.33-.88-1,.69-2,1.49-2.23a9.35,9.35,0,0,1,2.89-.34,9.72,9.72,0,0,1,1.3.06c-.51-.17-1-.36-1.4-.5-1-.37-3.48-1.27-3.17-2.74.88-4.22,6.85,1.31,8.6,3.38l.44.28a.38.38,0,0,1,.16.47l1.1.17c.5-.06,1-.1,1.47-.11.2,0,.22.23.09.34l.72.11a13.73,13.73,0,0,1-3.7-3.11c-.72-.81-2.2-2.64-1-3.61s3.24.8,4,1.7a19.37,19.37,0,0,1,1.64,2.58,8.52,8.52,0,0,1,1.28,2.34.11.11,0,0,1,0,.1l.13.07a.24.24,0,0,1,.11.3c1.33.22,2.67.47,4,.72l.23,0h0c-2.12-1.2-8.3-8.64-4.7-9.07,2.74-.33,6.93,7.52,5.77,9.34,2,.4,4,.84,6,1.29-3.23-2.06-8.18-8.12-5-10,2.15-1.28,4,1.74,5,3.25.88,1.34,3.44,5.43,2.09,7.11a.2.2,0,0,1-.16.07h0c2.13.51,4.25,1.07,6.37,1.66a4.78,4.78,0,0,1,1.07,0,14.86,14.86,0,0,1-4.91-6.92c-.58-1.9-1-4.95,1.86-4.59,2.18.28,3.76,3.81,4.56,5.48s2.42,5.2,1.17,7.08c2.37.7,4.74,1.45,7.09,2.24a13.8,13.8,0,0,1-3.89-5.94c-.4-1.25-.79-3.72,1-4.07,2-.41,3.61,2.47,4.28,3.9.92,2,1.8,4.78,1,6.92,3.06,1.07,6.1,2.22,9.11,3.42a19.21,19.21,0,0,1-5.31-7.93c-.6-1.92-.6-4.46,2-4.12,2.42.33,3.75,3.49,4.47,5.44.78,2.14,1.55,5.12.89,7.43,2.61,1.06,5.2,2.19,7.77,3.35a16.31,16.31,0,0,1-4.6-6.82c-.64-2.17-.27-4.72,2.48-4.31,2.25.33,3.5,3.68,4.17,5.45.75,2,1.65,4.72,1.25,7a1.42,1.42,0,0,1,1.1.21.19.19,0,0,1,0,.3.82.82,0,0,1-.22.16c5,2.36,9.9,4.9,14.74,7.57-4.06-7.21-9.88-13-15.47-19.09-4-4.3-7.72-8.7-8.76-14.62a.46.46,0,0,1,.7-.47c3.6,2.22,7.27,4.42,9.9,7.67a34.69,34.69,0,0,0-2.34-3.35c-.51-.67-1-1.35-1.5-2l-.51-.75a.93.93,0,0,1-.39-1s-.06,0-.08,0-.11-.09-.17-.13c.08.22.07.2,0,0l-.3-.25a4.48,4.48,0,0,1-2.67-2.6.67.67,0,0,1,1-.84,5.64,5.64,0,0,1,2.14,2.29l.32.29a.46.46,0,0,1,0,.69.42.42,0,0,1,0,.12.41.41,0,0,0,0,.09l0,0a.25.25,0,0,1,.09.22c1.64,2.78,3.94,5.11,5.25,8.08l-.06-.5c-1.78-3.18-2.8-6.71-4.32-10a4,4,0,0,1-1.74-3.32c0-.71.89-.86,1.3-.44a5.73,5.73,0,0,1,1.81,3.85c0,.31-.36.6-.59.29l-.11-.15h-.11c1,2.85,2.42,5.6,3.6,8.38-.32-3.28-.27-6.61-.46-10a.41.41,0,0,1,.43-.39c3.49.31,6.59,4.71,8.33,8.47a38.55,38.55,0,0,1-1.72-8.34.39.39,0,0,1,0-.18,1.17,1.17,0,0,0,0-.11v0a.27.27,0,0,1-.49-.1,6.67,6.67,0,0,0-.14-.8.58.58,0,0,1-.17-.21,12.78,12.78,0,0,1-.67-1.68c-.2-.65.84-1.18,1.22-.59a4.74,4.74,0,0,1,.31.52.66.66,0,0,1,.63.67,5.33,5.33,0,0,0,.62,2.57.48.48,0,0,1-.59.64c.4,3.67,2.13,7.07,2.47,10.72a.19.19,0,0,1-.22.2c.22.8.39,1.6.54,2.41a43.13,43.13,0,0,1,.83-11.39.63.63,0,0,1,0-.39.24.24,0,0,0,0-.08,2.74,2.74,0,0,1,.12-.45c.13-.44.27-.88.44-1.32a.65.65,0,0,1,.79-.39.55.55,0,0,1,.72.54c0,.11,0,.19-.06.28.46.95.53,2.19-.89,2.27h-.32a26.77,26.77,0,0,0-1.25,10.6c1.81-4.83,9.76-8.88,14-8.09a.39.39,0,0,1,.23.68c-4.84,4.1-8.92,9.76-9.69,16.05-.69,5.66-2.47,11.5.57,16.8a.11.11,0,0,1,0,.11l3,1.72q3.93,2.31,7.83,4.76a42.1,42.1,0,0,1-5.46-14.57c-.22-1.51-.69-6.91,2-6.75,3.55.2,5.46,5.54,6,8.27,1,4.6.13,9.51-1,14q5.43,3.44,10.72,7.15h0a.3.3,0,0,1,.14.1q2.55,1.77,5.06,3.6c-2.31-4.32-4.13-12,.3-12.82,2.59-.46,3.81,3.72,4,5.48.41,3.2-.32,6.67-1,9.83a235.14,235.14,0,0,1,40.43,38.38c.46.56-.39,1.31-.86.74a232.29,232.29,0,0,0-34.74-33.86.24.24,0,0,1-.31,0l-.06-.05c-2,1.35-5.82,1-8.08.86-1.84-.08-6-.22-6.37-2.73-.38-2.93,3.81-3.31,5.67-3a17.06,17.06,0,0,1,4.84,1.59q-5.22-4-10.63-7.75a6.11,6.11,0,0,0-3.5.66c-4.41,3.7-2.76,10.9-2.77,15.82a23.7,23.7,0,0,1-3.93,13.19.35.35,0,0,1-.61,0c-2.34-5.14-4-11-2.69-16.56-3,4.63-6.91,11.21-12.45,12.41a.38.38,0,0,1-.43-.21c-1.07-2.3.63-6.71,1.31-9a21.12,21.12,0,0,1,1-2.59c-1,1.15-2,2.27-2.93,3.44s-2.78,2.88-3.4,4.62a.59.59,0,0,1,.3.55,8.19,8.19,0,0,1-.31,2A.46.46,0,0,1,1049.18,526.64Zm-3.1-38.52a17.06,17.06,0,0,0-6.28,2.62,8.85,8.85,0,0,0-2,2.12c-1.13,1.58,1.5,1.47,2,1.46a16.45,16.45,0,0,0,7.69-2.27,44.4,44.4,0,0,0,4.3-3,17.84,17.84,0,0,1-2.87.52.34.34,0,0,1-.22-.63,24,24,0,0,1,6-2.13C1051.86,486.64,1048.76,487.55,1046.08,488.12ZM972.24,459.4a4.21,4.21,0,0,0-2,.64c-.43.33-.43.91.14.95a6.81,6.81,0,0,0,3.48-1,1.68,1.68,0,0,1-1.13-.13.12.12,0,0,1,0-.22l1.36-.31A12.57,12.57,0,0,0,972.24,459.4Zm3.46-2.63a10.8,10.8,0,0,1,1.08.53c-.16-.16-.32-.33-.48-.48a14.82,14.82,0,0,0-2.38-1.79c-.74-.43-3.15-.57-2.54.94.53,1.28,3.17,1.8,4.34,2.12.48.13,1,.24,1.45.34a13.83,13.83,0,0,1-1.67-1.37C975.38,456.94,975.53,456.71,975.7,456.77Zm5.73,3.59a15.12,15.12,0,0,0-3.27,1,3.29,3.29,0,0,0-1.67,1.93c-.15.44-.33,1.19.32,1.23,1,0,2.05-.88,2.73-1.44a7.29,7.29,0,0,0,1.07-1.16L980,462c-.39,0-.43-.52-.14-.68a15.66,15.66,0,0,0,1.85-.89Zm2.41-1.11c-.38-.44-.72-.92-1.06-1.34a.18.18,0,0,1,.28-.24c.22.25.47.49.72.75v0a20,20,0,0,0-2.51-3.66c-.6-.61-2.87-1.31-2.07.36a7.1,7.1,0,0,0,1.39,1.74A12.44,12.44,0,0,0,983.84,459.25Zm-1.93,6.54c-.93,2.71,3.11.3,3.82-.25a11.11,11.11,0,0,0,1.69-1.74h0a.37.37,0,0,1-.32-.64c.44-.37.9-.84,1.41-1.23C985.89,462.54,982.82,463.14,981.91,465.79Zm8.15-5.37c-.18-.28-.33-.57-.5-.86a11.17,11.17,0,0,1-1-1.78.23.23,0,0,1,.38-.25,4.76,4.76,0,0,1,.85,1.2c.08.12.15.24.23.35.18.27.37.55.53.83a20.78,20.78,0,0,0-1.42-3.18c-.71-1.4-2-4.13-3.91-3.93-1.42.16,1.29,3.94,1.56,4.3A12.08,12.08,0,0,0,990.06,460.42Zm7.69,3.4c-3.18-.06-6.69.71-8.47,3.33-1.11,1.63.52,2.14,1.8,1.93a10,10,0,0,0,2.65-1,20.46,20.46,0,0,0,4.25-3,4.49,4.49,0,0,1-1.55,0c-.28-.06-.23-.49,0-.53a9.69,9.69,0,0,0,2-.5Zm.22-3,.17.25a4,4,0,0,1,.69,1.05c-.13-3.23-4.8-10.93-6.85-8.54-1.31,1.54,1.56,4.67,2.47,5.71a17.7,17.7,0,0,0,3.47,3.05,4.61,4.61,0,0,1-1.12-1.94.22.22,0,0,1,.13-.28.2.2,0,0,1,.29-.24A3,3,0,0,1,998,460.81Zm6.66,4.85a12.88,12.88,0,0,0-6.2,3.53c-.56.55-1.95,2.21-.45,2.44a7.23,7.23,0,0,0,3.52-.84,23.13,23.13,0,0,0,4.56-2.75,2.52,2.52,0,0,1-1.47-.12.3.3,0,0,1,0-.54,8.17,8.17,0,0,1,2-.81,4.64,4.64,0,0,1,.76-.14Zm2.73,1.21a7.64,7.64,0,0,0-.93.28,8.6,8.6,0,0,0-.84.33,14.28,14.28,0,0,0,2-.51c.1-.06.19-.13.29-.18A1.36,1.36,0,0,0,1007.36,466.87ZM1008,465a.42.42,0,0,1-.13-.07.09.09,0,0,1,0-.16,3.74,3.74,0,0,1-.24-.93c-.3-.69-.61-1.36-.88-2.05-.13-.3.33-.54.47-.23.23.53.5,1.05.76,1.56a.36.36,0,0,1,.25.23c.09.29.21.58.31.87.07.14.13.29.2.44.14-3.35-2.34-7.64-4.4-9.76-1.26-1.3-2.76-.75-2.57,1.12a10.64,10.64,0,0,0,.88,2.91c1.14,2.69,3.39,4.34,5.41,6.27C1008.09,465.16,1008.07,465.09,1008,465Zm8,4.21a20.11,20.11,0,0,0-7.3,2.13c-1.49.75-3,2.06-2.67,3.89.23,1.28,2.15.49,2.84.21,2.63-1.08,4.71-2.94,6.89-4.64a1.8,1.8,0,0,1-.92-.28.33.33,0,0,1,.12-.6,5,5,0,0,0,1-.38l.38-.19Zm2.08-.74a.22.22,0,0,1-.16-.09,3.12,3.12,0,0,1-.64-1.35l-.36-.77c-.06-.15.12-.36.27-.23l0,0a.37.37,0,0,1,.56.08,3.63,3.63,0,0,1,.29.75c-.21-2.75-1.43-5.88-3.35-7.44-2.68-2.17-2,2.27-1.49,3.46,1.09,2.53,3,4,4.8,5.92C1018.14,468.74,1018.15,468.62,1018.16,468.49Zm8.57,4.7c-3.77.1-12,3.31-10.27,7,1.52,3.23,7.3-1.58,10.54-4.6a5.14,5.14,0,0,1-2.79.83.36.36,0,0,1-.22-.63,9.63,9.63,0,0,1,2.72-1.5,11.89,11.89,0,0,1,1.29-.55Zm2.57-.68a.23.23,0,0,1-.2-.1,3.37,3.37,0,0,1-.76-1.92c-.22-.51-.44-1-.63-1.55-.08-.22.24-.4.34-.17.37.85.86,1.64,1.23,2.48a15.52,15.52,0,0,0-3.2-9c-1-1.22-3.57-1.56-3.35.73a9.15,9.15,0,0,0,.86,2.84,21.3,21.3,0,0,0,3.75,5.12,32.79,32.79,0,0,0-1.73-4.12c-.15-.26.26-.45.4-.2a34.52,34.52,0,0,1,2.66,5.9c.14.17.29.35.42.53l.2.08C1029.3,472.9,1029.3,472.7,1029.3,472.51Zm9.16,5.68a14.84,14.84,0,0,0-9.1,2.22c-1.34.92-3.49,2.81-2.14,4.57.7.92,2.36.33,3.2,0,3.06-1.1,5.48-3.26,7.88-5.36l-.38.11A30.41,30.41,0,0,1,1033,482a.16.16,0,0,1-.14-.27,19.94,19.94,0,0,1,2.91-1.73l-.21,0a.39.39,0,0,1,0-.77,12.47,12.47,0,0,0,3.09-1Zm-1.75-11c-1-1.2-3.3-1.73-3.42.68a7.43,7.43,0,0,0,.88,3.35c1.26,2.6,3.84,4.32,5.67,6.5l.38.17C1040.56,474.36,1038.79,469.7,1036.71,467.17Zm-2.79-13.56c-1.63-1,2.74,6.86,2.67,6.75a52.5,52.5,0,0,0,4,5c3.84,4.5,8,8.78,11.58,13.46-2.27-3.73-4.44-7.52-6.38-11.32a22,22,0,0,1-1.83-5.24A37.55,37.55,0,0,0,1033.92,453.61Zm22.44,15.24c0,2.36.3,4.66.48,7a45.42,45.42,0,0,1,2-11c.52-1.52,6.5-10.55,8.09-10.26-5.2-.95-11.36,5.12-13,9.61,0,.23,0,.47.07.69a.16.16,0,0,1-.16.18c.5,3.62.73,7.28,1.59,10.88.39,1.66.67,4.32,1.23,6.74-.47-2.46-.2-4.9-.41-7.38-.19-2.16-.8-4.34-.21-6.48C1056.12,468.64,1056.36,468.7,1056.36,468.85Zm-.79,10.4c-.77-3.8-1.83-7.5-2.26-11.36s-1-7.91-2.85-11.54a23.35,23.35,0,0,0-2.31-3.28c-.14-.18-4.42-4.38-4.35-3.22.24,4.34,0,8.49,1,12.78s3.77,8.17,6.09,12c1.44,2.36,2.75,4.8,4.11,7.21-1.1-2.54-1.88-5.22-2.8-7.86-1.54-4.41-3.61-8.78-4.09-13.47a.11.11,0,0,1,.21,0c1.13,4.09,2.6,8,4,12.06s2.32,7.89,4.24,11.5C1056.05,482.33,1055.83,480.52,1055.57,479.25Zm11.84-5.39c-2.9-2.13-2.5,4.1-2.44,5a23.47,23.47,0,0,0,1.46,6.08,65.63,65.63,0,0,0,3.24,6.77c-.75-1.93-1.23-4.22-.49-5.91a.37.37,0,0,1,.61-.13,3.68,3.68,0,0,1,.31.38.26.26,0,0,1,.49,0c.08.35.13.71.19,1.07.69,1.66.6,3.78.69,5.47,0,.36-.59.4-.64,0-.2-1.45-.27-2.91-.43-4.36a4.49,4.49,0,0,0-.73-1.64c-.54,2.26,1,4.75,1.29,6.94a.19.19,0,0,1-.35.11l0-.05c.16.37.32.75.45,1.13C1072.57,487.94,1073.72,478.49,1067.41,473.86Zm22.74,33.05a.23.23,0,0,1-.17-.17c-.26-.74-.42-1.51-.64-2.27a.29.29,0,0,1,.31-.37c-.07-.3-.14-.6-.19-.9a.25.25,0,0,1,.48-.1c.15.62.36,1.22.51,1.83.61-3.61,1.31-7.42-1.13-10.32-1.56-1.86-2.94-.17-3.38,1.37a7.12,7.12,0,0,0,.14,3.4,37.09,37.09,0,0,0,3,7.83l1,.71C1090.06,507.59,1090.1,507.25,1090.15,506.91Zm-1.25,3.5a11.66,11.66,0,0,1,2.06.5,27.11,27.11,0,0,0-2.63-1.1,10.21,10.21,0,0,0-4.44-.63c-1.33.15-3.68,1.94-2.11,3.29s4.87,1.19,6.85,1.18a37.28,37.28,0,0,0,5-.41c-1.09-.16-2.19-.32-3.26-.58a.2.2,0,0,1-.13-.32l-.17-.08c-.19-.1-.06-.38.12-.37a16.29,16.29,0,0,1,3,.44,17.34,17.34,0,0,0-1.66-.57,13.81,13.81,0,0,1-2.75-1A.21.21,0,0,1,1088.9,510.41Zm-9.75-8.8c-3.38-2.24-9.55-.95-13,0-4.82,1.3-9.37,2.85-14.31,3.82-1.8.35-3.67.37-5.49.56-4.85.5-.95,2.29,1.3,3.27a19.75,19.75,0,0,0,12.14,1.26A31.16,31.16,0,0,1,1063,507a22.19,22.19,0,0,1,3.92-2.87c-1.26.55-2.51,1.09-3.74,1.53-3.71,1.32-7.7,2.43-11.61,1.48-.13,0-.08-.21,0-.22a40.86,40.86,0,0,0,16.14-3.65c2.78-1.16,6-2.92,9-2A10.08,10.08,0,0,1,1079.15,501.61ZM1069,528.84c1.48,4.22,2.87-1.22,3.46-3.13a30.25,30.25,0,0,0,.89-8.49c0-3.44-.92-9.2,1.37-12.49a18.18,18.18,0,0,0-1.88,2,17.62,17.62,0,0,0-1.74,8.22c0,2.69.72,5.54.15,8.19,0,.17-.29.13-.32,0a44.41,44.41,0,0,1-.52-10,14.13,14.13,0,0,1,.65-3.94c-1.26,1.86-2.35,3.76-3.29,5.21a.2.2,0,0,1,0,.16A26.78,26.78,0,0,0,1069,528.84Zm-12.52-2.27c4-1.75,6.75-6.87,9.09-10.31,2.56-3.78,6.12-11.38,11.06-13.77a21.66,21.66,0,0,0-5.85,3.72c-3.66,2.92-5.57,7.18-8.43,10.76a.11.11,0,0,1-.18-.13c2.6-5,5.7-9.55,10.43-12.73a16.05,16.05,0,0,1,4.61-2.32c-6.16-.3-12.25,4-16.25,8.69a.2.2,0,0,1-.09.18l-.12.06c-.19.22-.36.44-.53.66a.15.15,0,0,1-.11.25h-.09c-.31.41-.61.82-.89,1.22C1058.45,513.88,1052.86,528.17,1056.51,526.57Z" transform="translate(-653.91 -444.38)"/><path class="cls-1" d="M1039.67,476.76a3,3,0,0,1-1.11-1.69.23.23,0,0,1,.18-.28,12.09,12.09,0,0,0-.76-1.29c-.19-.28.21-.64.41-.35a13,13,0,0,1,1.79,3.25.43.43,0,0,1,0,.25,2.44,2.44,0,0,1,0,.27c0,.14-.22.25-.33.11A1.82,1.82,0,0,1,1039.67,476.76Z" transform="translate(-653.91 -444.38)"/><path class="cls-1" d="M1071,483.46c-.15-.58-.29-1.15-.43-1.73,0-.19.25-.29.32-.11.2.52.42,1,.59,1.56a3.26,3.26,0,0,1,.26,1.68c0,.17-.29.16-.36,0A5.73,5.73,0,0,1,1071,483.46Z" transform="translate(-653.91 -444.38)"/><path class="cls-1" d="M1047,471.8a57.19,57.19,0,0,1-6.42-9.4c-.06-.12.12-.24.2-.13,2.21,3,4.44,6.2,6.39,9.41C1047.25,471.79,1047.09,471.89,1047,471.8Z" transform="translate(-653.91 -444.38)"/><path class="cls-1" d="M1048,464.3a31.39,31.39,0,0,1-1.81-6.31c-.06-.26.34-.34.41-.08.56,2.09,1.23,4.17,1.69,6.29A.16.16,0,0,1,1048,464.3Z" transform="translate(-653.91 -444.38)"/><path class="cls-1" d="M1057,461.58c0-.26.44-.13.39.12-.24,1.19-.69,2.36-1,3.52a.11.11,0,0,1-.22,0C1056,464,1056.75,462.76,1057,461.58Z" transform="translate(-653.91 -444.38)"/><path class="cls-1" d="M1055.27,458.9a7.89,7.89,0,0,1-.39.9c-.08.14-.27,0-.24-.12a22.37,22.37,0,0,1,3.13-6.45.6.6,0,0,1,.13-.75c.43-.43.78-.84,1.22-1.25a.5.5,0,0,1,.28-.14l.11-.1c.54-.48,1.45.27,1,.86l-.13.12h0l0,0a7.68,7.68,0,0,1-1.61,1.44.69.69,0,0,1-.6.08c-.39.69-.76,1.41-1.17,2.05a20.12,20.12,0,0,0-1.61,2.91l-.15.3C1055.26,458.79,1055.3,458.83,1055.27,458.9Z" transform="translate(-653.91 -444.38)"/><path class="cls-1" d="M1066.87,508.4c.08-.09.24.05.16.14-1.77,2.06-3.3,4.32-5,6.4a.12.12,0,0,1-.19-.13A30.77,30.77,0,0,1,1066.87,508.4Z" transform="translate(-653.91 -444.38)"/><path class="cls-1" d="M1054.16,508.15c2.86.65,6-.2,8.58-1.39.07,0,.12.07,0,.12a11.39,11.39,0,0,1-8.7,1.49C1053.94,508.34,1054,508.12,1054.16,508.15Z" transform="translate(-653.91 -444.38)"/><path class="cls-1" d="M1056.82,500.52a6,6,0,0,1,2.66.61c.14.06.07.29-.08.23a18.1,18.1,0,0,0-2.61-.65A.1.1,0,0,1,1056.82,500.52Z" transform="translate(-653.91 -444.38)"/><path class="cls-1" d="M1070.45,523.08c0,.1-.16.14-.2,0a29.75,29.75,0,0,1-.84-4.18.2.2,0,0,1,.39-.08A27.41,27.41,0,0,1,1070.45,523.08Z" transform="translate(-653.91 -444.38)"/><path class="cls-2" d="M965.57,485.86l-2.69-2.68-3.4-3.42L953.22,486l-3.67-3.67-4.82-4.83V500h29.44V477.26Zm3.77,9.28H949.55v-6l.26.25,3.41,3.42,3.42-3.42,2.84-2.84,2.67,2.68,3.42,3.42,3.41-3.42.36-.37Z" transform="translate(-653.91 -444.38)"/><path class="cls-2" d="M980.27,518.08l4-3-9.95-10.3H948.6c-1.33,0-7.82.35-12.24,5.51a15.54,15.54,0,0,0-3.08,5.83c-.49,3.39-1,6.79-1.45,10.18a14.35,14.35,0,0,1-1.15,2.21,13.81,13.81,0,0,1-2,2.4Q938.34,551,948,571.12l9.61-5.92a20,20,0,0,0,3.46-3.52,20.52,20.52,0,0,0,3.59-7.65c.41-2.9.83-5.79,1.25-8.69l8.7,2.95c.92,2.7,1.85,5.39,2.78,8.09L993,541.82Zm-36.62,29.2a8.4,8.4,0,0,1-1,1.74q-4.14-8.37-8.27-16.73a12.36,12.36,0,0,1,2.29-4.3l1.17-9.82a12.11,12.11,0,0,1,2.88-5.36,12.24,12.24,0,0,1,6.8-3.63h10.77a29.4,29.4,0,0,0-11,15.41q-1.47,10.23-3,20.48A8.65,8.65,0,0,1,943.65,547.28Zm18.51-12q-1.54,10.5-3.11,21a18.72,18.72,0,0,1-9.13,7.74q-2.1-4.44-4.19-8.89a28.27,28.27,0,0,0,1.93-3.86,30.83,30.83,0,0,0,1.57-5.26q1.56-10.37,3.13-20.75a36,36,0,0,1,12.27-16.13l7.16.06,5,5.45a34.51,34.51,0,0,0-14.59,20.64Zm16,9.59-11.46-4.11,1-7a27.81,27.81,0,0,1,8.93-12.55l10.57,19.53-8,7.22C978.83,547,978.49,545.93,978.15,544.89Z" transform="translate(-653.91 -444.38)"/><path class="cls-3" d="M667.3,580.88c.22-1.22.65-1.87,1.22-1.87s1,.36,2,2.23l19.66,40.61,19.58-41.11c.58-1.16.94-1.73,1.59-1.73s1.08.72,1.29,2.23l6.56,44.5c.64,4.54,1.36,6.62,3.52,7.27a14.36,14.36,0,0,0,4.47.72c.65,0,1.15.07,1.15.51s-.86.79-1.87.79c-1.8,0-11.74-.22-14.62-.43-1.66-.15-2.09-.36-2.09-.8s.29-.57.79-.79.65-1.08.36-3.09l-4.32-31.69h-.28l-15.7,32.69c-1.66,3.39-2,4-2.67,4s-1.36-1.44-2.52-3.6C683.65,628,678,617,677.09,615c-.64-1.51-5-10.58-7.49-16h-.28l-3.75,28.65a29.46,29.46,0,0,0-.21,3.39c0,1.37.93,2,2.16,2.3a13.72,13.72,0,0,0,3,.36c.58,0,1.08.15,1.08.51,0,.64-.65.79-1.73.79-3,0-6.26-.22-7.56-.22s-4.82.22-7.13.22c-.72,0-1.29-.15-1.29-.79,0-.36.43-.51,1.15-.51a9.49,9.49,0,0,0,2.16-.21c2-.44,2.59-3.24,2.95-5.69Z" transform="translate(-653.91 -444.38)"/><path class="cls-3" d="M747.75,619.62c-.36,0-.43.07-.58.43l-3.38,8.21a11,11,0,0,0-.94,3.74c0,1.08.58,1.73,2.52,1.73h.94c.79,0,.93.29.93.65s-.36.65-1,.65c-2.09,0-5-.22-7.06-.22-.65,0-4,.22-7.35.22-.79,0-1.15-.15-1.15-.65a.63.63,0,0,1,.72-.65c.58,0,1.3-.07,1.87-.07,2.88-.43,4-2.3,5.26-5.4l16.56-38.52c.72-1.73,1.23-2.45,1.87-2.45.94,0,1.23.57,1.88,1.94,1.51,3.39,12.09,28.44,16.13,37.73,2.44,5.55,4.24,6.34,5.4,6.56a15.55,15.55,0,0,0,2.37.21c.58,0,.87.22.87.65s-.36.65-2.74.65-6.84,0-12.17-.15c-1.15-.07-1.87-.07-1.87-.5s.14-.58.79-.65a1,1,0,0,0,.58-1.37l-4.9-12.31a.6.6,0,0,0-.65-.43Zm13.53-3.38c.29,0,.37-.15.29-.37l-6-15.55c-.08-.21-.15-.57-.29-.57s-.29.36-.36.57l-6.12,15.48c-.15.29,0,.44.21.44Z" transform="translate(-653.91 -444.38)"/><path class="cls-3" d="M794.26,592.47l-9.43.22c-3.67.07-5.19.5-6.12,1.87a7,7,0,0,0-1.08,2.09c-.15.5-.29.79-.72.79s-.58-.36-.58-1c0-1,1.23-6.91,1.37-7.41.14-.8.36-1.16.72-1.16s1.15.51,2.74.72a58.24,58.24,0,0,0,6.33.29H813.2a27.33,27.33,0,0,0,4.32-.29c1-.14,1.51-.28,1.73-.28.43,0,.5.36.5,1.29,0,1.3-.14,5.83-.14,7.42-.08.65-.22,1-.58,1s-.65-.29-.72-1.23l-.07-.64c-.15-1.59-1.8-3.46-7.49-3.53l-8-.15v24.77c0,5.62.07,10.44.36,13.11.21,1.73.57,2.88,2.45,3.17a24.27,24.27,0,0,0,3.24.21c.72,0,1,.36,1,.65s-.5.65-1.22.65c-4.18,0-8.42-.22-10.23-.22-1.44,0-5.76.22-8.28.22-.79,0-1.22-.22-1.22-.65s.22-.65,1-.65a9.16,9.16,0,0,0,2.23-.21c1.3-.29,1.66-1.44,1.87-3.24.29-2.6.29-7.42.29-13Z" transform="translate(-653.91 -444.38)"/><path class="cls-3" d="M823.56,611.84c0-10.44,7.35-24,26.57-24,16,0,25.93,8.86,25.93,22.9s-10.23,25.06-26.57,25.06C831.05,635.82,823.56,622.72,823.56,611.84ZM866.62,613c0-13.53-8.13-21.89-18.36-21.89-7,0-15.34,3.75-15.34,18.87,0,12.6,7.21,22.54,19.16,22.54C856.54,632.51,866.62,630.42,866.62,613Z" transform="translate(-653.91 -444.38)"/><path class="cls-3" d="M896.36,617.24c0,7.85,0,11.74,1.37,12.89,1.08.94,3.52,1.3,8.42,1.3,3.38,0,5.83-.07,7.42-1.73a7.33,7.33,0,0,0,1.58-3.67c.07-.58.22-.94.72-.94s.58.65.58,1.37a47.27,47.27,0,0,1-.94,7.06c-.43,1.36-.72,1.65-4,1.65-4.54,0-8.21-.07-11.38-.21s-5.83-.15-8.42-.15c-.72,0-2.09.07-3.6.07s-3.1.15-4.4.15c-.79,0-1.22-.22-1.22-.65s.22-.65,1-.65a9.62,9.62,0,0,0,2.23-.21c1.3-.29,1.66-1.44,1.87-3.24.29-2.6.29-7.42.29-13v-10.8c0-9.29,0-11-.07-13-.15-2.09-.72-2.73-2.74-3.31A8.1,8.1,0,0,0,883,590c-.72,0-1.08-.21-1.08-.65s.44-.57,1.37-.57c3,0,7,.14,8.71.14,1.52,0,6.7-.14,9.15-.14.94,0,1.37.14,1.37.57s-.36.65-1.15.65a13.53,13.53,0,0,0-2.45.22c-1.73.29-2.23,1.15-2.38,3.31-.14,1.94-.14,3.67-.14,13Z" transform="translate(-653.91 -444.38)"/><path class="cls-3" d="M934.78,619.62c-.36,0-.43.07-.58.43l-3.38,8.21a11,11,0,0,0-.94,3.74c0,1.08.58,1.73,2.52,1.73h.94c.79,0,.93.29.93.65s-.36.65-1,.65c-2.09,0-5-.22-7.06-.22-.65,0-4,.22-7.34.22-.8,0-1.16-.15-1.16-.65a.63.63,0,0,1,.72-.65c.58,0,1.3-.07,1.88-.07,2.88-.43,4-2.3,5.25-5.4l16.56-38.52c.72-1.73,1.23-2.45,1.88-2.45.93,0,1.22.57,1.87,1.94C947.38,592.62,958,617.67,962,627c2.44,5.55,4.25,6.34,5.4,6.56a15.55,15.55,0,0,0,2.37.21c.58,0,.87.22.87.65s-.36.65-2.74.65-6.84,0-12.17-.15c-1.15-.07-1.87-.07-1.87-.5s.14-.58.79-.65a1,1,0,0,0,.58-1.37l-4.9-12.31a.6.6,0,0,0-.65-.43Zm13.54-3.38c.28,0,.36-.15.28-.37l-6-15.55c-.07-.21-.15-.57-.29-.57s-.29.36-.36.57l-6.12,15.48c-.15.29,0,.44.21.44Z" transform="translate(-653.91 -444.38)"/><path class="cls-3" d="M999.58,601.47c0-10.94,0-13-.14-15.26-.14-2.45-.86-3.67-2.45-4a10,10,0,0,0-2.59-.29c-.72,0-1.15-.15-1.15-.72s.57-.58,1.73-.58c2.73,0,7.27.22,9.36.22,1.8,0,6-.22,8.78-.22.94,0,1.51.15,1.51.58s-.43.72-1.15.72a12.56,12.56,0,0,0-2.16.21c-1.94.36-2.52,1.59-2.66,4.11-.15,2.3-.15,4.32-.15,15.26v12.68c0,7,0,12.67.29,15.77.22,1.94.72,3.24,2.88,3.52a29.16,29.16,0,0,0,3.67.29c.8,0,1.16.22,1.16.58s-.58.72-1.37.72c-4.75,0-9.29-.22-11.23-.22-1.66,0-6.2.22-9.08.22-.93,0-1.44-.22-1.44-.72s.29-.58,1.15-.58a11.47,11.47,0,0,0,2.6-.29c1.44-.28,1.87-1.51,2.09-3.6.35-3,.35-8.71.35-15.69Z" transform="translate(-653.91 -444.38)"/><path class="cls-3" d="M1033.21,626.68c.14,4.75.94,6.19,2.16,6.62a10.73,10.73,0,0,0,3.31.43c.72,0,1.08.29,1.08.65s-.57.65-1.44.65c-4.1,0-7-.22-8.21-.22-.57,0-3.6.22-6.84.22-.86,0-1.44-.07-1.44-.65,0-.36.44-.65,1-.65a12.8,12.8,0,0,0,2.88-.29c1.66-.43,1.87-2.08,2-7.41l.57-36.29c0-1.23.43-2.09,1.08-2.09s1.66.93,2.74,2c.79.8,10.29,10.52,19.51,19.52,4.32,4.25,12.75,12.89,13.68,13.75h.29l-.65-27.22c-.07-3.74-.65-4.82-2.16-5.4a10.61,10.61,0,0,0-3.31-.36c-.79,0-1-.29-1-.65s.65-.57,1.59-.57c3.31,0,6.69.14,8.06.14.72,0,3.1-.14,6.19-.14.87,0,1.44.07,1.44.57s-.36.65-1.08.65a6.31,6.31,0,0,0-1.94.22c-1.73.5-2.23,1.58-2.31,5l-.71,38.59c0,1.37-.51,2-1,2a3.78,3.78,0,0,1-2.6-1.3c-4-3.67-11.88-11.23-18.5-17.64-6.91-6.62-13.61-14-14.83-15.12h-.22Z" transform="translate(-653.91 -444.38)"/><path class="cls-3" d="M1127.75,630.92c0,1.66,0,1.73-.79,2.16-4.25,2.09-10.52,2.74-15.49,2.74-15.55,0-29.3-7.06-29.3-24a22.62,22.62,0,0,1,11.09-20c6-3.53,11.73-4,17.06-4a72.11,72.11,0,0,1,11.24,1,48.3,48.3,0,0,0,5,.65c.72.07.86.29.86.72a83.5,83.5,0,0,0-.43,10.08c0,.94-.36,1.37-.87,1.37s-.57-.29-.64-.79a8.19,8.19,0,0,0-2.16-5c-1.88-2-6.63-4.68-13.76-4.68-3.45,0-7.85.07-12.24,3.6-3.53,2.88-5.83,7.41-5.83,14.9,0,13.18,8.49,22.76,22,22.76a10.35,10.35,0,0,0,4.47-.65,2,2,0,0,0,1.22-2.16V624c0-3,0-5.33-.07-7.2-.07-2.09-.72-2.73-2.74-3.31a11,11,0,0,0-2.45-.22c-.57,0-1-.29-1-.65s.5-.57,1.37-.57c3.31,0,7.84.14,9.72.14s5.32-.14,7.41-.14c.87,0,1.3.07,1.3.57a.73.73,0,0,1-.79.65,8.23,8.23,0,0,0-1.73.22c-1.73.29-2.38,1.15-2.45,3.31-.07,1.87-.07,4.32-.07,7.35Z" transform="translate(-653.91 -444.38)"/><path class="cls-3" d="M1148.19,619.62c-.36,0-.43.07-.57.43l-3.39,8.21a11,11,0,0,0-.93,3.74c0,1.08.57,1.73,2.52,1.73h.93c.79,0,.94.29.94.65s-.36.65-1,.65c-2.09,0-5-.22-7.06-.22-.64,0-4,.22-7.34.22-.79,0-1.15-.15-1.15-.65s.21-.65.72-.65,1.29-.07,1.87-.07c2.88-.43,4-2.3,5.26-5.4l16.56-38.52c.72-1.73,1.22-2.45,1.87-2.45.94,0,1.22.57,1.87,1.94,1.51,3.39,12.1,28.44,16.13,37.73,2.45,5.55,4.25,6.34,5.4,6.56a15.78,15.78,0,0,0,2.38.21c.57,0,.86.22.86.65s-.36.65-2.73.65-6.84,0-12.17-.15c-1.16-.07-1.88-.07-1.88-.5s.15-.58.8-.65a1,1,0,0,0,.57-1.37l-4.89-12.31a.6.6,0,0,0-.65-.43Zm13.54-3.38c.29,0,.36-.15.29-.37l-6-15.55c-.07-.21-.14-.57-.29-.57s-.28.36-.36.57l-6.12,15.48c-.14.29,0,.44.22.44Z" transform="translate(-653.91 -444.38)"/><path class="cls-3" d="M1192,606.44c0-9.29,0-11-.07-13-.15-2.09-.72-2.73-2.74-3.31a11.22,11.22,0,0,0-2.52-.22c-.65,0-1.08-.21-1.08-.65s.51-.57,1.44-.57c3.31,0,7.35.14,9.15.14s6.48-.14,10.29-.14c7.92,0,18.58,0,25.49,7,3.17,3.17,6,8.28,6,15.56a23.73,23.73,0,0,1-6.91,17.06c-2.88,2.88-9.58,7.2-21.25,7.2-2.3,0-5-.21-7.56-.36s-4.82-.36-6.4-.36c-.72,0-2.09.07-3.6.07s-3.1.15-4.4.15c-.79,0-1.22-.22-1.22-.65s.21-.65,1-.65a9.62,9.62,0,0,0,2.23-.21c1.3-.29,1.66-1.44,1.87-3.24.29-2.6.29-7.42.29-13Zm8.5,6.77c0,6.48.07,11.16.14,12.39.07,1.51.22,3.67.72,4.32.79,1.15,3.31,2.44,8.28,2.44,5.76,0,10-1,13.83-4.17,4.1-3.39,5.4-8.86,5.4-15.2,0-7.77-3.1-12.81-5.91-15.26-5.83-5.19-12.74-5.83-17.71-5.83a13.36,13.36,0,0,0-3.89.43c-.58.21-.79.5-.79,1.22-.07,2.09-.07,7.13-.07,12Z" transform="translate(-653.91 -444.38)"/><path class="cls-3" d="M1250.07,606.44c0-9.29,0-11-.07-13-.14-2.09-.79-2.81-2.16-3.24a8,8,0,0,0-2.31-.29c-.64,0-1-.14-1-.72,0-.36.5-.5,1.51-.5,2.38,0,6.7.14,8.5.14,1.58,0,5.68-.14,8.13-.14.79,0,1.3.14,1.3.5,0,.58-.36.72-1,.72a8.41,8.41,0,0,0-1.87.22c-1.73.29-2.23,1.15-2.38,3.31-.14,1.94-.14,3.67-.14,13v10.8c0,5.91,0,10.8.29,13.4.21,1.65.64,2.59,2.52,2.88a24.27,24.27,0,0,0,3.24.21c.72,0,1,.36,1,.65s-.5.65-1.22.65c-4.18,0-8.5-.22-10.22-.22-1.44,0-5.76.22-8.28.22-.8,0-1.23-.22-1.23-.65s.22-.65,1-.65a9.5,9.5,0,0,0,2.23-.21c1.3-.29,1.66-1.16,1.87-3,.29-2.52.29-7.41.29-13.32Z" transform="translate(-653.91 -444.38)"/></svg>